<mxfile host="65bd71144e">
    <diagram id="HC1Cu2epK2iE6NDyu72z" name="Page-1">
        <mxGraphModel dx="5859" dy="4440" grid="1" gridSize="10" guides="1" tooltips="1" connect="1" arrows="1" fold="1" page="1" pageScale="1" pageWidth="827" pageHeight="1169" background="#ffffff" math="0" shadow="1">
            <root>
                <mxCell id="0"/>
                <mxCell id="1" parent="0"/>
                <mxCell id="2" value="Casillero" style="swimlane;fontStyle=1;align=center;verticalAlign=top;childLayout=stackLayout;horizontal=1;startSize=40;horizontalStack=0;resizeParent=1;resizeParentMax=0;resizeLast=0;collapsible=1;marginBottom=0;fontColor=#ffffff;labelBorderColor=none;labelBackgroundColor=none;swimlaneFillColor=#E8E8E8;strokeColor=#6F0000;fillColor=#a20025;rounded=1;strokeWidth=4;shadow=1;fontSize=21;" parent="1" vertex="1">
                    <mxGeometry x="-150" y="-800" width="600" height="250" as="geometry"/>
                </mxCell>
                <mxCell id="3" value="" style="text;fillColor=none;align=left;verticalAlign=top;spacingLeft=4;spacingRight=4;overflow=hidden;rotatable=0;points=[[0,0.5],[1,0.5]];portConstraint=eastwest;fontColor=#0D0D0D;labelBorderColor=none;labelBackgroundColor=none;strokeColor=#000000;" parent="2" vertex="1">
                    <mxGeometry y="40" width="600" height="24" as="geometry"/>
                </mxCell>
                <mxCell id="4" value="" style="line;strokeWidth=1;fillColor=none;align=left;verticalAlign=middle;spacingTop=-1;spacingLeft=3;spacingRight=3;rotatable=0;labelPosition=right;points=[];portConstraint=eastwest;" parent="2" vertex="1">
                    <mxGeometry y="64" width="600" height="8" as="geometry"/>
                </mxCell>
                <mxCell id="186" value="+ Casillero();&#10;+ ~Casillero(){};" style="text;strokeColor=none;fillColor=none;align=left;verticalAlign=top;spacingLeft=4;spacingRight=4;overflow=hidden;rotatable=0;points=[[0,0.5],[1,0.5]];portConstraint=eastwest;fontColor=#0D0D0D;labelBorderColor=none;labelBackgroundColor=none;fontStyle=0" parent="2" vertex="1">
                    <mxGeometry y="72" width="600" height="42" as="geometry"/>
                </mxCell>
                <mxCell id="5" value="+ void mostrar() = 0;&#10;+ void display() = 0;&#10;+ bool agregar(Edificio *);&#10;+ Edificio *mostrar_edificio();&#10;+ void demoler() = 0;&#10;+ bool estransitable()&#10;+ bool agregar(Material *material)" style="text;strokeColor=none;fillColor=none;align=left;verticalAlign=top;spacingLeft=4;spacingRight=4;overflow=hidden;rotatable=0;points=[[0,0.5],[1,0.5]];portConstraint=eastwest;fontColor=#0D0D0D;labelBorderColor=none;labelBackgroundColor=none;fontStyle=2" parent="2" vertex="1">
                    <mxGeometry y="114" width="600" height="136" as="geometry"/>
                </mxCell>
                <mxCell id="483" style="edgeStyle=none;jumpStyle=arc;jumpSize=16;html=1;fontSize=21;fontColor=#FFFFFF;endArrow=block;endFill=0;endSize=16;strokeColor=#000000;strokeWidth=3;entryX=0.24;entryY=0.998;entryDx=0;entryDy=0;entryPerimeter=0;" parent="1" source="6" target="5" edge="1">
                    <mxGeometry relative="1" as="geometry">
                        <Array as="points">
                            <mxPoint x="-400" y="-360"/>
                            <mxPoint x="-6" y="-360"/>
                        </Array>
                    </mxGeometry>
                </mxCell>
                <mxCell id="504" style="edgeStyle=none;jumpStyle=arc;jumpSize=16;html=1;entryX=0.5;entryY=0;entryDx=0;entryDy=0;fontSize=21;fontColor=#FFFFFF;endArrow=block;endFill=1;endSize=16;strokeColor=#000000;strokeWidth=3;" parent="1" source="6" target="22" edge="1">
                    <mxGeometry relative="1" as="geometry">
                        <Array as="points">
                            <mxPoint x="-1305" y="-192"/>
                        </Array>
                    </mxGeometry>
                </mxCell>
                <mxCell id="6" value="CasilleroTransitable" style="swimlane;fontStyle=1;align=center;verticalAlign=top;childLayout=stackLayout;horizontal=1;startSize=26;horizontalStack=0;resizeParent=1;resizeParentMax=0;resizeLast=0;collapsible=1;marginBottom=0;fontColor=#ffffff;labelBorderColor=none;labelBackgroundColor=none;swimlaneFillColor=#E8E8E8;strokeColor=#6F0000;fillColor=#a20025;shadow=1;rounded=1;" parent="1" vertex="1">
                    <mxGeometry x="-590" y="-310" width="400" height="230" as="geometry"/>
                </mxCell>
                <mxCell id="7" value="+ Material *material;" style="text;fillColor=none;align=left;verticalAlign=top;spacingLeft=4;spacingRight=4;overflow=hidden;rotatable=0;points=[[0,0.5],[1,0.5]];portConstraint=eastwest;fontColor=#0D0D0D;labelBorderColor=none;labelBackgroundColor=none;strokeColor=#000000;shadow=1;" parent="6" vertex="1">
                    <mxGeometry y="26" width="400" height="34" as="geometry"/>
                </mxCell>
                <mxCell id="8" value="" style="line;strokeWidth=1;fillColor=none;align=left;verticalAlign=middle;spacingTop=-1;spacingLeft=3;spacingRight=3;rotatable=0;labelPosition=right;points=[];portConstraint=eastwest;shadow=1;" parent="6" vertex="1">
                    <mxGeometry y="60" width="400" height="8" as="geometry"/>
                </mxCell>
                <mxCell id="9" value="+ CasilleroTransitable();&#10;+ ~CasilleroTransitable();" style="text;strokeColor=none;fillColor=none;align=left;verticalAlign=top;spacingLeft=4;spacingRight=4;overflow=hidden;rotatable=0;points=[[0,0.5],[1,0.5]];portConstraint=eastwest;fontColor=#0D0D0D;labelBorderColor=none;labelBackgroundColor=none;shadow=1;" parent="6" vertex="1">
                    <mxGeometry y="68" width="400" height="42" as="geometry"/>
                </mxCell>
                <mxCell id="189" value="+ void mostrar();&#10;+ void display();&#10;+ bool estransitable();&#10;+ bool agregar(Material *material);&#10;+ void demoler();" style="text;strokeColor=none;fillColor=none;align=left;verticalAlign=top;spacingLeft=4;spacingRight=4;overflow=hidden;rotatable=0;points=[[0,0.5],[1,0.5]];portConstraint=eastwest;fontColor=#0D0D0D;labelBorderColor=none;labelBackgroundColor=none;fontStyle=2;shadow=1;" parent="6" vertex="1">
                    <mxGeometry y="110" width="400" height="120" as="geometry"/>
                </mxCell>
                <mxCell id="485" style="edgeStyle=none;jumpStyle=arc;jumpSize=16;html=1;fontSize=21;fontColor=#FFFFFF;endArrow=block;endFill=0;endSize=16;strokeColor=#000000;strokeWidth=3;" parent="1" source="10" edge="1">
                    <mxGeometry relative="1" as="geometry">
                        <mxPoint x="370" y="-550" as="targetPoint"/>
                        <Array as="points">
                            <mxPoint x="950" y="-360"/>
                            <mxPoint x="370" y="-360"/>
                        </Array>
                    </mxGeometry>
                </mxCell>
                <mxCell id="10" value="CasilleroConstruible" style="swimlane;fontStyle=1;align=center;verticalAlign=top;childLayout=stackLayout;horizontal=1;startSize=26;horizontalStack=0;resizeParent=1;resizeParentMax=0;resizeLast=0;collapsible=1;marginBottom=0;fontColor=#ffffff;labelBorderColor=none;labelBackgroundColor=none;swimlaneFillColor=#E8E8E8;strokeColor=#6F0000;fillColor=#a20025;rounded=1;shadow=1;" parent="1" vertex="1">
                    <mxGeometry x="720" y="-320" width="450" height="240" as="geometry"/>
                </mxCell>
                <mxCell id="11" value="- Edificio *edificio" style="text;fillColor=none;align=left;verticalAlign=top;spacingLeft=4;spacingRight=4;overflow=hidden;rotatable=0;points=[[0,0.5],[1,0.5]];portConstraint=eastwest;fontColor=#0D0D0D;labelBorderColor=none;labelBackgroundColor=none;strokeColor=#000000;" parent="10" vertex="1">
                    <mxGeometry y="26" width="450" height="34" as="geometry"/>
                </mxCell>
                <mxCell id="12" value="" style="line;strokeWidth=1;fillColor=none;align=left;verticalAlign=middle;spacingTop=-1;spacingLeft=3;spacingRight=3;rotatable=0;labelPosition=right;points=[];portConstraint=eastwest;" parent="10" vertex="1">
                    <mxGeometry y="60" width="450" height="8" as="geometry"/>
                </mxCell>
                <mxCell id="13" value="+ CasilleroConstruible();&#10;+ ~CasilleroConstruible();" style="text;strokeColor=none;fillColor=none;align=left;verticalAlign=top;spacingLeft=4;spacingRight=4;overflow=hidden;rotatable=0;points=[[0,0.5],[1,0.5]];portConstraint=eastwest;fontColor=#0D0D0D;labelBorderColor=none;labelBackgroundColor=none;" parent="10" vertex="1">
                    <mxGeometry y="68" width="450" height="42" as="geometry"/>
                </mxCell>
                <mxCell id="187" value="+ bool agregar(Edificio *edificio);&#10;+ void mostrar();&#10;+ void display();&#10;+ void demoler();&#10;+ Edificio *mostrar_edificio();" style="text;strokeColor=none;fillColor=none;align=left;verticalAlign=top;spacingLeft=4;spacingRight=4;overflow=hidden;rotatable=0;points=[[0,0.5],[1,0.5]];portConstraint=eastwest;fontColor=#0D0D0D;labelBorderColor=none;labelBackgroundColor=none;fontStyle=2" parent="10" vertex="1">
                    <mxGeometry y="110" width="450" height="130" as="geometry"/>
                </mxCell>
                <mxCell id="484" style="edgeStyle=none;jumpStyle=arc;jumpSize=16;html=1;fontSize=21;fontColor=#FFFFFF;endArrow=block;endFill=0;endSize=16;strokeColor=#000000;strokeWidth=3;" parent="1" source="14" target="5" edge="1">
                    <mxGeometry relative="1" as="geometry"/>
                </mxCell>
                <mxCell id="14" value="CasilleroInhabitable" style="swimlane;fontStyle=1;align=center;verticalAlign=top;childLayout=stackLayout;horizontal=1;startSize=26;horizontalStack=0;resizeParent=1;resizeParentMax=0;resizeLast=0;collapsible=1;marginBottom=0;fontColor=#ffffff;labelBorderColor=none;labelBackgroundColor=none;swimlaneFillColor=#E8E8E8;strokeColor=#6F0000;fillColor=#a20025;rounded=1;shadow=1;" parent="1" vertex="1">
                    <mxGeometry x="-70" y="-320" width="440" height="230" as="geometry"/>
                </mxCell>
                <mxCell id="15" value="" style="text;fillColor=none;align=left;verticalAlign=top;spacingLeft=4;spacingRight=4;overflow=hidden;rotatable=0;points=[[0,0.5],[1,0.5]];portConstraint=eastwest;fontColor=#0D0D0D;labelBorderColor=none;labelBackgroundColor=none;strokeColor=#000000;" parent="14" vertex="1">
                    <mxGeometry y="26" width="440" height="24" as="geometry"/>
                </mxCell>
                <mxCell id="16" value="" style="line;strokeWidth=1;fillColor=none;align=left;verticalAlign=middle;spacingTop=-1;spacingLeft=3;spacingRight=3;rotatable=0;labelPosition=right;points=[];portConstraint=eastwest;" parent="14" vertex="1">
                    <mxGeometry y="50" width="440" height="8" as="geometry"/>
                </mxCell>
                <mxCell id="17" value="+ CasilleroInaccesible();&#10;+ ~CasilleroInaccesible();" style="text;strokeColor=none;fillColor=none;align=left;verticalAlign=top;spacingLeft=4;spacingRight=4;overflow=hidden;rotatable=0;points=[[0,0.5],[1,0.5]];portConstraint=eastwest;fontColor=#0D0D0D;labelBorderColor=none;labelBackgroundColor=none;" parent="14" vertex="1">
                    <mxGeometry y="58" width="440" height="42" as="geometry"/>
                </mxCell>
                <mxCell id="188" value="+ void mostrar();&#10;+ void display();&#10;+ void demoler();" style="text;strokeColor=none;fillColor=none;align=left;verticalAlign=top;spacingLeft=4;spacingRight=4;overflow=hidden;rotatable=0;points=[[0,0.5],[1,0.5]];portConstraint=eastwest;fontColor=#0D0D0D;labelBorderColor=none;labelBackgroundColor=none;fontStyle=2" parent="14" vertex="1">
                    <mxGeometry y="100" width="440" height="130" as="geometry"/>
                </mxCell>
                <mxCell id="22" value="Material" style="swimlane;fontStyle=1;align=center;verticalAlign=top;childLayout=stackLayout;horizontal=1;startSize=40;horizontalStack=0;resizeParent=1;resizeParentMax=0;resizeLast=0;collapsible=1;marginBottom=0;fontColor=#ffffff;labelBorderColor=none;labelBackgroundColor=none;swimlaneFillColor=#E8E8E8;strokeColor=#001DBC;fillColor=#0050ef;fontSize=21;" parent="1" vertex="1">
                    <mxGeometry x="-1510" y="440" width="410" height="244" as="geometry"/>
                </mxCell>
                <mxCell id="23" value="- string nombre;&#10;- string codigo;&#10;- int cantidad;" style="text;fillColor=none;align=left;verticalAlign=top;spacingLeft=4;spacingRight=4;overflow=hidden;rotatable=0;points=[[0,0.5],[1,0.5]];portConstraint=eastwest;fontColor=#0D0D0D;labelBorderColor=none;labelBackgroundColor=none;strokeColor=#000000;" parent="22" vertex="1">
                    <mxGeometry y="40" width="410" height="64" as="geometry"/>
                </mxCell>
                <mxCell id="24" value="" style="line;strokeWidth=1;fillColor=none;align=left;verticalAlign=middle;spacingTop=-1;spacingLeft=3;spacingRight=3;rotatable=0;labelPosition=right;points=[];portConstraint=eastwest;" parent="22" vertex="1">
                    <mxGeometry y="104" width="410" height="8" as="geometry"/>
                </mxCell>
                <mxCell id="25" value="+ Material();&#10;+ Material(int cantidad);&#10;+ ~Material();&#10;+ string obtener_nombre();&#10;+ string obtener_codigo();&#10;+ int obtener_cantidad();&#10;+ void modificar_cantidad(int cantidad);" style="text;strokeColor=none;fillColor=none;align=left;verticalAlign=top;spacingLeft=4;spacingRight=4;overflow=hidden;rotatable=0;points=[[0,0.5],[1,0.5]];portConstraint=eastwest;fontColor=#0D0D0D;labelBorderColor=none;labelBackgroundColor=none;" parent="22" vertex="1">
                    <mxGeometry y="112" width="410" height="132" as="geometry"/>
                </mxCell>
                <mxCell id="26" value="Edificio" style="swimlane;fontStyle=1;align=center;verticalAlign=top;childLayout=stackLayout;horizontal=1;startSize=40;horizontalStack=0;resizeParent=1;resizeParentMax=0;resizeLast=0;collapsible=1;marginBottom=0;fontColor=#ffffff;labelBorderColor=none;labelBackgroundColor=none;swimlaneFillColor=#E8E8E8;strokeColor=#2D7600;fillColor=#60a917;fontSize=21;" parent="1" vertex="1">
                    <mxGeometry x="2260" y="385" width="550" height="352" as="geometry"/>
                </mxCell>
                <mxCell id="29" value="- string nombre;&#10;- string codigo;&#10;- int piedra;&#10;- int madera;&#10;- int metal;&#10;- int cant_max_construccion;&#10;- string mat_que_produce;&#10;- int cant_mat_que_produce;" style="text;strokeColor=none;fillColor=none;align=left;verticalAlign=top;spacingLeft=4;spacingRight=4;overflow=hidden;rotatable=0;points=[[0,0.5],[1,0.5]];portConstraint=eastwest;fontColor=#0D0D0D;labelBorderColor=none;labelBackgroundColor=none;" parent="26" vertex="1">
                    <mxGeometry y="40" width="550" height="130" as="geometry"/>
                </mxCell>
                <mxCell id="28" value="" style="line;strokeWidth=1;fillColor=none;align=left;verticalAlign=middle;spacingTop=-1;spacingLeft=3;spacingRight=3;rotatable=0;labelPosition=right;points=[];portConstraint=eastwest;" parent="26" vertex="1">
                    <mxGeometry y="170" width="550" height="8" as="geometry"/>
                </mxCell>
                <mxCell id="27" value="+ Edificio(int s, int w, int m, int p);&#10;+ Edificio(Edificio *edificio);&#10;+ string obtener_nombre();&#10;+ int obtener_madera();&#10;+ int obtener_metal();&#10;+ int obtener_piedra();&#10;+ int obtener_cant_max();&#10;+ string obtener_codigo();&#10;+ int obtener_cant_mat_producido();&#10;+ string obtener_mat_producido();&#10;+ void mostrar_edificio();" style="text;fillColor=none;align=left;verticalAlign=top;spacingLeft=4;spacingRight=4;overflow=hidden;rotatable=0;points=[[0,0.5],[1,0.5]];portConstraint=eastwest;fontColor=#0D0D0D;labelBorderColor=none;labelBackgroundColor=none;strokeColor=#000000;" parent="26" vertex="1">
                    <mxGeometry y="178" width="550" height="174" as="geometry"/>
                </mxCell>
                <mxCell id="454" style="edgeStyle=none;jumpStyle=arc;jumpSize=16;html=1;fontSize=21;fontColor=#FFFFFF;strokeColor=#000000;strokeWidth=3;endArrow=block;endFill=0;endSize=16;entryX=0.108;entryY=1.003;entryDx=0;entryDy=0;entryPerimeter=0;" parent="1" source="30" target="27" edge="1">
                    <mxGeometry relative="1" as="geometry">
                        <Array as="points">
                            <mxPoint x="1540" y="800"/>
                            <mxPoint x="2319" y="800"/>
                        </Array>
                    </mxGeometry>
                </mxCell>
                <mxCell id="30" value="Mina" style="swimlane;fontStyle=1;align=center;verticalAlign=top;childLayout=stackLayout;horizontal=1;startSize=26;horizontalStack=0;resizeParent=1;resizeParentMax=0;resizeLast=0;collapsible=1;marginBottom=0;fontColor=#ffffff;labelBorderColor=none;labelBackgroundColor=none;swimlaneFillColor=#E8E8E8;strokeColor=#2D7600;fillColor=#60a917;" parent="1" vertex="1">
                    <mxGeometry x="1430" y="1098" width="220" height="140" as="geometry"/>
                </mxCell>
                <mxCell id="31" value="" style="text;fillColor=none;align=left;verticalAlign=top;spacingLeft=4;spacingRight=4;overflow=hidden;rotatable=0;points=[[0,0.5],[1,0.5]];portConstraint=eastwest;fontColor=#0D0D0D;labelBorderColor=none;labelBackgroundColor=none;strokeColor=#000000;" parent="30" vertex="1">
                    <mxGeometry y="26" width="220" height="44" as="geometry"/>
                </mxCell>
                <mxCell id="32" value="" style="line;strokeWidth=1;fillColor=none;align=left;verticalAlign=middle;spacingTop=-1;spacingLeft=3;spacingRight=3;rotatable=0;labelPosition=right;points=[];portConstraint=eastwest;" parent="30" vertex="1">
                    <mxGeometry y="70" width="220" height="8" as="geometry"/>
                </mxCell>
                <mxCell id="33" value="+ Mina(int s, int w, int m, int p);&#10;+ Mina(Edificio *edificio);&#10;+ ~Mina();" style="text;strokeColor=none;fillColor=none;align=left;verticalAlign=top;spacingLeft=4;spacingRight=4;overflow=hidden;rotatable=0;points=[[0,0.5],[1,0.5]];portConstraint=eastwest;fontColor=#0D0D0D;labelBorderColor=none;labelBackgroundColor=none;" parent="30" vertex="1">
                    <mxGeometry y="78" width="220" height="62" as="geometry"/>
                </mxCell>
                <mxCell id="455" style="edgeStyle=none;jumpStyle=arc;jumpSize=16;html=1;fontSize=21;fontColor=#FFFFFF;endArrow=block;endFill=0;endSize=16;strokeColor=#000000;strokeWidth=3;entryX=0.181;entryY=1.032;entryDx=0;entryDy=0;entryPerimeter=0;" parent="1" source="34" target="27" edge="1">
                    <mxGeometry relative="1" as="geometry">
                        <Array as="points">
                            <mxPoint x="1780" y="840"/>
                            <mxPoint x="2360" y="840"/>
                        </Array>
                    </mxGeometry>
                </mxCell>
                <mxCell id="34" value="Aserradero" style="swimlane;fontStyle=1;align=center;verticalAlign=top;childLayout=stackLayout;horizontal=1;startSize=26;horizontalStack=0;resizeParent=1;resizeParentMax=0;resizeLast=0;collapsible=1;marginBottom=0;fontColor=#ffffff;labelBorderColor=none;labelBackgroundColor=none;swimlaneFillColor=#E8E8E8;strokeColor=#2D7600;fillColor=#60a917;" parent="1" vertex="1">
                    <mxGeometry x="1670" y="1098" width="220" height="140" as="geometry"/>
                </mxCell>
                <mxCell id="35" value="" style="text;fillColor=none;align=left;verticalAlign=top;spacingLeft=4;spacingRight=4;overflow=hidden;rotatable=0;points=[[0,0.5],[1,0.5]];portConstraint=eastwest;fontColor=#0D0D0D;labelBorderColor=none;labelBackgroundColor=none;strokeColor=#000000;" parent="34" vertex="1">
                    <mxGeometry y="26" width="220" height="44" as="geometry"/>
                </mxCell>
                <mxCell id="36" value="" style="line;strokeWidth=1;fillColor=none;align=left;verticalAlign=middle;spacingTop=-1;spacingLeft=3;spacingRight=3;rotatable=0;labelPosition=right;points=[];portConstraint=eastwest;" parent="34" vertex="1">
                    <mxGeometry y="70" width="220" height="8" as="geometry"/>
                </mxCell>
                <mxCell id="37" value="+ Aserradero(int s, int w, int m, int p);&#10;+ Aserradero(Edificio *edificio);&#10;+ ~Aserradero();" style="text;strokeColor=none;fillColor=none;align=left;verticalAlign=top;spacingLeft=4;spacingRight=4;overflow=hidden;rotatable=0;points=[[0,0.5],[1,0.5]];portConstraint=eastwest;fontColor=#0D0D0D;labelBorderColor=none;labelBackgroundColor=none;" parent="34" vertex="1">
                    <mxGeometry y="78" width="220" height="62" as="geometry"/>
                </mxCell>
                <mxCell id="456" style="edgeStyle=none;jumpStyle=arc;jumpSize=16;html=1;fontSize=21;fontColor=#FFFFFF;endArrow=block;endFill=0;endSize=16;strokeColor=#000000;strokeWidth=3;entryX=0.261;entryY=1.032;entryDx=0;entryDy=0;entryPerimeter=0;" parent="1" source="38" target="27" edge="1">
                    <mxGeometry relative="1" as="geometry">
                        <Array as="points">
                            <mxPoint x="2040" y="880"/>
                            <mxPoint x="2404" y="880"/>
                        </Array>
                    </mxGeometry>
                </mxCell>
                <mxCell id="38" value="Fabrica" style="swimlane;fontStyle=1;align=center;verticalAlign=top;childLayout=stackLayout;horizontal=1;startSize=26;horizontalStack=0;resizeParent=1;resizeParentMax=0;resizeLast=0;collapsible=1;marginBottom=0;fontColor=#ffffff;labelBorderColor=none;labelBackgroundColor=none;swimlaneFillColor=#E8E8E8;strokeColor=#2D7600;fillColor=#60a917;" parent="1" vertex="1">
                    <mxGeometry x="1925" y="1098" width="240" height="140" as="geometry"/>
                </mxCell>
                <mxCell id="39" value="" style="text;fillColor=none;align=left;verticalAlign=top;spacingLeft=4;spacingRight=4;overflow=hidden;rotatable=0;points=[[0,0.5],[1,0.5]];portConstraint=eastwest;fontColor=#0D0D0D;labelBorderColor=none;labelBackgroundColor=none;strokeColor=#000000;" parent="38" vertex="1">
                    <mxGeometry y="26" width="240" height="44" as="geometry"/>
                </mxCell>
                <mxCell id="40" value="" style="line;strokeWidth=1;fillColor=none;align=left;verticalAlign=middle;spacingTop=-1;spacingLeft=3;spacingRight=3;rotatable=0;labelPosition=right;points=[];portConstraint=eastwest;" parent="38" vertex="1">
                    <mxGeometry y="70" width="240" height="8" as="geometry"/>
                </mxCell>
                <mxCell id="41" value="+ Fabrica(int s, int w, int m, int p);&#10;+ Fabrica(Edificio *edificio);&#10;+ ~Fabrica();" style="text;strokeColor=none;fillColor=none;align=left;verticalAlign=top;spacingLeft=4;spacingRight=4;overflow=hidden;rotatable=0;points=[[0,0.5],[1,0.5]];portConstraint=eastwest;fontColor=#0D0D0D;labelBorderColor=none;labelBackgroundColor=none;" parent="38" vertex="1">
                    <mxGeometry y="78" width="240" height="62" as="geometry"/>
                </mxCell>
                <mxCell id="457" style="edgeStyle=none;jumpStyle=arc;jumpSize=16;html=1;fontSize=21;fontColor=#FFFFFF;endArrow=block;endFill=0;endSize=16;strokeColor=#000000;strokeWidth=3;entryX=0.337;entryY=1.017;entryDx=0;entryDy=0;entryPerimeter=0;" parent="1" source="42" target="27" edge="1">
                    <mxGeometry relative="1" as="geometry">
                        <Array as="points">
                            <mxPoint x="2310" y="920"/>
                            <mxPoint x="2445" y="920"/>
                        </Array>
                    </mxGeometry>
                </mxCell>
                <mxCell id="42" value="Escuela" style="swimlane;fontStyle=1;align=center;verticalAlign=top;childLayout=stackLayout;horizontal=1;startSize=26;horizontalStack=0;resizeParent=1;resizeParentMax=0;resizeLast=0;collapsible=1;marginBottom=0;fontColor=#ffffff;labelBorderColor=none;labelBackgroundColor=none;swimlaneFillColor=#E8E8E8;strokeColor=#2D7600;fillColor=#60a917;" parent="1" vertex="1">
                    <mxGeometry x="2210" y="1088" width="200" height="140" as="geometry"/>
                </mxCell>
                <mxCell id="43" value="" style="text;fillColor=none;align=left;verticalAlign=top;spacingLeft=4;spacingRight=4;overflow=hidden;rotatable=0;points=[[0,0.5],[1,0.5]];portConstraint=eastwest;fontColor=#0D0D0D;labelBorderColor=none;labelBackgroundColor=none;strokeColor=#000000;" parent="42" vertex="1">
                    <mxGeometry y="26" width="200" height="44" as="geometry"/>
                </mxCell>
                <mxCell id="44" value="" style="line;strokeWidth=1;fillColor=none;align=left;verticalAlign=middle;spacingTop=-1;spacingLeft=3;spacingRight=3;rotatable=0;labelPosition=right;points=[];portConstraint=eastwest;" parent="42" vertex="1">
                    <mxGeometry y="70" width="200" height="8" as="geometry"/>
                </mxCell>
                <mxCell id="45" value="+ Escuela(int s, int w, int m, int p);&#10;+ Escuela(Edificio *edificio);&#10;+ ~Escuela();" style="text;strokeColor=none;fillColor=none;align=left;verticalAlign=top;spacingLeft=4;spacingRight=4;overflow=hidden;rotatable=0;points=[[0,0.5],[1,0.5]];portConstraint=eastwest;fontColor=#0D0D0D;labelBorderColor=none;labelBackgroundColor=none;" parent="42" vertex="1">
                    <mxGeometry y="78" width="200" height="62" as="geometry"/>
                </mxCell>
                <mxCell id="458" style="edgeStyle=none;jumpStyle=arc;jumpSize=16;html=1;fontSize=21;fontColor=#FFFFFF;endArrow=block;endFill=0;endSize=16;strokeColor=#000000;strokeWidth=3;" parent="1" source="46" edge="1">
                    <mxGeometry relative="1" as="geometry">
                        <mxPoint x="2560" y="740" as="targetPoint"/>
                    </mxGeometry>
                </mxCell>
                <mxCell id="46" value="Obelisco" style="swimlane;fontStyle=1;align=center;verticalAlign=top;childLayout=stackLayout;horizontal=1;startSize=26;horizontalStack=0;resizeParent=1;resizeParentMax=0;resizeLast=0;collapsible=1;marginBottom=0;fontColor=#ffffff;labelBorderColor=none;labelBackgroundColor=none;swimlaneFillColor=#E8E8E8;strokeColor=#2D7600;fillColor=#60a917;" parent="1" vertex="1">
                    <mxGeometry x="2440" y="1088" width="240" height="120" as="geometry"/>
                </mxCell>
                <mxCell id="47" value="" style="text;fillColor=none;align=left;verticalAlign=top;spacingLeft=4;spacingRight=4;overflow=hidden;rotatable=0;points=[[0,0.5],[1,0.5]];portConstraint=eastwest;fontColor=#0D0D0D;labelBorderColor=none;labelBackgroundColor=none;strokeColor=#000000;" parent="46" vertex="1">
                    <mxGeometry y="26" width="240" height="24" as="geometry"/>
                </mxCell>
                <mxCell id="48" value="" style="line;strokeWidth=1;fillColor=none;align=left;verticalAlign=middle;spacingTop=-1;spacingLeft=3;spacingRight=3;rotatable=0;labelPosition=right;points=[];portConstraint=eastwest;" parent="46" vertex="1">
                    <mxGeometry y="50" width="240" height="8" as="geometry"/>
                </mxCell>
                <mxCell id="49" value="+ Obelisco(int s, int w, int m, int p);&#10;+ Obelisco(Edificio *edificio);&#10;+ ~Obelisco();" style="text;strokeColor=none;fillColor=none;align=left;verticalAlign=top;spacingLeft=4;spacingRight=4;overflow=hidden;rotatable=0;points=[[0,0.5],[1,0.5]];portConstraint=eastwest;fontColor=#0D0D0D;labelBorderColor=none;labelBackgroundColor=none;" parent="46" vertex="1">
                    <mxGeometry y="58" width="240" height="62" as="geometry"/>
                </mxCell>
                <mxCell id="459" style="edgeStyle=none;jumpStyle=arc;jumpSize=16;html=1;fontSize=21;fontColor=#FFFFFF;endArrow=block;endFill=0;endSize=16;strokeColor=#000000;strokeWidth=3;" parent="1" source="50" edge="1">
                    <mxGeometry relative="1" as="geometry">
                        <mxPoint x="2660" y="750" as="targetPoint"/>
                        <Array as="points">
                            <mxPoint x="2850" y="880"/>
                            <mxPoint x="2660" y="880"/>
                        </Array>
                    </mxGeometry>
                </mxCell>
                <mxCell id="50" value="PlantaElectrica" style="swimlane;fontStyle=1;align=center;verticalAlign=top;childLayout=stackLayout;horizontal=1;startSize=26;horizontalStack=0;resizeParent=1;resizeParentMax=0;resizeLast=0;collapsible=1;marginBottom=0;fontColor=#ffffff;labelBorderColor=none;labelBackgroundColor=none;swimlaneFillColor=#E8E8E8;strokeColor=#2D7600;fillColor=#60a917;" parent="1" vertex="1">
                    <mxGeometry x="2720" y="1088" width="260" height="140" as="geometry"/>
                </mxCell>
                <mxCell id="51" value="" style="text;fillColor=none;align=left;verticalAlign=top;spacingLeft=4;spacingRight=4;overflow=hidden;rotatable=0;points=[[0,0.5],[1,0.5]];portConstraint=eastwest;fontColor=#0D0D0D;labelBorderColor=none;labelBackgroundColor=none;strokeColor=#000000;" parent="50" vertex="1">
                    <mxGeometry y="26" width="260" height="44" as="geometry"/>
                </mxCell>
                <mxCell id="52" value="" style="line;strokeWidth=1;fillColor=none;align=left;verticalAlign=middle;spacingTop=-1;spacingLeft=3;spacingRight=3;rotatable=0;labelPosition=right;points=[];portConstraint=eastwest;" parent="50" vertex="1">
                    <mxGeometry y="70" width="260" height="8" as="geometry"/>
                </mxCell>
                <mxCell id="53" value="+ PlantaElectrica(int s, int w, int m, int p);&#10;+ PlantaElectrica(Edificio *edificio);&#10;+ ~PlantaElectrica();" style="text;strokeColor=none;fillColor=none;align=left;verticalAlign=top;spacingLeft=4;spacingRight=4;overflow=hidden;rotatable=0;points=[[0,0.5],[1,0.5]];portConstraint=eastwest;fontColor=#0D0D0D;labelBorderColor=none;labelBackgroundColor=none;" parent="50" vertex="1">
                    <mxGeometry y="78" width="260" height="62" as="geometry"/>
                </mxCell>
                <mxCell id="71" value="List (Template)" style="swimlane;fontStyle=1;align=center;verticalAlign=top;childLayout=stackLayout;horizontal=1;startSize=26;horizontalStack=0;resizeParent=1;resizeParentMax=0;resizeLast=0;collapsible=1;marginBottom=0;fontColor=#ffffff;labelBorderColor=none;labelBackgroundColor=none;swimlaneFillColor=#E8E8E8;strokeColor=#314354;fillColor=#647687;" parent="1" vertex="1">
                    <mxGeometry x="-1670" y="-420" width="260" height="210" as="geometry"/>
                </mxCell>
                <mxCell id="72" value="- Nodo&lt;Dato&gt;* primero;&#10;- int cantidad;" style="text;fillColor=none;align=left;verticalAlign=top;spacingLeft=4;spacingRight=4;overflow=hidden;rotatable=0;points=[[0,0.5],[1,0.5]];portConstraint=eastwest;fontColor=#0D0D0D;labelBorderColor=none;labelBackgroundColor=none;strokeColor=#000000;" parent="71" vertex="1">
                    <mxGeometry y="26" width="260" height="54" as="geometry"/>
                </mxCell>
                <mxCell id="73" value="" style="line;strokeWidth=1;fillColor=none;align=left;verticalAlign=middle;spacingTop=-1;spacingLeft=3;spacingRight=3;rotatable=0;labelPosition=right;points=[];portConstraint=eastwest;" parent="71" vertex="1">
                    <mxGeometry y="80" width="260" height="8" as="geometry"/>
                </mxCell>
                <mxCell id="74" value="+ Lista();&#10;+ void alta(Dato d)&#10;+ int mostrar_cantidad()&#10;+ Dato &amp; operator[](int pos)&#10;+ void baja(int pos)&#10;+ bool vacia()&#10;+ ~Lista()&#10;- Nodo&lt;Dato&gt;* obtener_nodo(int pos);" style="text;strokeColor=none;fillColor=none;align=left;verticalAlign=top;spacingLeft=4;spacingRight=4;overflow=hidden;rotatable=0;points=[[0,0.5],[1,0.5]];portConstraint=eastwest;fontColor=#0D0D0D;labelBorderColor=none;labelBackgroundColor=none;" parent="71" vertex="1">
                    <mxGeometry y="88" width="260" height="122" as="geometry"/>
                </mxCell>
                <mxCell id="125" value="Recurso" style="swimlane;fontStyle=1;align=center;verticalAlign=top;childLayout=stackLayout;horizontal=1;startSize=26;horizontalStack=0;resizeParent=1;resizeParentMax=0;resizeLast=0;collapsible=1;marginBottom=0;fontColor=#ffffff;labelBorderColor=none;labelBackgroundColor=none;swimlaneFillColor=#E8E8E8;strokeColor=#3700CC;fillColor=#6a00ff;" parent="1" vertex="1">
                    <mxGeometry x="-990" y="-1370" width="340" height="110" as="geometry"/>
                </mxCell>
                <mxCell id="126" value="" style="text;fillColor=none;align=left;verticalAlign=top;spacingLeft=4;spacingRight=4;overflow=hidden;rotatable=0;points=[[0,0.5],[1,0.5]];portConstraint=eastwest;fontColor=#0D0D0D;labelBorderColor=none;labelBackgroundColor=none;strokeColor=#000000;" parent="125" vertex="1">
                    <mxGeometry y="26" width="340" height="24" as="geometry"/>
                </mxCell>
                <mxCell id="127" value="" style="line;strokeWidth=1;fillColor=none;align=left;verticalAlign=middle;spacingTop=-1;spacingLeft=3;spacingRight=3;rotatable=0;labelPosition=right;points=[];portConstraint=eastwest;" parent="125" vertex="1">
                    <mxGeometry y="50" width="340" height="8" as="geometry"/>
                </mxCell>
                <mxCell id="128" value="+ Material *dar_material(const string &amp;material, int cantidad);&#10;+ Material *dar_material(const string &amp;material);" style="text;strokeColor=none;fillColor=none;align=left;verticalAlign=top;spacingLeft=4;spacingRight=4;overflow=hidden;rotatable=0;points=[[0,0.5],[1,0.5]];portConstraint=eastwest;fontColor=#0D0D0D;labelBorderColor=none;labelBackgroundColor=none;" parent="125" vertex="1">
                    <mxGeometry y="58" width="340" height="52" as="geometry"/>
                </mxCell>
                <mxCell id="129" value="Constructor" style="swimlane;fontStyle=1;align=center;verticalAlign=top;childLayout=stackLayout;horizontal=1;startSize=26;horizontalStack=0;resizeParent=1;resizeParentMax=0;resizeLast=0;collapsible=1;marginBottom=0;fontColor=#ffffff;labelBorderColor=none;labelBackgroundColor=none;swimlaneFillColor=#E8E8E8;strokeColor=#3700CC;fillColor=#6a00ff;" parent="1" vertex="1">
                    <mxGeometry x="1730" y="-650" width="350" height="210" as="geometry"/>
                </mxCell>
                <mxCell id="130" value="- Lista&lt;string&gt; edificios;&#10;- ABB&lt;Edificio, string&gt; diccionario;" style="text;fillColor=none;align=left;verticalAlign=top;spacingLeft=4;spacingRight=4;overflow=hidden;rotatable=0;points=[[0,0.5],[1,0.5]];portConstraint=eastwest;fontColor=#0D0D0D;labelBorderColor=none;labelBackgroundColor=none;strokeColor=#000000;" parent="129" vertex="1">
                    <mxGeometry y="26" width="350" height="44" as="geometry"/>
                </mxCell>
                <mxCell id="131" value="" style="line;strokeWidth=1;fillColor=none;align=left;verticalAlign=middle;spacingTop=-1;spacingLeft=3;spacingRight=3;rotatable=0;labelPosition=right;points=[];portConstraint=eastwest;" parent="129" vertex="1">
                    <mxGeometry y="70" width="350" height="8" as="geometry"/>
                </mxCell>
                <mxCell id="132" value="+ Constructor();&#10;+ void agregar_edificio(string nombre, int piedra, int madera, int metal, int permitidos);&#10;+ Edificio *construye(const string &amp;edificio);&#10;+ Edificio *mostrar_edificio(int i);&#10;+ Edificio *mostrar_edificio(string &amp;edificio);&#10;+ int cant_edificios();&#10;+ bool existe(string edificio);" style="text;strokeColor=none;fillColor=none;align=left;verticalAlign=top;spacingLeft=4;spacingRight=4;overflow=hidden;rotatable=0;points=[[0,0.5],[1,0.5]];portConstraint=eastwest;fontColor=#0D0D0D;labelBorderColor=none;labelBackgroundColor=none;whiteSpace=wrap;" parent="129" vertex="1">
                    <mxGeometry y="78" width="350" height="132" as="geometry"/>
                </mxCell>
                <mxCell id="137" value="Inventario" style="swimlane;fontStyle=1;align=center;verticalAlign=top;childLayout=stackLayout;horizontal=1;startSize=26;horizontalStack=0;resizeParent=1;resizeParentMax=0;resizeLast=0;collapsible=1;marginBottom=0;fontColor=#ffffff;labelBorderColor=none;labelBackgroundColor=none;swimlaneFillColor=#E8E8E8;strokeColor=#A50040;fillColor=#d80073;" parent="1" vertex="1">
                    <mxGeometry x="-1050" y="-700" width="340" height="190" as="geometry"/>
                </mxCell>
                <mxCell id="138" value="- Lista&lt;Material *&gt; materiales1" style="text;fillColor=none;align=left;verticalAlign=top;spacingLeft=4;spacingRight=4;overflow=hidden;rotatable=0;points=[[0,0.5],[1,0.5]];portConstraint=eastwest;fontColor=#0D0D0D;labelBorderColor=none;labelBackgroundColor=none;strokeColor=#000000;" parent="137" vertex="1">
                    <mxGeometry y="26" width="340" height="34" as="geometry"/>
                </mxCell>
                <mxCell id="139" value="" style="line;strokeWidth=1;fillColor=none;align=left;verticalAlign=middle;spacingTop=-1;spacingLeft=3;spacingRight=3;rotatable=0;labelPosition=right;points=[];portConstraint=eastwest;" parent="137" vertex="1">
                    <mxGeometry y="60" width="340" height="8" as="geometry"/>
                </mxCell>
                <mxCell id="140" value="+ Inventario();&#10;+ void cargar(const string &amp;PATH, Recurso &amp;recurso);&#10;+ void mostrar_inventario();&#10;+ bool chequear_stock(Edificio *edificio, bool construir);&#10;+ void llenar_stock(Edificio *edificio);&#10;+ ~Inventario();" style="text;strokeColor=none;fillColor=none;align=left;verticalAlign=top;spacingLeft=4;spacingRight=4;overflow=hidden;rotatable=0;points=[[0,0.5],[1,0.5]];portConstraint=eastwest;fontColor=#0D0D0D;labelBorderColor=none;labelBackgroundColor=none;" parent="137" vertex="1">
                    <mxGeometry y="68" width="340" height="122" as="geometry"/>
                </mxCell>
                <mxCell id="464" style="edgeStyle=none;jumpStyle=arc;jumpSize=16;html=1;fontSize=21;fontColor=#FFFFFF;endArrow=block;endFill=0;endSize=16;strokeColor=#000000;strokeWidth=3;" parent="1" source="146" target="25" edge="1">
                    <mxGeometry relative="1" as="geometry"/>
                </mxCell>
                <mxCell id="146" value="Piedra" style="swimlane;fontStyle=1;align=center;verticalAlign=top;childLayout=stackLayout;horizontal=1;startSize=26;horizontalStack=0;resizeParent=1;resizeParentMax=0;resizeLast=0;collapsible=1;marginBottom=0;fontColor=#ffffff;labelBorderColor=none;labelBackgroundColor=none;swimlaneFillColor=#E8E8E8;strokeColor=#001DBC;fillColor=#0050ef;" parent="1" vertex="1">
                    <mxGeometry x="-1385" y="1040" width="160" height="110" as="geometry"/>
                </mxCell>
                <mxCell id="147" value="" style="text;fillColor=none;align=left;verticalAlign=top;spacingLeft=4;spacingRight=4;overflow=hidden;rotatable=0;points=[[0,0.5],[1,0.5]];portConstraint=eastwest;fontColor=#0D0D0D;labelBorderColor=none;labelBackgroundColor=none;strokeColor=#000000;" parent="146" vertex="1">
                    <mxGeometry y="26" width="160" height="24" as="geometry"/>
                </mxCell>
                <mxCell id="148" value="" style="line;strokeWidth=1;fillColor=none;align=left;verticalAlign=middle;spacingTop=-1;spacingLeft=3;spacingRight=3;rotatable=0;labelPosition=right;points=[];portConstraint=eastwest;" parent="146" vertex="1">
                    <mxGeometry y="50" width="160" height="8" as="geometry"/>
                </mxCell>
                <mxCell id="149" value="+ Piedra();&#10;+ Piedra(int);&#10;+ ~Piedra();" style="text;strokeColor=none;fillColor=none;align=left;verticalAlign=top;spacingLeft=4;spacingRight=4;overflow=hidden;rotatable=0;points=[[0,0.5],[1,0.5]];portConstraint=eastwest;fontColor=#0D0D0D;labelBorderColor=none;labelBackgroundColor=none;" parent="146" vertex="1">
                    <mxGeometry y="58" width="160" height="52" as="geometry"/>
                </mxCell>
                <mxCell id="465" style="edgeStyle=none;jumpStyle=arc;jumpSize=16;html=1;fontSize=21;fontColor=#FFFFFF;endArrow=block;endFill=0;endSize=16;strokeColor=#000000;strokeWidth=3;" parent="1" source="150" edge="1">
                    <mxGeometry relative="1" as="geometry">
                        <mxPoint x="-1240" y="684" as="targetPoint"/>
                        <Array as="points">
                            <mxPoint x="-1080" y="900"/>
                            <mxPoint x="-1240" y="900"/>
                        </Array>
                    </mxGeometry>
                </mxCell>
                <mxCell id="150" value="Madera" style="swimlane;fontStyle=1;align=center;verticalAlign=top;childLayout=stackLayout;horizontal=1;startSize=26;horizontalStack=0;resizeParent=1;resizeParentMax=0;resizeLast=0;collapsible=1;marginBottom=0;fontColor=#ffffff;labelBorderColor=none;labelBackgroundColor=none;swimlaneFillColor=#E8E8E8;strokeColor=#001DBC;fillColor=#0050ef;" parent="1" vertex="1">
                    <mxGeometry x="-1170" y="1040" width="170" height="110" as="geometry"/>
                </mxCell>
                <mxCell id="151" value="" style="text;fillColor=none;align=left;verticalAlign=top;spacingLeft=4;spacingRight=4;overflow=hidden;rotatable=0;points=[[0,0.5],[1,0.5]];portConstraint=eastwest;fontColor=#0D0D0D;labelBorderColor=none;labelBackgroundColor=none;strokeColor=#000000;" parent="150" vertex="1">
                    <mxGeometry y="26" width="170" height="24" as="geometry"/>
                </mxCell>
                <mxCell id="152" value="" style="line;strokeWidth=1;fillColor=none;align=left;verticalAlign=middle;spacingTop=-1;spacingLeft=3;spacingRight=3;rotatable=0;labelPosition=right;points=[];portConstraint=eastwest;" parent="150" vertex="1">
                    <mxGeometry y="50" width="170" height="8" as="geometry"/>
                </mxCell>
                <mxCell id="153" value="+ Madera();&#10;+ Madera(int);&#10;+ ~Madera();" style="text;strokeColor=none;fillColor=none;align=left;verticalAlign=top;spacingLeft=4;spacingRight=4;overflow=hidden;rotatable=0;points=[[0,0.5],[1,0.5]];portConstraint=eastwest;fontColor=#0D0D0D;labelBorderColor=none;labelBackgroundColor=none;" parent="150" vertex="1">
                    <mxGeometry y="58" width="170" height="52" as="geometry"/>
                </mxCell>
                <mxCell id="466" style="edgeStyle=none;jumpStyle=arc;jumpSize=16;html=1;fontSize=21;fontColor=#FFFFFF;endArrow=block;endFill=0;endSize=16;strokeColor=#000000;strokeWidth=3;entryX=0.844;entryY=0.99;entryDx=0;entryDy=0;entryPerimeter=0;" parent="1" source="154" target="25" edge="1">
                    <mxGeometry relative="1" as="geometry">
                        <Array as="points">
                            <mxPoint x="-860" y="840"/>
                            <mxPoint x="-1160" y="840"/>
                        </Array>
                    </mxGeometry>
                </mxCell>
                <mxCell id="154" value="Metal" style="swimlane;fontStyle=1;align=center;verticalAlign=top;childLayout=stackLayout;horizontal=1;startSize=26;horizontalStack=0;resizeParent=1;resizeParentMax=0;resizeLast=0;collapsible=1;marginBottom=0;fontColor=#ffffff;labelBorderColor=none;labelBackgroundColor=none;swimlaneFillColor=#E8E8E8;strokeColor=#001DBC;fillColor=#0050ef;" parent="1" vertex="1">
                    <mxGeometry x="-940" y="1040" width="160" height="110" as="geometry"/>
                </mxCell>
                <mxCell id="155" value="" style="text;fillColor=none;align=left;verticalAlign=top;spacingLeft=4;spacingRight=4;overflow=hidden;rotatable=0;points=[[0,0.5],[1,0.5]];portConstraint=eastwest;fontColor=#0D0D0D;labelBorderColor=none;labelBackgroundColor=none;strokeColor=#000000;" parent="154" vertex="1">
                    <mxGeometry y="26" width="160" height="24" as="geometry"/>
                </mxCell>
                <mxCell id="156" value="" style="line;strokeWidth=1;fillColor=none;align=left;verticalAlign=middle;spacingTop=-1;spacingLeft=3;spacingRight=3;rotatable=0;labelPosition=right;points=[];portConstraint=eastwest;" parent="154" vertex="1">
                    <mxGeometry y="50" width="160" height="8" as="geometry"/>
                </mxCell>
                <mxCell id="157" value="+ Metal();&#10;+ Metal(int);&#10;+ ~Metal();" style="text;strokeColor=none;fillColor=none;align=left;verticalAlign=top;spacingLeft=4;spacingRight=4;overflow=hidden;rotatable=0;points=[[0,0.5],[1,0.5]];portConstraint=eastwest;fontColor=#0D0D0D;labelBorderColor=none;labelBackgroundColor=none;" parent="154" vertex="1">
                    <mxGeometry y="58" width="160" height="52" as="geometry"/>
                </mxCell>
                <mxCell id="460" style="edgeStyle=none;jumpStyle=arc;jumpSize=16;html=1;fontSize=21;fontColor=#FFFFFF;endArrow=block;endFill=0;endSize=16;strokeColor=#000000;strokeWidth=3;" parent="1" source="158" edge="1">
                    <mxGeometry relative="1" as="geometry">
                        <mxPoint x="2710" y="750" as="targetPoint"/>
                        <Array as="points">
                            <mxPoint x="3185" y="830"/>
                            <mxPoint x="2710" y="830"/>
                        </Array>
                    </mxGeometry>
                </mxCell>
                <mxCell id="158" value="Yacimiento" style="swimlane;fontStyle=1;align=center;verticalAlign=top;childLayout=stackLayout;horizontal=1;startSize=26;horizontalStack=0;resizeParent=1;resizeParentMax=0;resizeLast=0;collapsible=1;marginBottom=0;fontColor=#ffffff;labelBorderColor=none;labelBackgroundColor=none;swimlaneFillColor=#E8E8E8;strokeColor=#2D7600;fillColor=#60a917;" parent="1" vertex="1">
                    <mxGeometry x="3040" y="1083" width="290" height="150" as="geometry"/>
                </mxCell>
                <mxCell id="159" value="" style="text;fillColor=none;align=left;verticalAlign=top;spacingLeft=4;spacingRight=4;overflow=hidden;rotatable=0;points=[[0,0.5],[1,0.5]];portConstraint=eastwest;fontColor=#0D0D0D;labelBorderColor=none;labelBackgroundColor=none;strokeColor=#000000;" parent="158" vertex="1">
                    <mxGeometry y="26" width="290" height="44" as="geometry"/>
                </mxCell>
                <mxCell id="160" value="" style="line;strokeWidth=1;fillColor=none;align=left;verticalAlign=middle;spacingTop=-1;spacingLeft=3;spacingRight=3;rotatable=0;labelPosition=right;points=[];portConstraint=eastwest;" parent="158" vertex="1">
                    <mxGeometry y="70" width="290" height="8" as="geometry"/>
                </mxCell>
                <mxCell id="161" value="+ Yacimiento(int s, int w, int m, int p);&#10;+ Yacimiento(Edificio *edificio);&#10;+ ~Yacimiento();" style="text;strokeColor=none;fillColor=none;align=left;verticalAlign=top;spacingLeft=4;spacingRight=4;overflow=hidden;rotatable=0;points=[[0,0.5],[1,0.5]];portConstraint=eastwest;fontColor=#0D0D0D;labelBorderColor=none;labelBackgroundColor=none;" parent="158" vertex="1">
                    <mxGeometry y="78" width="290" height="72" as="geometry"/>
                </mxCell>
                <mxCell id="172" value="Nodo" style="swimlane;fontStyle=1;align=center;verticalAlign=top;childLayout=stackLayout;horizontal=1;startSize=26;horizontalStack=0;resizeParent=1;resizeParentMax=0;resizeLast=0;collapsible=1;marginBottom=0;fontColor=#ffffff;labelBorderColor=none;labelBackgroundColor=none;swimlaneFillColor=#E8E8E8;strokeColor=#314354;fillColor=#647687;" parent="1" vertex="1">
                    <mxGeometry x="-2090" y="-160" width="230" height="190" as="geometry"/>
                </mxCell>
                <mxCell id="173" value="- Dato dato;&#10;- Nodo* siguiente;" style="text;fillColor=none;align=left;verticalAlign=top;spacingLeft=4;spacingRight=4;overflow=hidden;rotatable=0;points=[[0,0.5],[1,0.5]];portConstraint=eastwest;fontColor=#0D0D0D;labelBorderColor=none;labelBackgroundColor=none;strokeColor=#000000;" parent="172" vertex="1">
                    <mxGeometry y="26" width="230" height="54" as="geometry"/>
                </mxCell>
                <mxCell id="174" value="" style="line;strokeWidth=1;fillColor=none;align=left;verticalAlign=middle;spacingTop=-1;spacingLeft=3;spacingRight=3;rotatable=0;labelPosition=right;points=[];portConstraint=eastwest;" parent="172" vertex="1">
                    <mxGeometry y="80" width="230" height="8" as="geometry"/>
                </mxCell>
                <mxCell id="175" value="+ Nodo(Dato d);&#10;+ void cambiar_dato(Dato d);&#10;+ void cambiar_siguiente(Nodo* pn);&#10;+ Dato &amp; obtener_dato();&#10;+ Nodo* obtener_siguiente();" style="text;strokeColor=none;fillColor=none;align=left;verticalAlign=top;spacingLeft=4;spacingRight=4;overflow=hidden;rotatable=0;points=[[0,0.5],[1,0.5]];portConstraint=eastwest;fontColor=#0D0D0D;labelBorderColor=none;labelBackgroundColor=none;" parent="172" vertex="1">
                    <mxGeometry y="88" width="230" height="102" as="geometry"/>
                </mxCell>
                <mxCell id="234" value="Superficie" style="swimlane;fontStyle=1;align=center;verticalAlign=top;childLayout=stackLayout;horizontal=1;startSize=26;horizontalStack=0;resizeParent=1;resizeParentMax=0;resizeLast=0;collapsible=1;marginBottom=0;fontColor=#ffffff;labelBorderColor=none;labelBackgroundColor=none;swimlaneFillColor=#E8E8E8;strokeColor=#3700CC;fillColor=#6a00ff;" parent="1" vertex="1">
                    <mxGeometry x="-1420" y="-1370" width="340" height="110" as="geometry"/>
                </mxCell>
                <mxCell id="235" value="" style="text;fillColor=none;align=left;verticalAlign=top;spacingLeft=4;spacingRight=4;overflow=hidden;rotatable=0;points=[[0,0.5],[1,0.5]];portConstraint=eastwest;fontColor=#0D0D0D;labelBorderColor=none;labelBackgroundColor=none;strokeColor=#000000;" parent="234" vertex="1">
                    <mxGeometry y="26" width="340" height="24" as="geometry"/>
                </mxCell>
                <mxCell id="236" value="" style="line;strokeWidth=1;fillColor=none;align=left;verticalAlign=middle;spacingTop=-1;spacingLeft=3;spacingRight=3;rotatable=0;labelPosition=right;points=[];portConstraint=eastwest;" parent="234" vertex="1">
                    <mxGeometry y="50" width="340" height="8" as="geometry"/>
                </mxCell>
                <mxCell id="237" value="+ Material *dar_material(const string &amp;material, int cantidad);&#10;+ Material *dar_material(const string &amp;material);" style="text;strokeColor=none;fillColor=none;align=left;verticalAlign=top;spacingLeft=4;spacingRight=4;overflow=hidden;rotatable=0;points=[[0,0.5],[1,0.5]];portConstraint=eastwest;fontColor=#0D0D0D;labelBorderColor=none;labelBackgroundColor=none;" parent="234" vertex="1">
                    <mxGeometry y="58" width="340" height="52" as="geometry"/>
                </mxCell>
                <mxCell id="238" value="Parser&#10;" style="swimlane;fontStyle=1;align=center;verticalAlign=top;childLayout=stackLayout;horizontal=1;startSize=40;horizontalStack=0;resizeParent=1;resizeParentMax=0;resizeLast=0;collapsible=1;marginBottom=0;fontColor=#ffffff;labelBorderColor=none;labelBackgroundColor=none;swimlaneFillColor=#E8E8E8;strokeColor=#3700CC;fillColor=#6a00ff;fontSize=21;" parent="1" vertex="1">
                    <mxGeometry x="-960" y="-2750" width="560" height="380" as="geometry"/>
                </mxCell>
                <mxCell id="239" value="" style="text;fillColor=none;align=left;verticalAlign=top;spacingLeft=4;spacingRight=4;overflow=hidden;rotatable=0;points=[[0,0.5],[1,0.5]];portConstraint=eastwest;fontColor=#0D0D0D;labelBorderColor=none;labelBackgroundColor=none;strokeColor=#000000;" parent="238" vertex="1">
                    <mxGeometry y="40" width="560" height="24" as="geometry"/>
                </mxCell>
                <mxCell id="240" value="" style="line;strokeWidth=1;fillColor=none;align=left;verticalAlign=middle;spacingTop=-1;spacingLeft=3;spacingRight=3;rotatable=0;labelPosition=right;points=[];portConstraint=eastwest;" parent="238" vertex="1">
                    <mxGeometry y="64" width="560" height="8" as="geometry"/>
                </mxCell>
                <mxCell id="241" value="+ void cargar(Recurso &amp;recurso, Jugador *);&#10;+ void cargar(Constructor &amp;bob);&#10;+ void cargar(Superficie &amp;superficie, Mapa &amp;mapa);&#10;+ bool cargar_partida_guardada(Mapa &amp;mapa, Jugador *jugador, Constructor &amp;bob, Recurso &amp;recurso);&#10;+ bool guardar(Constructor &amp;bob);&#10;+ bool guardar_inventario(Jugador *jugador);&#10;+ bool guardar_partida(Mapa &amp;mapa, Jugador *jugador);&#10;+ bool existe_archivo(const string &amp;PATH);&#10;+ void crear_archivo_vacio(const string &amp;PATH, fstream &amp;archivo);&#10;+ bool es_palabra(string &amp;aux);&#10;+ Coordenada obtener_coordenada(fstream &amp;archivo_ubicaciones, string &amp;aux_coordenada);&#10;+ void cargar_materiales(fstream &amp;archivo_ubicaciones, Recurso &amp;recurso, Mapa &amp;mapa, string &amp;aux);&#10;+ void cargar_edificios(fstream &amp;archivo_ubicaciones, Jugador &amp;jugador, Mapa &amp;mapa, Constructor &amp;bob, string &amp;aux);&#10;+ void cargar_posicion(fstream &amp;archivo_ubicaciones, Jugador &amp;jugador, Mapa &amp;mapa, int i, string &amp;aux);&#10;+ void guardar_ubicaciones(Lista&lt;Ubicaciones&gt; &amp;lista, ofstream &amp;archivo_ubicaciones);&#10;+ void guardar_ubicacion_jugador(Mapa &amp;mapa, int i, ofstream &amp;archivo_ubicaciones);&#10;+ void guardar_coordenadas(Coordenada &amp;coordenada, ofstream &amp;archivo_ubicaciones);" style="text;strokeColor=none;fillColor=none;align=left;verticalAlign=top;spacingLeft=4;spacingRight=4;overflow=hidden;rotatable=0;points=[[0,0.5],[1,0.5]];portConstraint=eastwest;fontColor=#0D0D0D;labelBorderColor=none;labelBackgroundColor=none;whiteSpace=wrap;" parent="238" vertex="1">
                    <mxGeometry y="72" width="560" height="308" as="geometry"/>
                </mxCell>
                <mxCell id="242" value="Objetivo" style="swimlane;fontStyle=1;align=center;verticalAlign=top;childLayout=stackLayout;horizontal=1;startSize=40;horizontalStack=0;resizeParent=1;resizeParentMax=0;resizeLast=0;collapsible=1;marginBottom=0;fontColor=#ffffff;labelBorderColor=none;labelBackgroundColor=none;swimlaneFillColor=#E8E8E8;strokeColor=#006EAF;fillColor=#1ba1e2;fontSize=21;" parent="1" vertex="1">
                    <mxGeometry x="2710" y="-2310" width="800" height="260" as="geometry"/>
                </mxCell>
                <mxCell id="243" value="- bool objetivo_cumplido;" style="text;fillColor=none;align=left;verticalAlign=top;spacingLeft=4;spacingRight=4;overflow=hidden;rotatable=0;points=[[0,0.5],[1,0.5]];portConstraint=eastwest;fontColor=#0D0D0D;labelBorderColor=none;labelBackgroundColor=none;strokeColor=#000000;" parent="242" vertex="1">
                    <mxGeometry y="40" width="800" height="24" as="geometry"/>
                </mxCell>
                <mxCell id="244" value="" style="line;strokeWidth=1;fillColor=none;align=left;verticalAlign=middle;spacingTop=-1;spacingLeft=3;spacingRight=3;rotatable=0;labelPosition=right;points=[];portConstraint=eastwest;" parent="242" vertex="1">
                    <mxGeometry y="64" width="800" height="8" as="geometry"/>
                </mxCell>
                <mxCell id="245" value="+ Objetivo();" style="text;strokeColor=none;fillColor=none;align=left;verticalAlign=top;spacingLeft=4;spacingRight=4;overflow=hidden;rotatable=0;points=[[0,0.5],[1,0.5]];portConstraint=eastwest;fontColor=#0D0D0D;labelBorderColor=none;labelBackgroundColor=none;html=1;whiteSpace=wrap;" parent="242" vertex="1">
                    <mxGeometry y="72" width="800" height="38" as="geometry"/>
                </mxCell>
                <mxCell id="519" value="&lt;b&gt;&lt;i&gt;+&amp;nbsp;void mostrar_objetivo()&lt;br&gt;+&amp;nbsp;bool es_principal()&amp;nbsp;&lt;br&gt;+&amp;nbsp;void chequear_estado(Inventario &amp;amp; inventario, int puntos_energia, Lista&amp;lt;Ubicaciones&amp;gt; &amp;amp; edificios, Constructor &amp;amp; bob, bool fin_turno)&amp;nbsp;&lt;br&gt;+&amp;nbsp;bool cumplido()&lt;/i&gt;&lt;/b&gt;" style="text;strokeColor=none;fillColor=none;align=left;verticalAlign=top;spacingLeft=4;spacingRight=4;overflow=hidden;rotatable=0;points=[[0,0.5],[1,0.5]];portConstraint=eastwest;fontColor=#0D0D0D;labelBorderColor=none;labelBackgroundColor=none;html=1;whiteSpace=wrap;" parent="242" vertex="1">
                    <mxGeometry y="110" width="800" height="150" as="geometry"/>
                </mxCell>
                <mxCell id="482" style="edgeStyle=none;jumpStyle=arc;jumpSize=16;html=1;fontSize=21;fontColor=#FFFFFF;endArrow=block;endFill=0;endSize=16;strokeColor=#000000;strokeWidth=3;" parent="1" source="246" edge="1">
                    <mxGeometry relative="1" as="geometry">
                        <mxPoint x="3394" y="-2050" as="targetPoint"/>
                        <Array as="points">
                            <mxPoint x="3731" y="-1930"/>
                            <mxPoint x="3394" y="-1930"/>
                        </Array>
                    </mxGeometry>
                </mxCell>
                <mxCell id="246" value="Bombardero" style="swimlane;fontStyle=1;align=center;verticalAlign=top;childLayout=stackLayout;horizontal=1;startSize=26;horizontalStack=0;resizeParent=1;resizeParentMax=0;resizeLast=0;collapsible=1;marginBottom=0;fontColor=#ffffff;labelBorderColor=none;labelBackgroundColor=none;swimlaneFillColor=#E8E8E8;strokeColor=#006EAF;fillColor=#1ba1e2;whiteSpace=wrap;" parent="1" vertex="1">
                    <mxGeometry x="3580.5" y="-1890" width="300" height="180" as="geometry"/>
                </mxCell>
                <mxCell id="247" value="- int progreso" style="text;fillColor=none;align=left;verticalAlign=top;spacingLeft=4;spacingRight=4;overflow=hidden;rotatable=0;points=[[0,0.5],[1,0.5]];portConstraint=eastwest;fontColor=#0D0D0D;labelBorderColor=none;labelBackgroundColor=none;strokeColor=#000000;whiteSpace=wrap;" parent="246" vertex="1">
                    <mxGeometry y="26" width="300" height="24" as="geometry"/>
                </mxCell>
                <mxCell id="248" value="" style="line;strokeWidth=1;fillColor=none;align=left;verticalAlign=middle;spacingTop=-1;spacingLeft=3;spacingRight=3;rotatable=0;labelPosition=right;points=[];portConstraint=eastwest;whiteSpace=wrap;" parent="246" vertex="1">
                    <mxGeometry y="50" width="300" height="8" as="geometry"/>
                </mxCell>
                <mxCell id="249" value="+ Bombardero();&#10;+ ~Bombardero();&#10;+ void chequear_estado(Inventario &amp; inventario, int puntos_energia, Lista&lt;Ubicaciones&gt; &amp; edificios, Constructor &amp; bob, bool fin_turno);&#10;+ void mostrar_objetivo();&#10;+ bool es_principal();" style="text;strokeColor=none;fillColor=none;align=left;verticalAlign=top;spacingLeft=4;spacingRight=4;overflow=hidden;rotatable=0;points=[[0,0.5],[1,0.5]];portConstraint=eastwest;fontColor=#0D0D0D;labelBorderColor=none;labelBackgroundColor=none;whiteSpace=wrap;" parent="246" vertex="1">
                    <mxGeometry y="58" width="300" height="122" as="geometry"/>
                </mxCell>
                <mxCell id="472" style="edgeStyle=none;jumpStyle=arc;jumpSize=16;html=1;fontSize=21;fontColor=#FFFFFF;endArrow=block;endFill=0;endSize=16;strokeColor=#000000;strokeWidth=3;" parent="1" source="250" edge="1">
                    <mxGeometry relative="1" as="geometry">
                        <mxPoint x="2870" y="-2050" as="targetPoint"/>
                        <Array as="points">
                            <mxPoint x="2650" y="-1930"/>
                            <mxPoint x="2870" y="-1930"/>
                        </Array>
                    </mxGeometry>
                </mxCell>
                <mxCell id="250" value="Armado" style="swimlane;fontStyle=1;align=center;verticalAlign=top;childLayout=stackLayout;horizontal=1;startSize=26;horizontalStack=0;resizeParent=1;resizeParentMax=0;resizeLast=0;collapsible=1;marginBottom=0;fontColor=#ffffff;labelBorderColor=none;labelBackgroundColor=none;swimlaneFillColor=#E8E8E8;strokeColor=#006EAF;fillColor=#1ba1e2;whiteSpace=wrap;" parent="1" vertex="1">
                    <mxGeometry x="2481" y="-1890" width="350" height="180" as="geometry"/>
                </mxCell>
                <mxCell id="251" value="int progreso" style="text;fillColor=none;align=left;verticalAlign=top;spacingLeft=4;spacingRight=4;overflow=hidden;rotatable=0;points=[[0,0.5],[1,0.5]];portConstraint=eastwest;fontColor=#0D0D0D;labelBorderColor=none;labelBackgroundColor=none;strokeColor=#000000;whiteSpace=wrap;" parent="250" vertex="1">
                    <mxGeometry y="26" width="350" height="24" as="geometry"/>
                </mxCell>
                <mxCell id="252" value="" style="line;strokeWidth=1;fillColor=none;align=left;verticalAlign=middle;spacingTop=-1;spacingLeft=3;spacingRight=3;rotatable=0;labelPosition=right;points=[];portConstraint=eastwest;whiteSpace=wrap;" parent="250" vertex="1">
                    <mxGeometry y="50" width="350" height="8" as="geometry"/>
                </mxCell>
                <mxCell id="253" value="+ Armado();&#10;+ ~Armado();&#10;+ void chequear_estado(Inventario &amp; inventario, int &#10;puntos_energia, Lista&lt;Ubicaciones&gt; &amp; edificios, Constructor &amp; bob, bool fin_turno);&#10;+ void mostrar_objetivo();&#10;+ bool es_principal();" style="text;strokeColor=none;fillColor=none;align=left;verticalAlign=top;spacingLeft=4;spacingRight=4;overflow=hidden;rotatable=0;points=[[0,0.5],[1,0.5]];portConstraint=eastwest;fontColor=#0D0D0D;labelBorderColor=none;labelBackgroundColor=none;whiteSpace=wrap;" parent="250" vertex="1">
                    <mxGeometry y="58" width="350" height="122" as="geometry"/>
                </mxCell>
                <mxCell id="475" style="edgeStyle=none;jumpStyle=arc;jumpSize=16;html=1;entryX=0.46;entryY=1.015;entryDx=0;entryDy=0;entryPerimeter=0;fontSize=21;fontColor=#FFFFFF;endArrow=block;endFill=0;endSize=16;strokeColor=#000000;strokeWidth=3;" parent="1" source="254" target="519" edge="1">
                    <mxGeometry relative="1" as="geometry">
                        <Array as="points">
                            <mxPoint x="2660" y="-1090"/>
                            <mxPoint x="3079" y="-1090"/>
                        </Array>
                    </mxGeometry>
                </mxCell>
                <mxCell id="254" value="edadDePiedra" style="swimlane;fontStyle=1;align=center;verticalAlign=top;childLayout=stackLayout;horizontal=1;startSize=26;horizontalStack=0;resizeParent=1;resizeParentMax=0;resizeLast=0;collapsible=1;marginBottom=0;fontColor=#ffffff;labelBorderColor=none;labelBackgroundColor=none;swimlaneFillColor=#E8E8E8;strokeColor=#006EAF;fillColor=#1ba1e2;whiteSpace=wrap;" parent="1" vertex="1">
                    <mxGeometry x="2482.25" y="-1040" width="342.5" height="180" as="geometry"/>
                </mxCell>
                <mxCell id="255" value="- int progreso" style="text;fillColor=none;align=left;verticalAlign=top;spacingLeft=4;spacingRight=4;overflow=hidden;rotatable=0;points=[[0,0.5],[1,0.5]];portConstraint=eastwest;fontColor=#0D0D0D;labelBorderColor=none;labelBackgroundColor=none;strokeColor=#000000;whiteSpace=wrap;" parent="254" vertex="1">
                    <mxGeometry y="26" width="342.5" height="24" as="geometry"/>
                </mxCell>
                <mxCell id="256" value="" style="line;strokeWidth=1;fillColor=none;align=left;verticalAlign=middle;spacingTop=-1;spacingLeft=3;spacingRight=3;rotatable=0;labelPosition=right;points=[];portConstraint=eastwest;whiteSpace=wrap;" parent="254" vertex="1">
                    <mxGeometry y="50" width="342.5" height="8" as="geometry"/>
                </mxCell>
                <mxCell id="257" value="+ EdadDePiedra();&#10;+ ~EdadDePiedra();&#10;+ void chequear_estado(Inventario &amp; inventario, int puntos_energia, Lista&lt;Ubicaciones&gt; &amp; edificios, Constructor &amp; bob, bool fin_turno);&#10;+ void mostrar_objetivo();&#10;+ bool es_principal();" style="text;strokeColor=none;fillColor=none;align=left;verticalAlign=top;spacingLeft=4;spacingRight=4;overflow=hidden;rotatable=0;points=[[0,0.5],[1,0.5]];portConstraint=eastwest;fontColor=#0D0D0D;labelBorderColor=none;labelBackgroundColor=none;whiteSpace=wrap;" parent="254" vertex="1">
                    <mxGeometry y="58" width="342.5" height="122" as="geometry"/>
                </mxCell>
                <mxCell id="481" style="edgeStyle=none;jumpStyle=arc;jumpSize=16;html=1;entryX=0.808;entryY=0.992;entryDx=0;entryDy=0;entryPerimeter=0;fontSize=21;fontColor=#FFFFFF;endArrow=block;endFill=0;endSize=16;strokeColor=#000000;strokeWidth=3;" parent="1" source="258" target="519" edge="1">
                    <mxGeometry relative="1" as="geometry">
                        <Array as="points">
                            <mxPoint x="3732" y="-1670"/>
                            <mxPoint x="3360" y="-1670"/>
                        </Array>
                    </mxGeometry>
                </mxCell>
                <mxCell id="258" value="comprarAndycoins" style="swimlane;fontStyle=1;align=center;verticalAlign=top;childLayout=stackLayout;horizontal=1;startSize=26;horizontalStack=0;resizeParent=1;resizeParentMax=0;resizeLast=0;collapsible=1;marginBottom=0;fontColor=#ffffff;labelBorderColor=none;labelBackgroundColor=none;swimlaneFillColor=#E8E8E8;strokeColor=#006EAF;fillColor=#1ba1e2;whiteSpace=wrap;" parent="1" vertex="1">
                    <mxGeometry x="3580.5" y="-1635" width="303" height="180" as="geometry"/>
                </mxCell>
                <mxCell id="259" value="- int progreso" style="text;fillColor=none;align=left;verticalAlign=top;spacingLeft=4;spacingRight=4;overflow=hidden;rotatable=0;points=[[0,0.5],[1,0.5]];portConstraint=eastwest;fontColor=#0D0D0D;labelBorderColor=none;labelBackgroundColor=none;strokeColor=#000000;whiteSpace=wrap;" parent="258" vertex="1">
                    <mxGeometry y="26" width="303" height="24" as="geometry"/>
                </mxCell>
                <mxCell id="260" value="" style="line;strokeWidth=1;fillColor=none;align=left;verticalAlign=middle;spacingTop=-1;spacingLeft=3;spacingRight=3;rotatable=0;labelPosition=right;points=[];portConstraint=eastwest;whiteSpace=wrap;" parent="258" vertex="1">
                    <mxGeometry y="50" width="303" height="8" as="geometry"/>
                </mxCell>
                <mxCell id="261" value="+ ComprarAndypolis();&#10;+ ~ComprarAndypolis();&#10;+ void chequear_estado(Inventario &amp; inventario, int &#10;puntos_energia, Lista&lt;Ubicaciones&gt; &amp; edificios, Constructor &amp; bob, bool fin_turno);&#10;+ void mostrar_objetivo();&#10;+ bool es_principal();" style="text;strokeColor=none;fillColor=none;align=left;verticalAlign=top;spacingLeft=4;spacingRight=4;overflow=hidden;rotatable=0;points=[[0,0.5],[1,0.5]];portConstraint=eastwest;fontColor=#0D0D0D;labelBorderColor=none;labelBackgroundColor=none;whiteSpace=wrap;" parent="258" vertex="1">
                    <mxGeometry y="58" width="303" height="122" as="geometry"/>
                </mxCell>
                <mxCell id="473" style="edgeStyle=none;jumpStyle=arc;jumpSize=16;html=1;exitX=0.5;exitY=0;exitDx=0;exitDy=0;fontSize=21;fontColor=#FFFFFF;endArrow=block;endFill=0;endSize=16;strokeColor=#000000;strokeWidth=3;" parent="1" source="262" edge="1">
                    <mxGeometry relative="1" as="geometry">
                        <mxPoint x="2914" y="-2050" as="targetPoint"/>
                        <Array as="points">
                            <mxPoint x="2656" y="-1670"/>
                            <mxPoint x="2914" y="-1670"/>
                        </Array>
                    </mxGeometry>
                </mxCell>
                <mxCell id="262" value="Cansado" style="swimlane;fontStyle=1;align=center;verticalAlign=top;childLayout=stackLayout;horizontal=1;startSize=26;horizontalStack=0;resizeParent=1;resizeParentMax=0;resizeLast=0;collapsible=1;marginBottom=0;fontColor=#ffffff;labelBorderColor=none;labelBackgroundColor=none;swimlaneFillColor=#E8E8E8;strokeColor=#006EAF;fillColor=#1ba1e2;whiteSpace=wrap;" parent="1" vertex="1">
                    <mxGeometry x="2481" y="-1635" width="350" height="170" as="geometry"/>
                </mxCell>
                <mxCell id="263" value="- int progreso" style="text;fillColor=none;align=left;verticalAlign=top;spacingLeft=4;spacingRight=4;overflow=hidden;rotatable=0;points=[[0,0.5],[1,0.5]];portConstraint=eastwest;fontColor=#0D0D0D;labelBorderColor=none;labelBackgroundColor=none;strokeColor=#000000;whiteSpace=wrap;" parent="262" vertex="1">
                    <mxGeometry y="26" width="350" height="24" as="geometry"/>
                </mxCell>
                <mxCell id="264" value="" style="line;strokeWidth=1;fillColor=none;align=left;verticalAlign=middle;spacingTop=-1;spacingLeft=3;spacingRight=3;rotatable=0;labelPosition=right;points=[];portConstraint=eastwest;whiteSpace=wrap;" parent="262" vertex="1">
                    <mxGeometry y="50" width="350" height="8" as="geometry"/>
                </mxCell>
                <mxCell id="265" value="+ Cansado();&#10;+ ~Cansado();&#10;+ void chequear_estado(Inventario &amp; inventario, int puntos_energia, Lista&lt;Ubicaciones&gt; &amp; edificios, Constructor &amp; bob, bool fin_turno);&#10;+ void mostrar_objetivo();&#10;+ bool es_principal();" style="text;strokeColor=none;fillColor=none;align=left;verticalAlign=top;spacingLeft=4;spacingRight=4;overflow=hidden;rotatable=0;points=[[0,0.5],[1,0.5]];portConstraint=eastwest;fontColor=#0D0D0D;labelBorderColor=none;labelBackgroundColor=none;whiteSpace=wrap;" parent="262" vertex="1">
                    <mxGeometry y="58" width="350" height="112" as="geometry"/>
                </mxCell>
                <mxCell id="477" style="edgeStyle=none;jumpStyle=arc;jumpSize=16;html=1;fontSize=21;fontColor=#FFFFFF;endArrow=block;endFill=0;endSize=16;strokeColor=#000000;strokeWidth=3;" parent="1" source="266" edge="1">
                    <mxGeometry relative="1" as="geometry">
                        <mxPoint x="3186" y="-2050" as="targetPoint"/>
                        <Array as="points">
                            <mxPoint x="3752" y="-570"/>
                            <mxPoint x="3186" y="-570"/>
                        </Array>
                    </mxGeometry>
                </mxCell>
                <mxCell id="266" value="Extremista" style="swimlane;fontStyle=1;align=center;verticalAlign=top;childLayout=stackLayout;horizontal=1;startSize=26;horizontalStack=0;resizeParent=1;resizeParentMax=0;resizeLast=0;collapsible=1;marginBottom=0;fontColor=#ffffff;labelBorderColor=none;labelBackgroundColor=none;swimlaneFillColor=#E8E8E8;strokeColor=#006EAF;fillColor=#1ba1e2;whiteSpace=wrap;" parent="1" vertex="1">
                    <mxGeometry x="3587" y="-540" width="330" height="180" as="geometry"/>
                </mxCell>
                <mxCell id="267" value="- int progreso" style="text;fillColor=none;align=left;verticalAlign=top;spacingLeft=4;spacingRight=4;overflow=hidden;rotatable=0;points=[[0,0.5],[1,0.5]];portConstraint=eastwest;fontColor=#0D0D0D;labelBorderColor=none;labelBackgroundColor=none;strokeColor=#000000;whiteSpace=wrap;" parent="266" vertex="1">
                    <mxGeometry y="26" width="330" height="24" as="geometry"/>
                </mxCell>
                <mxCell id="269" value="+ Extremista();&#10;+ ~Extremista();&#10;+ void chequear_estado(Inventario &amp; inventario, int puntos_energia, Lista&lt;Ubicaciones&gt; &amp; edificios, Constructor &amp; bob, bool fin_turno);&#10;+ void mostrar_objetivo();&#10;+ bool es_principal();" style="text;strokeColor=none;fillColor=none;align=left;verticalAlign=top;spacingLeft=4;spacingRight=4;overflow=hidden;rotatable=0;points=[[0,0.5],[1,0.5]];portConstraint=eastwest;fontColor=#0D0D0D;labelBorderColor=none;labelBackgroundColor=none;whiteSpace=wrap;" parent="266" vertex="1">
                    <mxGeometry y="50" width="330" height="122" as="geometry"/>
                </mxCell>
                <mxCell id="268" value="" style="line;strokeWidth=1;fillColor=none;align=left;verticalAlign=middle;spacingTop=-1;spacingLeft=3;spacingRight=3;rotatable=0;labelPosition=right;points=[];portConstraint=eastwest;whiteSpace=wrap;" parent="266" vertex="1">
                    <mxGeometry y="172" width="330" height="8" as="geometry"/>
                </mxCell>
                <mxCell id="480" style="edgeStyle=none;jumpStyle=arc;jumpSize=16;html=1;fontSize=21;fontColor=#FFFFFF;endArrow=block;endFill=0;endSize=16;strokeColor=#000000;strokeWidth=3;" parent="1" source="270" edge="1">
                    <mxGeometry relative="1" as="geometry">
                        <mxPoint x="3316" y="-2050" as="targetPoint"/>
                        <Array as="points">
                            <mxPoint x="3735" y="-1400"/>
                            <mxPoint x="3316" y="-1400"/>
                        </Array>
                    </mxGeometry>
                </mxCell>
                <mxCell id="270" value="contruirObelisco" style="swimlane;fontStyle=1;align=center;verticalAlign=top;childLayout=stackLayout;horizontal=1;startSize=26;horizontalStack=0;resizeParent=1;resizeParentMax=0;resizeLast=0;collapsible=1;marginBottom=0;fontColor=#ffffff;labelBorderColor=none;labelBackgroundColor=none;swimlaneFillColor=#E8E8E8;strokeColor=#006EAF;fillColor=#1ba1e2;whiteSpace=wrap;" parent="1" vertex="1">
                    <mxGeometry x="3580" y="-1360" width="310" height="180" as="geometry"/>
                </mxCell>
                <mxCell id="271" value="- int progreso" style="text;fillColor=none;align=left;verticalAlign=top;spacingLeft=4;spacingRight=4;overflow=hidden;rotatable=0;points=[[0,0.5],[1,0.5]];portConstraint=eastwest;fontColor=#0D0D0D;labelBorderColor=none;labelBackgroundColor=none;strokeColor=#000000;whiteSpace=wrap;" parent="270" vertex="1">
                    <mxGeometry y="26" width="310" height="24" as="geometry"/>
                </mxCell>
                <mxCell id="272" value="" style="line;strokeWidth=1;fillColor=none;align=left;verticalAlign=middle;spacingTop=-1;spacingLeft=3;spacingRight=3;rotatable=0;labelPosition=right;points=[];portConstraint=eastwest;whiteSpace=wrap;" parent="270" vertex="1">
                    <mxGeometry y="50" width="310" height="8" as="geometry"/>
                </mxCell>
                <mxCell id="273" value="+ ConstruirObelisco();&#10;+ ~ConstruirObelisco();&#10;+ void chequear_estado(Inventario &amp; inventario, int &#10;puntos_energia, Lista&lt;Ubicaciones&gt; &amp; edificios, Constructor &amp; bob, bool fin_turno);&#10;+ void mostrar_objetivo();&#10;+ bool es_principal();" style="text;strokeColor=none;fillColor=none;align=left;verticalAlign=top;spacingLeft=4;spacingRight=4;overflow=hidden;rotatable=0;points=[[0,0.5],[1,0.5]];portConstraint=eastwest;fontColor=#0D0D0D;labelBorderColor=none;labelBackgroundColor=none;whiteSpace=wrap;" parent="270" vertex="1">
                    <mxGeometry y="58" width="310" height="122" as="geometry"/>
                </mxCell>
                <mxCell id="474" style="edgeStyle=none;jumpStyle=arc;jumpSize=16;html=1;entryX=0.357;entryY=1.011;entryDx=0;entryDy=0;entryPerimeter=0;fontSize=21;fontColor=#FFFFFF;endArrow=block;endFill=0;endSize=16;strokeColor=#000000;strokeWidth=3;" parent="1" source="274" target="519" edge="1">
                    <mxGeometry relative="1" as="geometry">
                        <Array as="points">
                            <mxPoint x="2654" y="-1440"/>
                            <mxPoint x="2996" y="-1440"/>
                        </Array>
                    </mxGeometry>
                </mxCell>
                <mxCell id="274" value="ConstructorO" style="swimlane;fontStyle=1;align=center;verticalAlign=top;childLayout=stackLayout;horizontal=1;startSize=26;horizontalStack=0;resizeParent=1;resizeParentMax=0;resizeLast=0;collapsible=1;marginBottom=0;fontColor=#ffffff;labelBorderColor=none;labelBackgroundColor=none;swimlaneFillColor=#E8E8E8;strokeColor=#006EAF;fillColor=#1ba1e2;whiteSpace=wrap;" parent="1" vertex="1">
                    <mxGeometry x="2481" y="-1370" width="345" height="260" as="geometry"/>
                </mxCell>
                <mxCell id="275" value="- bool mina_chequeado;&#10;- bool aserradero_chequeado;&#10;- bool fabrica_chequeado;&#10;- bool escuela_chequeado;&#10;- bool planta_electrica_chequeado;&#10;- bool mina_oro_chequeado;" style="text;fillColor=none;align=left;verticalAlign=top;spacingLeft=4;spacingRight=4;overflow=hidden;rotatable=0;points=[[0,0.5],[1,0.5]];portConstraint=eastwest;fontColor=#0D0D0D;labelBorderColor=none;labelBackgroundColor=none;strokeColor=#000000;whiteSpace=wrap;" parent="274" vertex="1">
                    <mxGeometry y="26" width="345" height="104" as="geometry"/>
                </mxCell>
                <mxCell id="276" value="" style="line;strokeWidth=1;fillColor=none;align=left;verticalAlign=middle;spacingTop=-1;spacingLeft=3;spacingRight=3;rotatable=0;labelPosition=right;points=[];portConstraint=eastwest;whiteSpace=wrap;" parent="274" vertex="1">
                    <mxGeometry y="130" width="345" height="8" as="geometry"/>
                </mxCell>
                <mxCell id="277" value="+ ConstructorO();&#10;+ ~ConstructorO();&#10;+ void chequear_estado(Inventario &amp; inventario, int puntos_energia, Lista&lt;Ubicaciones&gt; &amp; edificios, Constructor &amp; bob, bool fin_turno);&#10;+ void mostrar_objetivo();&#10;+ bool es_principal();" style="text;strokeColor=none;fillColor=none;align=left;verticalAlign=top;spacingLeft=4;spacingRight=4;overflow=hidden;rotatable=0;points=[[0,0.5],[1,0.5]];portConstraint=eastwest;fontColor=#0D0D0D;labelBorderColor=none;labelBackgroundColor=none;whiteSpace=wrap;" parent="274" vertex="1">
                    <mxGeometry y="138" width="345" height="122" as="geometry"/>
                </mxCell>
                <mxCell id="476" style="edgeStyle=none;jumpStyle=arc;jumpSize=16;html=1;entryX=0.537;entryY=1.011;entryDx=0;entryDy=0;entryPerimeter=0;fontSize=21;fontColor=#FFFFFF;endArrow=block;endFill=0;endSize=16;strokeColor=#000000;strokeWidth=3;" parent="1" source="278" target="519" edge="1">
                    <mxGeometry relative="1" as="geometry">
                        <Array as="points">
                            <mxPoint x="2670" y="-840"/>
                            <mxPoint x="3130" y="-840"/>
                        </Array>
                    </mxGeometry>
                </mxCell>
                <mxCell id="278" value="Minero" style="swimlane;fontStyle=1;align=center;verticalAlign=top;childLayout=stackLayout;horizontal=1;startSize=26;horizontalStack=0;resizeParent=1;resizeParentMax=0;resizeLast=0;collapsible=1;marginBottom=0;fontColor=#ffffff;labelBorderColor=none;labelBackgroundColor=none;swimlaneFillColor=#E8E8E8;strokeColor=#006EAF;fillColor=#1ba1e2;whiteSpace=wrap;" parent="1" vertex="1">
                    <mxGeometry x="2488.5" y="-800" width="342.5" height="180" as="geometry"/>
                </mxCell>
                <mxCell id="279" value="- bool objetivo_cumplido;" style="text;fillColor=none;align=left;verticalAlign=top;spacingLeft=4;spacingRight=4;overflow=hidden;rotatable=0;points=[[0,0.5],[1,0.5]];portConstraint=eastwest;fontColor=#0D0D0D;labelBorderColor=none;labelBackgroundColor=none;strokeColor=#000000;whiteSpace=wrap;" parent="278" vertex="1">
                    <mxGeometry y="26" width="342.5" height="24" as="geometry"/>
                </mxCell>
                <mxCell id="280" value="" style="line;strokeWidth=1;fillColor=none;align=left;verticalAlign=middle;spacingTop=-1;spacingLeft=3;spacingRight=3;rotatable=0;labelPosition=right;points=[];portConstraint=eastwest;whiteSpace=wrap;" parent="278" vertex="1">
                    <mxGeometry y="50" width="342.5" height="8" as="geometry"/>
                </mxCell>
                <mxCell id="281" value="+ Minero();&#10;+ ~Minero();&#10;+ void chequear_estado(Inventario &amp; inventario, int puntos_energia, Lista&lt;Ubicaciones&gt; &amp; edificios, Constructor &amp; bob, bool fin_turno);&#10;+ void mostrar_objetivo();&#10;+ bool es_principal();" style="text;strokeColor=none;fillColor=none;align=left;verticalAlign=top;spacingLeft=4;spacingRight=4;overflow=hidden;rotatable=0;points=[[0,0.5],[1,0.5]];portConstraint=eastwest;fontColor=#0D0D0D;labelBorderColor=none;labelBackgroundColor=none;whiteSpace=wrap;" parent="278" vertex="1">
                    <mxGeometry y="58" width="342.5" height="122" as="geometry"/>
                </mxCell>
                <mxCell id="479" style="edgeStyle=none;jumpStyle=arc;jumpSize=16;html=1;fontSize=21;fontColor=#FFFFFF;endArrow=block;endFill=0;endSize=16;strokeColor=#000000;strokeWidth=3;" parent="1" source="282" edge="1">
                    <mxGeometry relative="1" as="geometry">
                        <mxPoint x="3276" y="-2050" as="targetPoint"/>
                        <Array as="points">
                            <mxPoint x="3737" y="-1120"/>
                            <mxPoint x="3276" y="-1120"/>
                        </Array>
                    </mxGeometry>
                </mxCell>
                <mxCell id="282" value="Energetico" style="swimlane;fontStyle=1;align=center;verticalAlign=top;childLayout=stackLayout;horizontal=1;startSize=26;horizontalStack=0;resizeParent=1;resizeParentMax=0;resizeLast=0;collapsible=1;marginBottom=0;fontColor=#ffffff;labelBorderColor=none;labelBackgroundColor=none;swimlaneFillColor=#E8E8E8;strokeColor=#006EAF;fillColor=#1ba1e2;whiteSpace=wrap;" parent="1" vertex="1">
                    <mxGeometry x="3587" y="-1090" width="310" height="200" as="geometry"/>
                </mxCell>
                <mxCell id="283" value="- int progreso" style="text;fillColor=none;align=left;verticalAlign=top;spacingLeft=4;spacingRight=4;overflow=hidden;rotatable=0;points=[[0,0.5],[1,0.5]];portConstraint=eastwest;fontColor=#0D0D0D;labelBorderColor=none;labelBackgroundColor=none;strokeColor=#000000;whiteSpace=wrap;" parent="282" vertex="1">
                    <mxGeometry y="26" width="310" height="24" as="geometry"/>
                </mxCell>
                <mxCell id="284" value="" style="line;strokeWidth=1;fillColor=none;align=left;verticalAlign=middle;spacingTop=-1;spacingLeft=3;spacingRight=3;rotatable=0;labelPosition=right;points=[];portConstraint=eastwest;whiteSpace=wrap;" parent="282" vertex="1">
                    <mxGeometry y="50" width="310" height="8" as="geometry"/>
                </mxCell>
                <mxCell id="285" value="+ Energetico();&#10;+ ~Energetico();&#10;+ void chequear_estado(Inventario &amp; inventario, int puntos_energia, Lista&lt;Ubicaciones&gt; &amp; edificios, Constructor &amp; bob, bool fin_turno);&#10;+ void mostrar_objetivo();&#10;+ bool es_principal();" style="text;strokeColor=none;fillColor=none;align=left;verticalAlign=top;spacingLeft=4;spacingRight=4;overflow=hidden;rotatable=0;points=[[0,0.5],[1,0.5]];portConstraint=eastwest;fontColor=#0D0D0D;labelBorderColor=none;labelBackgroundColor=none;whiteSpace=wrap;" parent="282" vertex="1">
                    <mxGeometry y="58" width="310" height="142" as="geometry"/>
                </mxCell>
                <mxCell id="478" style="edgeStyle=none;jumpStyle=arc;jumpSize=16;html=1;fontSize=21;fontColor=#FFFFFF;endArrow=block;endFill=0;endSize=16;strokeColor=#000000;strokeWidth=3;" parent="1" source="286" edge="1">
                    <mxGeometry relative="1" as="geometry">
                        <mxPoint x="3231" y="-2050" as="targetPoint"/>
                        <Array as="points">
                            <mxPoint x="3742" y="-850"/>
                            <mxPoint x="3231" y="-850"/>
                        </Array>
                    </mxGeometry>
                </mxCell>
                <mxCell id="286" value="Letrado" style="swimlane;fontStyle=1;align=center;verticalAlign=top;childLayout=stackLayout;horizontal=1;startSize=26;horizontalStack=0;resizeParent=1;resizeParentMax=0;resizeLast=0;collapsible=1;marginBottom=0;fontColor=#ffffff;labelBorderColor=none;labelBackgroundColor=none;swimlaneFillColor=#E8E8E8;strokeColor=#006EAF;fillColor=#1ba1e2;whiteSpace=wrap;" parent="1" vertex="1">
                    <mxGeometry x="3587" y="-810" width="310" height="170" as="geometry"/>
                </mxCell>
                <mxCell id="287" value="- int progreso" style="text;fillColor=none;align=left;verticalAlign=top;spacingLeft=4;spacingRight=4;overflow=hidden;rotatable=0;points=[[0,0.5],[1,0.5]];portConstraint=eastwest;fontColor=#0D0D0D;labelBorderColor=none;labelBackgroundColor=none;strokeColor=#000000;whiteSpace=wrap;" parent="286" vertex="1">
                    <mxGeometry y="26" width="310" height="24" as="geometry"/>
                </mxCell>
                <mxCell id="288" value="" style="line;strokeWidth=1;fillColor=none;align=left;verticalAlign=middle;spacingTop=-1;spacingLeft=3;spacingRight=3;rotatable=0;labelPosition=right;points=[];portConstraint=eastwest;whiteSpace=wrap;" parent="286" vertex="1">
                    <mxGeometry y="50" width="310" height="8" as="geometry"/>
                </mxCell>
                <mxCell id="289" value="+ Letrado();&#10;+ ~Letrado();&#10;+ void chequear_estado(Inventario &amp; inventario, int&#10;puntos_energia, Lista&lt;Ubicaciones&gt; &amp; edificios, Constructor &amp; bob, bool fin_turno);&#10;+ void mostrar_objetivo();&#10;+ bool es_principal();" style="text;strokeColor=none;fillColor=none;align=left;verticalAlign=top;spacingLeft=4;spacingRight=4;overflow=hidden;rotatable=0;points=[[0,0.5],[1,0.5]];portConstraint=eastwest;fontColor=#0D0D0D;labelBorderColor=none;labelBackgroundColor=none;whiteSpace=wrap;" parent="286" vertex="1">
                    <mxGeometry y="58" width="310" height="112" as="geometry"/>
                </mxCell>
                <mxCell id="294" value="Mapa" style="swimlane;fontStyle=1;align=center;verticalAlign=top;childLayout=stackLayout;horizontal=1;startSize=40;horizontalStack=0;resizeParent=1;resizeParentMax=0;resizeLast=0;collapsible=1;marginBottom=0;labelBorderColor=none;labelBackgroundColor=none;swimlaneFillColor=#E8E8E8;strokeColor=#0e8088;fontSize=21;fontColor=#FFFFFF;fillColor=#5BA159;" parent="1" vertex="1">
                    <mxGeometry x="-170" y="-1950" width="640" height="800" as="geometry"/>
                </mxCell>
                <mxCell id="295" value="- int filas;&#10;- int columnas;&#10;- Casillero ***mapa;&#10;- Lista&lt;Ubicaciones&gt; materiales;&#10;- Coordenada jugador1;&#10;- Coordenada jugador2;&#10;- Lista&lt;Coordenada&gt; coordenadas_transitables;" style="text;fillColor=none;align=left;verticalAlign=top;spacingLeft=4;spacingRight=4;overflow=hidden;rotatable=0;points=[[0,0.5],[1,0.5]];portConstraint=eastwest;fontColor=#0D0D0D;labelBorderColor=none;labelBackgroundColor=none;strokeColor=#000000;" parent="294" vertex="1">
                    <mxGeometry y="40" width="640" height="114" as="geometry"/>
                </mxCell>
                <mxCell id="296" value="" style="line;strokeWidth=1;fillColor=none;align=left;verticalAlign=middle;spacingTop=-1;spacingLeft=3;spacingRight=3;rotatable=0;labelPosition=right;points=[];portConstraint=eastwest;" parent="294" vertex="1">
                    <mxGeometry y="154" width="640" height="8" as="geometry"/>
                </mxCell>
                <mxCell id="297" value="+ Mapa()&#10;+ ~Mapa()&#10;+ int cant_coord_transitables()&#10;+ Coordenada obtener_posicion_jugador(int i)&#10;+ Coordenada obtener_coord_transitables(int i)&#10;+ void quitar_coord_transitable(Coordenada coord)&#10;+ int obtener_filas()&#10;+ int obtener_columnas()&#10;+ Edificio *obtener_edificio(Coordenada coord)&#10;+ string obtener_nombre_material(Coordenada coord)&#10;+ int obtener_cant_material(Coordenada coord)&#10;+ int obtener_tam_lista_ubicaciones()&#10;+ int obtener_cant_material(int i)&#10;+ string obtener_nombre_material(int i)&#10;+ Coordenada obtener_coordenada(int i, int j)&#10;+ Lista&lt;Ubicaciones&gt; &amp; lista_materiales()&#10;+ void agregar_coordenada_transitable(Coordenada coord)&#10;+ void agregar_material(Coordenada coord, Material* material)&#10;+ void agregar_edificio(Coordenada coord, Edificio* edificio)&#10;+ void agregar_casillero(Coordenada coord, Casillero* casillero)&#10;+ void agregar_jugador(Coordenada coord, Jugador *jugador, int i)&#10;+ void agregar_ubicacion_material_lista(string nombre, Coordenada coord)&#10;+ bool agregar_contenido(Coordenada coord, Edificio *edificio)&#10;+ bool agregar_contenido(Coordenada coord, Material *material)&#10;+ void actualizar_tam_mapa(int _filas, int _columnas)&#10;+ void crear_memoria_mapa(int _filas, int _columnas)&#10;+ void crear_memoria_filas_mapa(int _filas)&#10;+ void crear_memoria_columna_mapa(int posicion_fila, int _columnas)&#10;+ void mostrar()&#10;+ void consultar_coordenada(Coordenada coord)&#10;+ void demoler_contenido(Coordenada coord)&#10;+ bool coordenadas_validas(Coordenada coord)&#10;+ bool coordenada_es_transitable(Coordenada coord)&#10;+ bool casillero_es_transitable(string tipo_casillero)&#10;+ void liberar_materiales()&#10;+ void liberar_edificios(Lista&lt;Ubicaciones&gt; &amp; lista)" style="text;strokeColor=none;fillColor=none;align=left;verticalAlign=top;spacingLeft=4;spacingRight=4;overflow=hidden;rotatable=0;points=[[0,0.5],[1,0.5]];portConstraint=eastwest;fontColor=#0D0D0D;labelBorderColor=none;labelBackgroundColor=none;" parent="294" vertex="1">
                    <mxGeometry y="162" width="640" height="638" as="geometry"/>
                </mxCell>
                <mxCell id="298" value="Jugador" style="swimlane;fontStyle=1;align=center;verticalAlign=top;childLayout=stackLayout;horizontal=1;startSize=40;horizontalStack=0;resizeParent=1;resizeParentMax=0;resizeLast=0;collapsible=1;marginBottom=0;fontColor=#ffffff;labelBorderColor=none;labelBackgroundColor=none;swimlaneFillColor=#E8E8E8;strokeColor=#3700CC;fillColor=#FF26FF;fontSize=21;" parent="1" vertex="1">
                    <mxGeometry x="1120" y="-2520" width="590" height="744" as="geometry"/>
                </mxCell>
                <mxCell id="299" value="- string codigo;&#10;- Lista&lt;Objetivo*&gt; objetivos;&#10;- Inventario inventario; &#10;- int puntos_energia;&#10;    &#10;- bool fobia_al_agua;&#10;- bool odio_al_muelle;&#10;- Lista&lt;Ubicaciones&gt; edificios; " style="text;fillColor=none;align=left;verticalAlign=top;spacingLeft=4;spacingRight=4;overflow=hidden;rotatable=0;points=[[0,0.5],[1,0.5]];portConstraint=eastwest;fontColor=#0D0D0D;labelBorderColor=none;labelBackgroundColor=none;strokeColor=#000000;" parent="298" vertex="1">
                    <mxGeometry y="40" width="590" height="134" as="geometry"/>
                </mxCell>
                <mxCell id="300" value="" style="line;strokeWidth=1;fillColor=none;align=left;verticalAlign=middle;spacingTop=-1;spacingLeft=3;spacingRight=3;rotatable=0;labelPosition=right;points=[];portConstraint=eastwest;" parent="298" vertex="1">
                    <mxGeometry y="174" width="590" height="8" as="geometry"/>
                </mxCell>
                <mxCell id="301" value="+ Jugador()&#10;+ ~Jugador()&#10;+ Lista&lt;Ubicaciones&gt; &amp; lista_edificios()&#10;+ int obtener_energia()&#10;+ int obtener_cant_edificios_construidos(string nombre)&#10;+ string obtener_codigo()&#10;+ void setear_jugador(int id)&#10;+ void agregar_material_al_inventario(Material * material) &#10;+ void agregar_ubicacion_lista_edificios(string nombre, Coordenada coordenada_edificio) &#10;+ bool eliminar_ubicacion_lista_edificios(string nombre, Coordenada coordenada_edificio)&#10;+ void modificar_puntos_energia(int cantidad)&#10;+ void decrementar_puntos_energia(int cantidad)&#10;+ void modificar_cant_material(string nombre_material, int cantidad)&#10;+ bool eliminar_ubicacion_edificio(string nombre, Coordenada coordenada)&#10;+ void agregar_materiales_reciclados(Edificio *edificio)&#10;+ bool se_quedo_sin_energia()&#10;+ bool es_su_edificio(string nombre, Coordenada coordenada)&#10;+ bool cantidad_suficiente_material(Edificio *edificio, bool construir)&#10;+ bool tiene_energia(int cantidad_necesaria)&#10;+ void asignar_objetivos_jugador(Objetivo * objetivo)&#10;+ bool tiene_edificio_por_coordenada(Coordenada coordenadas, string &amp; edificio_a_demoler)&#10;+ void moverse_a_coordenada(int x, int y)&#10;+ void mostrar_inventario()&#10;+ void mostrar_edificios_construidos()&#10;+ void mostrar_objetivos_y_progreso()&#10;+ Inventario &amp; inv()&#10;+ void chequear_objetivos(bool fin_turno, Constructor &amp; bob)&#10;+ bool gano()" style="text;strokeColor=none;fillColor=none;align=left;verticalAlign=top;spacingLeft=4;spacingRight=4;overflow=hidden;rotatable=0;points=[[0,0.5],[1,0.5]];portConstraint=eastwest;fontColor=#0D0D0D;labelBorderColor=none;labelBackgroundColor=none;" parent="298" vertex="1">
                    <mxGeometry y="182" width="590" height="562" as="geometry"/>
                </mxCell>
                <mxCell id="443" style="edgeStyle=none;html=1;entryX=0.5;entryY=0;entryDx=0;entryDy=0;fontSize=21;fontColor=#FFFFFF;strokeColor=#000000;strokeWidth=3;" parent="1" source="304" target="298" edge="1">
                    <mxGeometry relative="1" as="geometry">
                        <Array as="points">
                            <mxPoint x="1405" y="-2758"/>
                        </Array>
                    </mxGeometry>
                </mxCell>
                <mxCell id="304" value="Juego" style="swimlane;fontStyle=1;align=center;verticalAlign=middle;childLayout=stackLayout;horizontal=1;startSize=50;horizontalStack=0;resizeParent=1;resizeParentMax=0;resizeLast=0;collapsible=1;marginBottom=0;fontColor=#ffffff;labelBorderColor=none;labelBackgroundColor=none;swimlaneFillColor=#E8E8E8;strokeColor=#3700CC;fillColor=#FFA454;fontSize=25;" parent="1" vertex="1">
                    <mxGeometry x="230" y="-3030" width="630" height="544" as="geometry"/>
                </mxCell>
                <mxCell id="305" value="- Superficie superficie;&#10;- Constructor bob;&#10;- Recurso recurso;&#10;- Mapa mapa;&#10;- Jugador jugadores[CANT_JUGADORES];&#10;- Parser archivo;&#10;- Menu menu;&#10;- int id_jugador_actual;&#10;- bool partida_nueva = true; " style="text;fillColor=none;align=left;verticalAlign=top;spacingLeft=4;spacingRight=4;overflow=hidden;rotatable=0;points=[[0,0.5],[1,0.5]];portConstraint=eastwest;fontColor=#0D0D0D;labelBorderColor=none;labelBackgroundColor=none;strokeColor=#000000;" parent="304" vertex="1">
                    <mxGeometry y="50" width="630" height="244" as="geometry"/>
                </mxCell>
                <mxCell id="306" value="" style="line;strokeWidth=1;fillColor=none;align=left;verticalAlign=middle;spacingTop=-1;spacingLeft=3;spacingRight=3;rotatable=0;labelPosition=right;points=[];portConstraint=eastwest;" parent="304" vertex="1">
                    <mxGeometry y="294" width="630" height="8" as="geometry"/>
                </mxCell>
                <mxCell id="307" value="&#10;+ Juego();&#10;+ ~Juego();&#10;+ void jugar();&#10;&#10;- void preparar_partida();&#10;- void asignar_objetivos();&#10;- void comenzar_partida();&#10;- void asignar_objetivos_secundarios(int numero, int i);&#10;    &#10;- void lluvia_recursos();&#10;- void colocar_material_random(int , string, const int );&#10;- void celebrar();" style="text;strokeColor=none;fillColor=none;align=left;verticalAlign=top;spacingLeft=4;spacingRight=4;overflow=hidden;rotatable=0;points=[[0,0.5],[1,0.5]];portConstraint=eastwest;fontColor=#0D0D0D;labelBorderColor=none;labelBackgroundColor=none;" parent="304" vertex="1">
                    <mxGeometry y="302" width="630" height="242" as="geometry"/>
                </mxCell>
                <mxCell id="308" value="Jugada" style="swimlane;fontStyle=1;align=center;verticalAlign=top;childLayout=stackLayout;horizontal=1;startSize=45;horizontalStack=0;resizeParent=1;resizeParentMax=0;resizeLast=0;collapsible=1;marginBottom=0;labelBorderColor=none;labelBackgroundColor=none;swimlaneFillColor=#E8E8E8;strokeColor=#56517e;fontSize=21;fontColor=#FFFFFF;fillColor=#9EA659;rounded=1;shadow=1;sketch=0;glass=0;strokeWidth=4;" parent="1" vertex="1">
                    <mxGeometry x="-2290" y="-2240" width="700" height="310" as="geometry"/>
                </mxCell>
                <mxCell id="309" value="" style="text;fillColor=none;align=left;verticalAlign=top;spacingLeft=4;spacingRight=4;overflow=hidden;rotatable=0;points=[[0,0.5],[1,0.5]];portConstraint=eastwest;fontColor=#0D0D0D;labelBorderColor=none;labelBackgroundColor=none;strokeColor=#000000;" parent="308" vertex="1">
                    <mxGeometry y="45" width="700" height="24" as="geometry"/>
                </mxCell>
                <mxCell id="310" value="" style="line;strokeWidth=1;fillColor=none;align=left;verticalAlign=middle;spacingTop=-1;spacingLeft=3;spacingRight=3;rotatable=0;labelPosition=right;points=[];portConstraint=eastwest;" parent="308" vertex="1">
                    <mxGeometry y="69" width="700" height="8" as="geometry"/>
                </mxCell>
                <mxCell id="311" value="+ Jugada(); &#10;+ Coordenada pedir_coordenadas();&#10;+ string pedir_edificio();&#10;+ int pedir_confirmacion();&#10;+ int pedir_id_jugador();&#10;+ bool id_jugador_es_valido(int id_jugador);&#10;+ void setear_coordenada_jugador(int id_jugador, Jugador * jugadores, Mapa &amp; mapa);" style="text;strokeColor=none;fillColor=none;align=left;verticalAlign=top;spacingLeft=4;spacingRight=4;overflow=hidden;rotatable=0;points=[[0,0.5],[1,0.5]];portConstraint=eastwest;fontColor=#0D0D0D;labelBorderColor=none;labelBackgroundColor=none;whiteSpace=wrap;" parent="308" vertex="1">
                    <mxGeometry y="77" width="700" height="233" as="geometry"/>
                </mxCell>
                <mxCell id="489" style="edgeStyle=none;jumpStyle=arc;jumpSize=16;html=1;entryX=0;entryY=0.185;entryDx=0;entryDy=0;entryPerimeter=0;fontSize=21;fontColor=#FFFFFF;endArrow=block;endFill=0;endSize=16;strokeColor=#000000;strokeWidth=3;" parent="1" source="312" target="311" edge="1">
                    <mxGeometry relative="1" as="geometry">
                        <Array as="points">
                            <mxPoint x="-2890" y="-2120"/>
                        </Array>
                    </mxGeometry>
                </mxCell>
                <mxCell id="312" value="ListarEdificios" style="swimlane;fontStyle=1;align=center;verticalAlign=top;childLayout=stackLayout;horizontal=1;startSize=26;horizontalStack=0;resizeParent=1;resizeParentMax=0;resizeLast=0;collapsible=1;marginBottom=0;labelBorderColor=none;labelBackgroundColor=none;swimlaneFillColor=#E8E8E8;strokeColor=#56517e;fontColor=#000000;fillColor=#D8E27A;whiteSpace=wrap;" parent="1" vertex="1">
                    <mxGeometry x="-3040" y="-2080" width="300" height="110" as="geometry"/>
                </mxCell>
                <mxCell id="313" value="" style="text;fillColor=none;align=left;verticalAlign=top;spacingLeft=4;spacingRight=4;overflow=hidden;rotatable=0;points=[[0,0.5],[1,0.5]];portConstraint=eastwest;fontColor=#0D0D0D;labelBorderColor=none;labelBackgroundColor=none;strokeColor=#000000;whiteSpace=wrap;" parent="312" vertex="1">
                    <mxGeometry y="26" width="300" height="24" as="geometry"/>
                </mxCell>
                <mxCell id="314" value="" style="line;strokeWidth=1;fillColor=none;align=left;verticalAlign=middle;spacingTop=-1;spacingLeft=3;spacingRight=3;rotatable=0;labelPosition=right;points=[];portConstraint=eastwest;whiteSpace=wrap;" parent="312" vertex="1">
                    <mxGeometry y="50" width="300" height="8" as="geometry"/>
                </mxCell>
                <mxCell id="315" value="+ void jugar(Constructor &amp; bob, Mapa &amp; mapa, int &amp; turno, Jugador * jugador, int &amp; id_jugador_actual);" style="text;strokeColor=none;fillColor=none;align=left;verticalAlign=top;spacingLeft=4;spacingRight=4;overflow=hidden;rotatable=0;points=[[0,0.5],[1,0.5]];portConstraint=eastwest;fontColor=#0D0D0D;labelBorderColor=none;labelBackgroundColor=none;whiteSpace=wrap;" parent="312" vertex="1">
                    <mxGeometry y="58" width="300" height="52" as="geometry"/>
                </mxCell>
                <mxCell id="488" style="edgeStyle=none;jumpStyle=arc;jumpSize=16;html=1;entryX=0.007;entryY=1.387;entryDx=0;entryDy=0;entryPerimeter=0;fontSize=21;fontColor=#FFFFFF;endArrow=block;endFill=0;endSize=16;strokeColor=#000000;strokeWidth=3;" parent="1" source="316" target="309" edge="1">
                    <mxGeometry relative="1" as="geometry">
                        <Array as="points">
                            <mxPoint x="-3290" y="-2162"/>
                        </Array>
                    </mxGeometry>
                </mxCell>
                <mxCell id="316" value="ModificarEdificio" style="swimlane;fontStyle=1;align=center;verticalAlign=top;childLayout=stackLayout;horizontal=1;startSize=26;horizontalStack=0;resizeParent=1;resizeParentMax=0;resizeLast=0;collapsible=1;marginBottom=0;labelBorderColor=none;labelBackgroundColor=none;swimlaneFillColor=#E8E8E8;strokeColor=#56517e;fontColor=#000000;fillColor=#D8E27A;whiteSpace=wrap;" parent="1" vertex="1">
                    <mxGeometry x="-3455" y="-2080" width="330" height="190" as="geometry"/>
                </mxCell>
                <mxCell id="317" value="" style="text;fillColor=none;align=left;verticalAlign=top;spacingLeft=4;spacingRight=4;overflow=hidden;rotatable=0;points=[[0,0.5],[1,0.5]];portConstraint=eastwest;fontColor=#0D0D0D;labelBorderColor=none;labelBackgroundColor=none;strokeColor=#000000;whiteSpace=wrap;" parent="316" vertex="1">
                    <mxGeometry y="26" width="330" height="24" as="geometry"/>
                </mxCell>
                <mxCell id="318" value="" style="line;strokeWidth=1;fillColor=none;align=left;verticalAlign=middle;spacingTop=-1;spacingLeft=3;spacingRight=3;rotatable=0;labelPosition=right;points=[];portConstraint=eastwest;whiteSpace=wrap;" parent="316" vertex="1">
                    <mxGeometry y="50" width="330" height="8" as="geometry"/>
                </mxCell>
                <mxCell id="319" value="+ void jugar(Constructor &amp;bob, Mapa &amp;mapa, int &amp;turno, Jugador *jugador, int &amp;id_jugador_actual);&#10;+ bool modificar_madera(int &amp;numero_madera, bool &amp;confirmacion);&#10;+ bool modificar_piedra(int &amp;numero_piedra, bool &amp;confirmacion);&#10;    bool modificar_metal(int &amp;numero_metal, bool &amp;confirmacion);" style="text;strokeColor=none;fillColor=none;align=left;verticalAlign=top;spacingLeft=4;spacingRight=4;overflow=hidden;rotatable=0;points=[[0,0.5],[1,0.5]];portConstraint=eastwest;fontColor=#0D0D0D;labelBorderColor=none;labelBackgroundColor=none;whiteSpace=wrap;" parent="316" vertex="1">
                    <mxGeometry y="58" width="330" height="132" as="geometry"/>
                </mxCell>
                <mxCell id="491" style="edgeStyle=none;jumpStyle=arc;jumpSize=16;html=1;entryX=-0.001;entryY=0.619;entryDx=0;entryDy=0;entryPerimeter=0;fontSize=21;fontColor=#FFFFFF;endArrow=block;endFill=0;endSize=16;strokeColor=#000000;strokeWidth=3;" parent="1" source="320" target="311" edge="1">
                    <mxGeometry relative="1" as="geometry">
                        <Array as="points">
                            <mxPoint x="-2900" y="-1840"/>
                            <mxPoint x="-2520" y="-1840"/>
                            <mxPoint x="-2520" y="-2019"/>
                        </Array>
                    </mxGeometry>
                </mxCell>
                <mxCell id="320" value="ComenzarPartida" style="swimlane;fontStyle=1;align=center;verticalAlign=top;childLayout=stackLayout;horizontal=1;startSize=26;horizontalStack=0;resizeParent=1;resizeParentMax=0;resizeLast=0;collapsible=1;marginBottom=0;labelBorderColor=none;labelBackgroundColor=none;swimlaneFillColor=#E8E8E8;strokeColor=#56517e;fontColor=#000000;fillColor=#D8E27A;whiteSpace=wrap;" parent="1" vertex="1">
                    <mxGeometry x="-3050" y="-1830" width="320" height="110" as="geometry"/>
                </mxCell>
                <mxCell id="321" value="" style="text;fillColor=none;align=left;verticalAlign=top;spacingLeft=4;spacingRight=4;overflow=hidden;rotatable=0;points=[[0,0.5],[1,0.5]];portConstraint=eastwest;fontColor=#0D0D0D;labelBorderColor=none;labelBackgroundColor=none;strokeColor=#000000;whiteSpace=wrap;" parent="320" vertex="1">
                    <mxGeometry y="26" width="320" height="24" as="geometry"/>
                </mxCell>
                <mxCell id="322" value="" style="line;strokeWidth=1;fillColor=none;align=left;verticalAlign=middle;spacingTop=-1;spacingLeft=3;spacingRight=3;rotatable=0;labelPosition=right;points=[];portConstraint=eastwest;whiteSpace=wrap;" parent="320" vertex="1">
                    <mxGeometry y="50" width="320" height="8" as="geometry"/>
                </mxCell>
                <mxCell id="323" value="+ void jugar(Constructor &amp; bob, Mapa &amp; mapa, int &amp; turno, Jugador * jugador, int &amp; id_jugador_actual);" style="text;strokeColor=none;fillColor=none;align=left;verticalAlign=top;spacingLeft=4;spacingRight=4;overflow=hidden;rotatable=0;points=[[0,0.5],[1,0.5]];portConstraint=eastwest;fontColor=#0D0D0D;labelBorderColor=none;labelBackgroundColor=none;whiteSpace=wrap;" parent="320" vertex="1">
                    <mxGeometry y="58" width="320" height="52" as="geometry"/>
                </mxCell>
                <mxCell id="490" style="edgeStyle=none;jumpStyle=arc;jumpSize=16;html=1;entryX=0;entryY=0.399;entryDx=0;entryDy=0;entryPerimeter=0;fontSize=21;fontColor=#FFFFFF;endArrow=block;endFill=0;endSize=16;strokeColor=#000000;strokeWidth=3;" parent="1" source="324" target="311" edge="1">
                    <mxGeometry relative="1" as="geometry">
                        <Array as="points">
                            <mxPoint x="-3285" y="-1860"/>
                            <mxPoint x="-2560" y="-1860"/>
                            <mxPoint x="-2560" y="-2070"/>
                        </Array>
                    </mxGeometry>
                </mxCell>
                <mxCell id="324" value="MostrarMapa" style="swimlane;fontStyle=1;align=center;verticalAlign=top;childLayout=stackLayout;horizontal=1;startSize=26;horizontalStack=0;resizeParent=1;resizeParentMax=0;resizeLast=0;collapsible=1;marginBottom=0;labelBorderColor=none;labelBackgroundColor=none;swimlaneFillColor=#E8E8E8;strokeColor=#56517e;fontColor=#000000;fillColor=#D8E27A;whiteSpace=wrap;" parent="1" vertex="1">
                    <mxGeometry x="-3450" y="-1830" width="330" height="110" as="geometry"/>
                </mxCell>
                <mxCell id="325" value="" style="text;fillColor=none;align=left;verticalAlign=top;spacingLeft=4;spacingRight=4;overflow=hidden;rotatable=0;points=[[0,0.5],[1,0.5]];portConstraint=eastwest;fontColor=#0D0D0D;labelBorderColor=none;labelBackgroundColor=none;strokeColor=#000000;whiteSpace=wrap;" parent="324" vertex="1">
                    <mxGeometry y="26" width="330" height="24" as="geometry"/>
                </mxCell>
                <mxCell id="326" value="" style="line;strokeWidth=1;fillColor=none;align=left;verticalAlign=middle;spacingTop=-1;spacingLeft=3;spacingRight=3;rotatable=0;labelPosition=right;points=[];portConstraint=eastwest;whiteSpace=wrap;" parent="324" vertex="1">
                    <mxGeometry y="50" width="330" height="8" as="geometry"/>
                </mxCell>
                <mxCell id="327" value="+ void jugar(Constructor &amp; bob, Mapa &amp; mapa, int &amp; turno, Jugador * jugador, int &amp; id_jugador_actual);" style="text;strokeColor=none;fillColor=none;align=left;verticalAlign=top;spacingLeft=4;spacingRight=4;overflow=hidden;rotatable=0;points=[[0,0.5],[1,0.5]];portConstraint=eastwest;fontColor=#0D0D0D;labelBorderColor=none;labelBackgroundColor=none;whiteSpace=wrap;" parent="324" vertex="1">
                    <mxGeometry y="58" width="330" height="52" as="geometry"/>
                </mxCell>
                <mxCell id="494" style="edgeStyle=none;jumpStyle=arc;jumpSize=16;html=1;fontSize=21;fontColor=#FFFFFF;endArrow=block;endFill=0;endSize=16;strokeColor=#000000;strokeWidth=3;" parent="1" source="336" edge="1">
                    <mxGeometry relative="1" as="geometry">
                        <mxPoint x="-2156" y="-1927" as="targetPoint"/>
                        <Array as="points">
                            <mxPoint x="-2745" y="-1480"/>
                            <mxPoint x="-2156" y="-1480"/>
                        </Array>
                    </mxGeometry>
                </mxCell>
                <mxCell id="336" value="Demoler" style="swimlane;fontStyle=1;align=center;verticalAlign=top;childLayout=stackLayout;horizontal=1;startSize=26;horizontalStack=0;resizeParent=1;resizeParentMax=0;resizeLast=0;collapsible=1;marginBottom=0;labelBorderColor=none;labelBackgroundColor=none;swimlaneFillColor=#E8E8E8;strokeColor=#56517e;fontColor=#000000;fillColor=#D8E27A;whiteSpace=wrap;" parent="1" vertex="1">
                    <mxGeometry x="-2894" y="-1430" width="300" height="110" as="geometry"/>
                </mxCell>
                <mxCell id="337" value="" style="text;fillColor=none;align=left;verticalAlign=top;spacingLeft=4;spacingRight=4;overflow=hidden;rotatable=0;points=[[0,0.5],[1,0.5]];portConstraint=eastwest;fontColor=#0D0D0D;labelBorderColor=none;labelBackgroundColor=none;strokeColor=#000000;whiteSpace=wrap;" parent="336" vertex="1">
                    <mxGeometry y="26" width="300" height="24" as="geometry"/>
                </mxCell>
                <mxCell id="338" value="" style="line;strokeWidth=1;fillColor=none;align=left;verticalAlign=middle;spacingTop=-1;spacingLeft=3;spacingRight=3;rotatable=0;labelPosition=right;points=[];portConstraint=eastwest;whiteSpace=wrap;" parent="336" vertex="1">
                    <mxGeometry y="50" width="300" height="8" as="geometry"/>
                </mxCell>
                <mxCell id="339" value="+ void jugar(Constructor &amp; bob, Mapa &amp; mapa, int &amp; turno, Jugador * jugador, int &amp; id_jugador_actual);" style="text;strokeColor=none;fillColor=none;align=left;verticalAlign=top;spacingLeft=4;spacingRight=4;overflow=hidden;rotatable=0;points=[[0,0.5],[1,0.5]];portConstraint=eastwest;fontColor=#0D0D0D;labelBorderColor=none;labelBackgroundColor=none;whiteSpace=wrap;" parent="336" vertex="1">
                    <mxGeometry y="58" width="300" height="52" as="geometry"/>
                </mxCell>
                <mxCell id="493" style="edgeStyle=none;jumpStyle=arc;jumpSize=16;html=1;fontSize=21;fontColor=#FFFFFF;endArrow=block;endFill=0;endSize=16;strokeColor=#000000;strokeWidth=3;entryX=0.122;entryY=1;entryDx=0;entryDy=0;entryPerimeter=0;" parent="1" source="340" target="311" edge="1">
                    <mxGeometry relative="1" as="geometry">
                        <mxPoint x="-2204" y="-1924" as="targetPoint"/>
                        <Array as="points">
                            <mxPoint x="-3096" y="-1500"/>
                            <mxPoint x="-2205" y="-1500"/>
                        </Array>
                    </mxGeometry>
                </mxCell>
                <mxCell id="340" value="ListarEdificios" style="swimlane;fontStyle=1;align=center;verticalAlign=top;childLayout=stackLayout;horizontal=1;startSize=26;horizontalStack=0;resizeParent=1;resizeParentMax=0;resizeLast=0;collapsible=1;marginBottom=0;labelBorderColor=none;labelBackgroundColor=none;swimlaneFillColor=#E8E8E8;strokeColor=#56517e;fontColor=#000000;fillColor=#D8E27A;whiteSpace=wrap;" parent="1" vertex="1">
                    <mxGeometry x="-3250" y="-1430" width="300" height="110" as="geometry"/>
                </mxCell>
                <mxCell id="341" value="" style="text;fillColor=none;align=left;verticalAlign=top;spacingLeft=4;spacingRight=4;overflow=hidden;rotatable=0;points=[[0,0.5],[1,0.5]];portConstraint=eastwest;fontColor=#0D0D0D;labelBorderColor=none;labelBackgroundColor=none;strokeColor=#000000;whiteSpace=wrap;" parent="340" vertex="1">
                    <mxGeometry y="26" width="300" height="24" as="geometry"/>
                </mxCell>
                <mxCell id="342" value="" style="line;strokeWidth=1;fillColor=none;align=left;verticalAlign=middle;spacingTop=-1;spacingLeft=3;spacingRight=3;rotatable=0;labelPosition=right;points=[];portConstraint=eastwest;whiteSpace=wrap;" parent="340" vertex="1">
                    <mxGeometry y="50" width="300" height="8" as="geometry"/>
                </mxCell>
                <mxCell id="343" value="+ void jugar(Constructor &amp; bob, Mapa &amp; mapa, int &amp; turno, Jugador * jugador, int &amp; id_jugador_actual);" style="text;strokeColor=none;fillColor=none;align=left;verticalAlign=top;spacingLeft=4;spacingRight=4;overflow=hidden;rotatable=0;points=[[0,0.5],[1,0.5]];portConstraint=eastwest;fontColor=#0D0D0D;labelBorderColor=none;labelBackgroundColor=none;whiteSpace=wrap;" parent="340" vertex="1">
                    <mxGeometry y="58" width="300" height="52" as="geometry"/>
                </mxCell>
                <mxCell id="497" style="edgeStyle=none;jumpStyle=arc;jumpSize=16;html=1;fontSize=21;fontColor=#FFFFFF;endArrow=block;endFill=0;endSize=16;strokeColor=#000000;strokeWidth=3;entryX=0.356;entryY=0.996;entryDx=0;entryDy=0;entryPerimeter=0;" parent="1" source="344" target="311" edge="1">
                    <mxGeometry relative="1" as="geometry">
                        <mxPoint x="-2040" y="-1920" as="targetPoint"/>
                        <Array as="points">
                            <mxPoint x="-2727" y="-1130"/>
                            <mxPoint x="-2040" y="-1130"/>
                        </Array>
                    </mxGeometry>
                </mxCell>
                <mxCell id="344" value="Comprar" style="swimlane;fontStyle=1;align=center;verticalAlign=top;childLayout=stackLayout;horizontal=1;startSize=26;horizontalStack=0;resizeParent=1;resizeParentMax=0;resizeLast=0;collapsible=1;marginBottom=0;labelBorderColor=none;labelBackgroundColor=none;swimlaneFillColor=#E8E8E8;strokeColor=#56517e;fontColor=#000000;fillColor=#D8E27A;whiteSpace=wrap;" parent="1" vertex="1">
                    <mxGeometry x="-2877" y="-1080" width="300" height="110" as="geometry"/>
                </mxCell>
                <mxCell id="345" value="" style="text;fillColor=none;align=left;verticalAlign=top;spacingLeft=4;spacingRight=4;overflow=hidden;rotatable=0;points=[[0,0.5],[1,0.5]];portConstraint=eastwest;fontColor=#0D0D0D;labelBorderColor=none;labelBackgroundColor=none;strokeColor=#000000;whiteSpace=wrap;" parent="344" vertex="1">
                    <mxGeometry y="26" width="300" height="24" as="geometry"/>
                </mxCell>
                <mxCell id="346" value="" style="line;strokeWidth=1;fillColor=none;align=left;verticalAlign=middle;spacingTop=-1;spacingLeft=3;spacingRight=3;rotatable=0;labelPosition=right;points=[];portConstraint=eastwest;whiteSpace=wrap;" parent="344" vertex="1">
                    <mxGeometry y="50" width="300" height="8" as="geometry"/>
                </mxCell>
                <mxCell id="347" value="void jugar(Constructor &amp; bob, Mapa &amp; mapa, int &amp; turno, Jugador * jugador, int &amp; id_jugador_actual);" style="text;strokeColor=none;fillColor=none;align=left;verticalAlign=top;spacingLeft=4;spacingRight=4;overflow=hidden;rotatable=0;points=[[0,0.5],[1,0.5]];portConstraint=eastwest;fontColor=#0D0D0D;labelBorderColor=none;labelBackgroundColor=none;whiteSpace=wrap;" parent="344" vertex="1">
                    <mxGeometry y="58" width="300" height="52" as="geometry"/>
                </mxCell>
                <mxCell id="492" style="edgeStyle=none;jumpStyle=arc;jumpSize=16;html=1;fontSize=21;fontColor=#FFFFFF;endArrow=block;endFill=0;endSize=16;strokeColor=#000000;strokeWidth=3;" parent="1" source="348" edge="1">
                    <mxGeometry relative="1" as="geometry">
                        <mxPoint x="-2240" y="-1929" as="targetPoint"/>
                        <Array as="points">
                            <mxPoint x="-3480" y="-1520"/>
                            <mxPoint x="-2240" y="-1520"/>
                        </Array>
                    </mxGeometry>
                </mxCell>
                <mxCell id="348" value="Contruir" style="swimlane;fontStyle=1;align=center;verticalAlign=top;childLayout=stackLayout;horizontal=1;startSize=26;horizontalStack=0;resizeParent=1;resizeParentMax=0;resizeLast=0;collapsible=1;marginBottom=0;labelBorderColor=none;labelBackgroundColor=none;swimlaneFillColor=#E8E8E8;strokeColor=#56517e;fontColor=#000000;fillColor=#D8E27A;whiteSpace=wrap;" parent="1" vertex="1">
                    <mxGeometry x="-3658" y="-1430" width="360" height="230" as="geometry"/>
                </mxCell>
                <mxCell id="349" value="" style="text;fillColor=none;align=left;verticalAlign=top;spacingLeft=4;spacingRight=4;overflow=hidden;rotatable=0;points=[[0,0.5],[1,0.5]];portConstraint=eastwest;fontColor=#0D0D0D;labelBorderColor=none;labelBackgroundColor=none;strokeColor=#000000;whiteSpace=wrap;" parent="348" vertex="1">
                    <mxGeometry y="26" width="360" height="24" as="geometry"/>
                </mxCell>
                <mxCell id="350" value="" style="line;strokeWidth=1;fillColor=none;align=left;verticalAlign=middle;spacingTop=-1;spacingLeft=3;spacingRight=3;rotatable=0;labelPosition=right;points=[];portConstraint=eastwest;whiteSpace=wrap;" parent="348" vertex="1">
                    <mxGeometry y="50" width="360" height="8" as="geometry"/>
                </mxCell>
                <mxCell id="351" value="+ void jugar(Constructor &amp; bob, Mapa &amp; mapa, int &amp; turno, Jugador * jugadores, int &amp; id_jugador_actual);&#10;+ bool chequear_existencia_de_edificio(Constructor &amp; bob, string edificio);&#10;+ bool chequear_requerimientos_edificio(Edificio * edif_ptr, Jugador &amp; jugador);&#10;+ bool chequear_edificios_disponibles(Edificio * edif_ptr, Jugador &amp; jugador);&#10;+ bool descontar_materiales(Edificio * edif_ptr, Jugador &amp; jugador);&#10;+ void imprimir_edificio_construido(Edificio * edif_ptr);" style="text;strokeColor=none;fillColor=none;align=left;verticalAlign=top;spacingLeft=4;spacingRight=4;overflow=hidden;rotatable=0;points=[[0,0.5],[1,0.5]];portConstraint=eastwest;fontColor=#0D0D0D;labelBorderColor=none;labelBackgroundColor=none;whiteSpace=wrap;" parent="348" vertex="1">
                    <mxGeometry y="58" width="360" height="172" as="geometry"/>
                </mxCell>
                <mxCell id="501" style="edgeStyle=none;jumpStyle=arc;jumpSize=16;html=1;entryX=0.574;entryY=0.996;entryDx=0;entryDy=0;entryPerimeter=0;fontSize=21;fontColor=#FFFFFF;endArrow=block;endFill=0;endSize=16;strokeColor=#000000;strokeWidth=3;" parent="1" source="352" target="311" edge="1">
                    <mxGeometry relative="1" as="geometry">
                        <Array as="points">
                            <mxPoint x="-3480" y="-590"/>
                            <mxPoint x="-1880" y="-590"/>
                        </Array>
                    </mxGeometry>
                </mxCell>
                <mxCell id="352" value="Recolectar" style="swimlane;fontStyle=1;align=center;verticalAlign=top;childLayout=stackLayout;horizontal=1;startSize=26;horizontalStack=0;resizeParent=1;resizeParentMax=0;resizeLast=0;collapsible=1;marginBottom=0;labelBorderColor=none;labelBackgroundColor=none;swimlaneFillColor=#E8E8E8;strokeColor=#56517e;fontColor=#000000;fillColor=#D8E27A;whiteSpace=wrap;" parent="1" vertex="1">
                    <mxGeometry x="-3626.5" y="-480" width="300" height="110" as="geometry"/>
                </mxCell>
                <mxCell id="353" value="" style="text;fillColor=none;align=left;verticalAlign=top;spacingLeft=4;spacingRight=4;overflow=hidden;rotatable=0;points=[[0,0.5],[1,0.5]];portConstraint=eastwest;fontColor=#0D0D0D;labelBorderColor=none;labelBackgroundColor=none;strokeColor=#000000;whiteSpace=wrap;" parent="352" vertex="1">
                    <mxGeometry y="26" width="300" height="24" as="geometry"/>
                </mxCell>
                <mxCell id="354" value="" style="line;strokeWidth=1;fillColor=none;align=left;verticalAlign=middle;spacingTop=-1;spacingLeft=3;spacingRight=3;rotatable=0;labelPosition=right;points=[];portConstraint=eastwest;whiteSpace=wrap;" parent="352" vertex="1">
                    <mxGeometry y="50" width="300" height="8" as="geometry"/>
                </mxCell>
                <mxCell id="355" value="+ void jugar(Constructor &amp; bob, Mapa &amp; mapa, int &amp; turno, Jugador * jugador, int &amp; id_jugador_actual);" style="text;strokeColor=none;fillColor=none;align=left;verticalAlign=top;spacingLeft=4;spacingRight=4;overflow=hidden;rotatable=0;points=[[0,0.5],[1,0.5]];portConstraint=eastwest;fontColor=#0D0D0D;labelBorderColor=none;labelBackgroundColor=none;whiteSpace=wrap;" parent="352" vertex="1">
                    <mxGeometry y="58" width="300" height="52" as="geometry"/>
                </mxCell>
                <mxCell id="495" style="edgeStyle=none;jumpStyle=arc;jumpSize=16;html=1;fontSize=21;fontColor=#FFFFFF;endArrow=block;endFill=0;endSize=16;strokeColor=#000000;strokeWidth=3;" parent="1" source="356" edge="1">
                    <mxGeometry relative="1" as="geometry">
                        <mxPoint x="-2120" y="-1927" as="targetPoint"/>
                        <Array as="points">
                            <mxPoint x="-3480" y="-1180"/>
                            <mxPoint x="-2120" y="-1190"/>
                        </Array>
                    </mxGeometry>
                </mxCell>
                <mxCell id="356" value="Atacar" style="swimlane;fontStyle=1;align=center;verticalAlign=top;childLayout=stackLayout;horizontal=1;startSize=26;horizontalStack=0;resizeParent=1;resizeParentMax=0;resizeLast=0;collapsible=1;marginBottom=0;labelBorderColor=none;labelBackgroundColor=none;swimlaneFillColor=#E8E8E8;strokeColor=#56517e;fontColor=#000000;fillColor=#D8E27A;whiteSpace=wrap;" parent="1" vertex="1">
                    <mxGeometry x="-3660" y="-1080" width="360" height="110" as="geometry"/>
                </mxCell>
                <mxCell id="357" value="" style="text;fillColor=none;align=left;verticalAlign=top;spacingLeft=4;spacingRight=4;overflow=hidden;rotatable=0;points=[[0,0.5],[1,0.5]];portConstraint=eastwest;fontColor=#0D0D0D;labelBorderColor=none;labelBackgroundColor=none;strokeColor=#000000;whiteSpace=wrap;" parent="356" vertex="1">
                    <mxGeometry y="26" width="360" height="24" as="geometry"/>
                </mxCell>
                <mxCell id="358" value="" style="line;strokeWidth=1;fillColor=none;align=left;verticalAlign=middle;spacingTop=-1;spacingLeft=3;spacingRight=3;rotatable=0;labelPosition=right;points=[];portConstraint=eastwest;whiteSpace=wrap;" parent="356" vertex="1">
                    <mxGeometry y="50" width="360" height="8" as="geometry"/>
                </mxCell>
                <mxCell id="359" value="+ void jugar(Constructor &amp; bob, Mapa &amp; mapa, int &amp; turno, Jugador * jugador, int &amp; id_jugador_actual);" style="text;strokeColor=none;fillColor=none;align=left;verticalAlign=top;spacingLeft=4;spacingRight=4;overflow=hidden;rotatable=0;points=[[0,0.5],[1,0.5]];portConstraint=eastwest;fontColor=#0D0D0D;labelBorderColor=none;labelBackgroundColor=none;whiteSpace=wrap;" parent="356" vertex="1">
                    <mxGeometry y="58" width="360" height="52" as="geometry"/>
                </mxCell>
                <mxCell id="500" style="edgeStyle=none;jumpStyle=arc;jumpSize=16;html=1;entryX=0.521;entryY=1.02;entryDx=0;entryDy=0;entryPerimeter=0;fontSize=21;fontColor=#FFFFFF;endArrow=block;endFill=0;endSize=16;strokeColor=#000000;strokeWidth=3;" parent="1" source="360" target="311" edge="1">
                    <mxGeometry relative="1" as="geometry">
                        <Array as="points">
                            <mxPoint x="-2727" y="-780"/>
                            <mxPoint x="-1920" y="-780"/>
                        </Array>
                    </mxGeometry>
                </mxCell>
                <mxCell id="360" value="MostrarObjetivos" style="swimlane;fontStyle=1;align=center;verticalAlign=top;childLayout=stackLayout;horizontal=1;startSize=26;horizontalStack=0;resizeParent=1;resizeParentMax=0;resizeLast=0;collapsible=1;marginBottom=0;labelBorderColor=none;labelBackgroundColor=none;swimlaneFillColor=#E8E8E8;strokeColor=#56517e;fontColor=#000000;fillColor=#D8E27A;whiteSpace=wrap;" parent="1" vertex="1">
                    <mxGeometry x="-2880" y="-760" width="300" height="110" as="geometry"/>
                </mxCell>
                <mxCell id="361" value="" style="text;fillColor=none;align=left;verticalAlign=top;spacingLeft=4;spacingRight=4;overflow=hidden;rotatable=0;points=[[0,0.5],[1,0.5]];portConstraint=eastwest;fontColor=#0D0D0D;labelBorderColor=none;labelBackgroundColor=none;strokeColor=#000000;whiteSpace=wrap;" parent="360" vertex="1">
                    <mxGeometry y="26" width="300" height="24" as="geometry"/>
                </mxCell>
                <mxCell id="362" value="" style="line;strokeWidth=1;fillColor=none;align=left;verticalAlign=middle;spacingTop=-1;spacingLeft=3;spacingRight=3;rotatable=0;labelPosition=right;points=[];portConstraint=eastwest;whiteSpace=wrap;" parent="360" vertex="1">
                    <mxGeometry y="50" width="300" height="8" as="geometry"/>
                </mxCell>
                <mxCell id="363" value="+ void jugar(Constructor &amp; bob, Mapa &amp; mapa, int &amp; turno, Jugador * jugador, int &amp; id_jugador_actual);" style="text;strokeColor=none;fillColor=none;align=left;verticalAlign=top;spacingLeft=4;spacingRight=4;overflow=hidden;rotatable=0;points=[[0,0.5],[1,0.5]];portConstraint=eastwest;fontColor=#0D0D0D;labelBorderColor=none;labelBackgroundColor=none;whiteSpace=wrap;" parent="360" vertex="1">
                    <mxGeometry y="58" width="300" height="52" as="geometry"/>
                </mxCell>
                <mxCell id="498" style="edgeStyle=none;jumpStyle=arc;jumpSize=16;html=1;entryX=0.407;entryY=1.002;entryDx=0;entryDy=0;entryPerimeter=0;fontSize=21;fontColor=#FFFFFF;endArrow=block;endFill=0;endSize=16;strokeColor=#000000;strokeWidth=3;" parent="1" source="364" target="311" edge="1">
                    <mxGeometry relative="1" as="geometry">
                        <Array as="points">
                            <mxPoint x="-3478" y="-850"/>
                            <mxPoint x="-2000" y="-850"/>
                        </Array>
                    </mxGeometry>
                </mxCell>
                <mxCell id="364" value="ConsultarCoordenada" style="swimlane;fontStyle=1;align=center;verticalAlign=top;childLayout=stackLayout;horizontal=1;startSize=26;horizontalStack=0;resizeParent=1;resizeParentMax=0;resizeLast=0;collapsible=1;marginBottom=0;labelBorderColor=none;labelBackgroundColor=none;swimlaneFillColor=#E8E8E8;strokeColor=#56517e;fontColor=#000000;fillColor=#D8E27A;whiteSpace=wrap;" parent="1" vertex="1">
                    <mxGeometry x="-3628" y="-790" width="300" height="110" as="geometry"/>
                </mxCell>
                <mxCell id="365" value="" style="text;fillColor=none;align=left;verticalAlign=top;spacingLeft=4;spacingRight=4;overflow=hidden;rotatable=0;points=[[0,0.5],[1,0.5]];portConstraint=eastwest;fontColor=#0D0D0D;labelBorderColor=none;labelBackgroundColor=none;strokeColor=#000000;whiteSpace=wrap;" parent="364" vertex="1">
                    <mxGeometry y="26" width="300" height="24" as="geometry"/>
                </mxCell>
                <mxCell id="366" value="" style="line;strokeWidth=1;fillColor=none;align=left;verticalAlign=middle;spacingTop=-1;spacingLeft=3;spacingRight=3;rotatable=0;labelPosition=right;points=[];portConstraint=eastwest;whiteSpace=wrap;" parent="364" vertex="1">
                    <mxGeometry y="50" width="300" height="8" as="geometry"/>
                </mxCell>
                <mxCell id="367" value="+ void jugar(Constructor &amp; bob, Mapa &amp; mapa, int &amp; turno, Jugador * jugador, int &amp; id_jugador_actual);" style="text;strokeColor=none;fillColor=none;align=left;verticalAlign=top;spacingLeft=4;spacingRight=4;overflow=hidden;rotatable=0;points=[[0,0.5],[1,0.5]];portConstraint=eastwest;fontColor=#0D0D0D;labelBorderColor=none;labelBackgroundColor=none;whiteSpace=wrap;" parent="364" vertex="1">
                    <mxGeometry y="58" width="300" height="52" as="geometry"/>
                </mxCell>
                <mxCell id="496" style="edgeStyle=none;jumpStyle=arc;jumpSize=16;html=1;entryX=0.297;entryY=1.026;entryDx=0;entryDy=0;entryPerimeter=0;fontSize=21;fontColor=#FFFFFF;endArrow=block;endFill=0;endSize=16;strokeColor=#000000;strokeWidth=3;" parent="1" source="372" target="311" edge="1">
                    <mxGeometry relative="1" as="geometry">
                        <Array as="points">
                            <mxPoint x="-3090" y="-1150"/>
                            <mxPoint x="-2082" y="-1160"/>
                        </Array>
                    </mxGeometry>
                </mxCell>
                <mxCell id="372" value="Reparar" style="swimlane;fontStyle=1;align=center;verticalAlign=top;childLayout=stackLayout;horizontal=1;startSize=26;horizontalStack=0;resizeParent=1;resizeParentMax=0;resizeLast=0;collapsible=1;marginBottom=0;labelBorderColor=none;labelBackgroundColor=none;swimlaneFillColor=#E8E8E8;strokeColor=#56517e;fontColor=#000000;fillColor=#D8E27A;whiteSpace=wrap;" parent="1" vertex="1">
                    <mxGeometry x="-3250" y="-1080" width="320" height="210" as="geometry"/>
                </mxCell>
                <mxCell id="373" value="" style="text;fillColor=none;align=left;verticalAlign=top;spacingLeft=4;spacingRight=4;overflow=hidden;rotatable=0;points=[[0,0.5],[1,0.5]];portConstraint=eastwest;fontColor=#0D0D0D;labelBorderColor=none;labelBackgroundColor=none;strokeColor=#000000;whiteSpace=wrap;" parent="372" vertex="1">
                    <mxGeometry y="26" width="320" height="24" as="geometry"/>
                </mxCell>
                <mxCell id="374" value="" style="line;strokeWidth=1;fillColor=none;align=left;verticalAlign=middle;spacingTop=-1;spacingLeft=3;spacingRight=3;rotatable=0;labelPosition=right;points=[];portConstraint=eastwest;whiteSpace=wrap;" parent="372" vertex="1">
                    <mxGeometry y="50" width="320" height="8" as="geometry"/>
                </mxCell>
                <mxCell id="375" value="+ void jugar(Constructor &amp; bob, Mapa &amp; mapa, int &amp; turno, Jugador * jugadores, int &amp; id_jugador_actual);&#10;+ bool chequear_si_requiere_reparacion(Edificio * edif_ptr);&#10;+ bool chequear_materiales_reparacion(Edificio * edif_ptr, Jugador &amp; jugador);&#10;+ void imprimir_edificio_reparado(Edificio * edif_ptr);&#10;+ bool descontar_materiales(Edificio * edif_ptr, Jugador &amp; jugador);" style="text;strokeColor=none;fillColor=none;align=left;verticalAlign=top;spacingLeft=4;spacingRight=4;overflow=hidden;rotatable=0;points=[[0,0.5],[1,0.5]];portConstraint=eastwest;fontColor=#0D0D0D;labelBorderColor=none;labelBackgroundColor=none;whiteSpace=wrap;" parent="372" vertex="1">
                    <mxGeometry y="58" width="320" height="152" as="geometry"/>
                </mxCell>
                <mxCell id="503" style="edgeStyle=none;jumpStyle=arc;jumpSize=16;html=1;fontSize=21;fontColor=#FFFFFF;endArrow=block;endFill=0;endSize=16;strokeColor=#000000;strokeWidth=3;" parent="1" source="376" edge="1">
                    <mxGeometry relative="1" as="geometry">
                        <mxPoint x="-1810" y="-1926" as="targetPoint"/>
                        <Array as="points">
                            <mxPoint x="-2723" y="-530"/>
                            <mxPoint x="-1800" y="-530"/>
                        </Array>
                    </mxGeometry>
                </mxCell>
                <mxCell id="376" value="FinalizarTurno" style="swimlane;fontStyle=1;align=center;verticalAlign=top;childLayout=stackLayout;horizontal=1;startSize=26;horizontalStack=0;resizeParent=1;resizeParentMax=0;resizeLast=0;collapsible=1;marginBottom=0;labelBorderColor=none;labelBackgroundColor=none;swimlaneFillColor=#E8E8E8;strokeColor=#56517e;fontColor=#000000;fillColor=#D8E27A;whiteSpace=wrap;" parent="1" vertex="1">
                    <mxGeometry x="-2873.5" y="-480" width="300" height="110" as="geometry"/>
                </mxCell>
                <mxCell id="377" value="" style="text;fillColor=none;align=left;verticalAlign=top;spacingLeft=4;spacingRight=4;overflow=hidden;rotatable=0;points=[[0,0.5],[1,0.5]];portConstraint=eastwest;fontColor=#0D0D0D;labelBorderColor=none;labelBackgroundColor=none;strokeColor=#000000;whiteSpace=wrap;" parent="376" vertex="1">
                    <mxGeometry y="26" width="300" height="24" as="geometry"/>
                </mxCell>
                <mxCell id="378" value="" style="line;strokeWidth=1;fillColor=none;align=left;verticalAlign=middle;spacingTop=-1;spacingLeft=3;spacingRight=3;rotatable=0;labelPosition=right;points=[];portConstraint=eastwest;whiteSpace=wrap;" parent="376" vertex="1">
                    <mxGeometry y="50" width="300" height="8" as="geometry"/>
                </mxCell>
                <mxCell id="379" value="+  void jugar(Constructor &amp; bob, Mapa &amp; mapa, int &amp; turno, Jugador * jugador, int &amp; id_jugador_actual);" style="text;strokeColor=none;fillColor=none;align=left;verticalAlign=top;spacingLeft=4;spacingRight=4;overflow=hidden;rotatable=0;points=[[0,0.5],[1,0.5]];portConstraint=eastwest;fontColor=#0D0D0D;labelBorderColor=none;labelBackgroundColor=none;whiteSpace=wrap;" parent="376" vertex="1">
                    <mxGeometry y="58" width="300" height="52" as="geometry"/>
                </mxCell>
                <mxCell id="499" style="edgeStyle=none;jumpStyle=arc;jumpSize=16;html=1;entryX=0.464;entryY=1.014;entryDx=0;entryDy=0;entryPerimeter=0;fontSize=21;fontColor=#FFFFFF;endArrow=block;endFill=0;endSize=16;strokeColor=#000000;strokeWidth=3;" parent="1" source="380" target="311" edge="1">
                    <mxGeometry relative="1" as="geometry">
                        <Array as="points">
                            <mxPoint x="-3080" y="-810"/>
                            <mxPoint x="-1965" y="-810"/>
                        </Array>
                    </mxGeometry>
                </mxCell>
                <mxCell id="380" value="MostrarInventario" style="swimlane;fontStyle=1;align=center;verticalAlign=top;childLayout=stackLayout;horizontal=1;startSize=26;horizontalStack=0;resizeParent=1;resizeParentMax=0;resizeLast=0;collapsible=1;marginBottom=0;labelBorderColor=none;labelBackgroundColor=none;swimlaneFillColor=#E8E8E8;strokeColor=#56517e;fontColor=#000000;fillColor=#D8E27A;whiteSpace=wrap;" parent="1" vertex="1">
                    <mxGeometry x="-3240" y="-790" width="300" height="110" as="geometry"/>
                </mxCell>
                <mxCell id="381" value="" style="text;fillColor=none;align=left;verticalAlign=top;spacingLeft=4;spacingRight=4;overflow=hidden;rotatable=0;points=[[0,0.5],[1,0.5]];portConstraint=eastwest;fontColor=#0D0D0D;labelBorderColor=none;labelBackgroundColor=none;strokeColor=#000000;whiteSpace=wrap;" parent="380" vertex="1">
                    <mxGeometry y="26" width="300" height="24" as="geometry"/>
                </mxCell>
                <mxCell id="382" value="" style="line;strokeWidth=1;fillColor=none;align=left;verticalAlign=middle;spacingTop=-1;spacingLeft=3;spacingRight=3;rotatable=0;labelPosition=right;points=[];portConstraint=eastwest;whiteSpace=wrap;" parent="380" vertex="1">
                    <mxGeometry y="50" width="300" height="8" as="geometry"/>
                </mxCell>
                <mxCell id="383" value="+ void jugar(Constructor &amp; bob, Mapa &amp; mapa, int &amp; turno, Jugador * jugador, int &amp; id_jugador_actual);" style="text;strokeColor=none;fillColor=none;align=left;verticalAlign=top;spacingLeft=4;spacingRight=4;overflow=hidden;rotatable=0;points=[[0,0.5],[1,0.5]];portConstraint=eastwest;fontColor=#0D0D0D;labelBorderColor=none;labelBackgroundColor=none;whiteSpace=wrap;" parent="380" vertex="1">
                    <mxGeometry y="58" width="300" height="52" as="geometry"/>
                </mxCell>
                <mxCell id="502" style="edgeStyle=none;jumpStyle=arc;jumpSize=16;html=1;entryX=0.632;entryY=1.017;entryDx=0;entryDy=0;entryPerimeter=0;fontSize=21;fontColor=#FFFFFF;endArrow=block;endFill=0;endSize=16;strokeColor=#000000;strokeWidth=3;" parent="1" source="384" target="311" edge="1">
                    <mxGeometry relative="1" as="geometry">
                        <Array as="points">
                            <mxPoint x="-3076" y="-560"/>
                            <mxPoint x="-1840" y="-560"/>
                        </Array>
                    </mxGeometry>
                </mxCell>
                <mxCell id="384" value="Moverse" style="swimlane;fontStyle=1;align=center;verticalAlign=top;childLayout=stackLayout;horizontal=1;startSize=26;horizontalStack=0;resizeParent=1;resizeParentMax=0;resizeLast=0;collapsible=1;marginBottom=0;labelBorderColor=none;labelBackgroundColor=none;swimlaneFillColor=#E8E8E8;strokeColor=#56517e;fontColor=#000000;fillColor=#D8E27A;whiteSpace=wrap;" parent="1" vertex="1">
                    <mxGeometry x="-3240" y="-480" width="320" height="270" as="geometry"/>
                </mxCell>
                <mxCell id="385" value="- bool matriz_cargada;" style="text;fillColor=none;align=left;verticalAlign=top;spacingLeft=4;spacingRight=4;overflow=hidden;rotatable=0;points=[[0,0.5],[1,0.5]];portConstraint=eastwest;fontColor=#0D0D0D;labelBorderColor=none;labelBackgroundColor=none;strokeColor=#000000;whiteSpace=wrap;" parent="384" vertex="1">
                    <mxGeometry y="26" width="320" height="24" as="geometry"/>
                </mxCell>
                <mxCell id="386" value="" style="line;strokeWidth=1;fillColor=none;align=left;verticalAlign=middle;spacingTop=-1;spacingLeft=3;spacingRight=3;rotatable=0;labelPosition=right;points=[];portConstraint=eastwest;whiteSpace=wrap;" parent="384" vertex="1">
                    <mxGeometry y="50" width="320" height="8" as="geometry"/>
                </mxCell>
                <mxCell id="387" value="+ Moverse();&#10;+ void jugar(Constructor &amp;bob, Mapa &amp;mapa, int &amp;turno, Jugador *jugador, int &amp;id_jugador_actual);&#10;+ Coordenada pedir_coordenadas_destino(int id_jugador_actual, Mapa &amp;mapa);&#10;+ void agregar_vertices(Grafo &amp;grafo, Mapa &amp;mapa);&#10;+ void agregar_caminos(Grafo &amp;grafo, Mapa &amp;mapa, int id_jugador_actual);&#10;+ void recolectar_materiales_del_camino(Mapa &amp;mapa, Lista&lt;Coordenada&gt; &amp;camino_recorrido, Jugador &amp;jugador, int id);&#10;+ void moverse_en_vivo(Mapa &amp;mapa, Lista&lt;Coordenada&gt; &amp;camino_recorrido, Jugador &amp;jugador, int id);&#10;" style="text;strokeColor=none;fillColor=none;align=left;verticalAlign=top;spacingLeft=4;spacingRight=4;overflow=hidden;rotatable=0;points=[[0,0.5],[1,0.5]];portConstraint=eastwest;fontColor=#0D0D0D;labelBorderColor=none;labelBackgroundColor=none;whiteSpace=wrap;" parent="384" vertex="1">
                    <mxGeometry y="58" width="320" height="212" as="geometry"/>
                </mxCell>
                <mxCell id="463" style="edgeStyle=none;jumpStyle=arc;jumpSize=16;html=1;fontSize=21;fontColor=#FFFFFF;endArrow=block;endFill=0;endSize=16;strokeColor=#000000;strokeWidth=3;entryX=0.322;entryY=0.99;entryDx=0;entryDy=0;entryPerimeter=0;" parent="1" source="388" target="25" edge="1">
                    <mxGeometry relative="1" as="geometry">
                        <Array as="points">
                            <mxPoint x="-1570" y="900"/>
                            <mxPoint x="-1380" y="900"/>
                        </Array>
                    </mxGeometry>
                </mxCell>
                <mxCell id="388" value="Andycoins" style="swimlane;fontStyle=1;align=center;verticalAlign=top;childLayout=stackLayout;horizontal=1;startSize=26;horizontalStack=0;resizeParent=1;resizeParentMax=0;resizeLast=0;collapsible=1;marginBottom=0;fontColor=#ffffff;labelBorderColor=none;labelBackgroundColor=none;swimlaneFillColor=#E8E8E8;strokeColor=#001DBC;fillColor=#0050ef;" parent="1" vertex="1">
                    <mxGeometry x="-1650" y="1040" width="160" height="110" as="geometry"/>
                </mxCell>
                <mxCell id="389" value="" style="text;fillColor=none;align=left;verticalAlign=top;spacingLeft=4;spacingRight=4;overflow=hidden;rotatable=0;points=[[0,0.5],[1,0.5]];portConstraint=eastwest;fontColor=#0D0D0D;labelBorderColor=none;labelBackgroundColor=none;strokeColor=#000000;" parent="388" vertex="1">
                    <mxGeometry y="26" width="160" height="24" as="geometry"/>
                </mxCell>
                <mxCell id="390" value="" style="line;strokeWidth=1;fillColor=none;align=left;verticalAlign=middle;spacingTop=-1;spacingLeft=3;spacingRight=3;rotatable=0;labelPosition=right;points=[];portConstraint=eastwest;" parent="388" vertex="1">
                    <mxGeometry y="50" width="160" height="8" as="geometry"/>
                </mxCell>
                <mxCell id="391" value="+ Andycoins();&#10;+ Andycoins(int);&#10;+ ~Andycoins();" style="text;strokeColor=none;fillColor=none;align=left;verticalAlign=top;spacingLeft=4;spacingRight=4;overflow=hidden;rotatable=0;points=[[0,0.5],[1,0.5]];portConstraint=eastwest;fontColor=#0D0D0D;labelBorderColor=none;labelBackgroundColor=none;" parent="388" vertex="1">
                    <mxGeometry y="58" width="160" height="52" as="geometry"/>
                </mxCell>
                <mxCell id="462" style="edgeStyle=none;jumpStyle=arc;jumpSize=16;html=1;fontSize=21;fontColor=#FFFFFF;endArrow=block;endFill=0;endSize=16;strokeColor=#000000;strokeWidth=3;entryX=0.156;entryY=1.005;entryDx=0;entryDy=0;entryPerimeter=0;" parent="1" source="392" target="25" edge="1">
                    <mxGeometry relative="1" as="geometry">
                        <Array as="points">
                            <mxPoint x="-1780" y="840"/>
                            <mxPoint x="-1446" y="840"/>
                        </Array>
                    </mxGeometry>
                </mxCell>
                <mxCell id="392" value="Bomba" style="swimlane;fontStyle=1;align=center;verticalAlign=top;childLayout=stackLayout;horizontal=1;startSize=26;horizontalStack=0;resizeParent=1;resizeParentMax=0;resizeLast=0;collapsible=1;marginBottom=0;fontColor=#ffffff;labelBorderColor=none;labelBackgroundColor=none;swimlaneFillColor=#E8E8E8;strokeColor=#001DBC;fillColor=#0050ef;" parent="1" vertex="1">
                    <mxGeometry x="-1860" y="1043" width="160" height="110" as="geometry"/>
                </mxCell>
                <mxCell id="393" value="" style="text;fillColor=none;align=left;verticalAlign=top;spacingLeft=4;spacingRight=4;overflow=hidden;rotatable=0;points=[[0,0.5],[1,0.5]];portConstraint=eastwest;fontColor=#0D0D0D;labelBorderColor=none;labelBackgroundColor=none;strokeColor=#000000;" parent="392" vertex="1">
                    <mxGeometry y="26" width="160" height="24" as="geometry"/>
                </mxCell>
                <mxCell id="394" value="" style="line;strokeWidth=1;fillColor=none;align=left;verticalAlign=middle;spacingTop=-1;spacingLeft=3;spacingRight=3;rotatable=0;labelPosition=right;points=[];portConstraint=eastwest;" parent="392" vertex="1">
                    <mxGeometry y="50" width="160" height="8" as="geometry"/>
                </mxCell>
                <mxCell id="395" value="+ Bomba();&#10;+ Bomba(int);&#10;+ ~Bomba();" style="text;strokeColor=none;fillColor=none;align=left;verticalAlign=top;spacingLeft=4;spacingRight=4;overflow=hidden;rotatable=0;points=[[0,0.5],[1,0.5]];portConstraint=eastwest;fontColor=#0D0D0D;labelBorderColor=none;labelBackgroundColor=none;" parent="392" vertex="1">
                    <mxGeometry y="58" width="160" height="52" as="geometry"/>
                </mxCell>
                <mxCell id="467" style="edgeStyle=none;jumpStyle=arc;jumpSize=16;html=1;fontSize=21;fontColor=#FFFFFF;endArrow=block;endFill=0;endSize=16;strokeColor=#000000;strokeWidth=3;entryX=0.149;entryY=0.991;entryDx=0;entryDy=0;entryPerimeter=0;" parent="1" source="396" target="189" edge="1">
                    <mxGeometry relative="1" as="geometry">
                        <Array as="points">
                            <mxPoint x="-810"/>
                            <mxPoint x="-530"/>
                        </Array>
                    </mxGeometry>
                </mxCell>
                <mxCell id="396" value="Betun" style="swimlane;fontStyle=1;align=center;verticalAlign=top;childLayout=stackLayout;horizontal=1;startSize=26;horizontalStack=0;resizeParent=1;resizeParentMax=0;resizeLast=0;collapsible=1;marginBottom=0;fontColor=#ffffff;labelBorderColor=none;labelBackgroundColor=none;swimlaneFillColor=#E8E8E8;strokeColor=#6F0000;fillColor=#a20025;" parent="1" vertex="1">
                    <mxGeometry x="-930" y="90" width="240" height="232" as="geometry"/>
                </mxCell>
                <mxCell id="397" value="+ Material *material;" style="text;fillColor=none;align=left;verticalAlign=top;spacingLeft=4;spacingRight=4;overflow=hidden;rotatable=0;points=[[0,0.5],[1,0.5]];portConstraint=eastwest;fontColor=#0D0D0D;labelBorderColor=none;labelBackgroundColor=none;strokeColor=#000000;" parent="396" vertex="1">
                    <mxGeometry y="26" width="240" height="34" as="geometry"/>
                </mxCell>
                <mxCell id="398" value="" style="line;strokeWidth=1;fillColor=none;align=left;verticalAlign=middle;spacingTop=-1;spacingLeft=3;spacingRight=3;rotatable=0;labelPosition=right;points=[];portConstraint=eastwest;" parent="396" vertex="1">
                    <mxGeometry y="60" width="240" height="8" as="geometry"/>
                </mxCell>
                <mxCell id="399" value="+ CasilleroTransitable();&#10;+ ~CasilleroTransitable();" style="text;strokeColor=none;fillColor=none;align=left;verticalAlign=top;spacingLeft=4;spacingRight=4;overflow=hidden;rotatable=0;points=[[0,0.5],[1,0.5]];portConstraint=eastwest;fontColor=#0D0D0D;labelBorderColor=none;labelBackgroundColor=none;" parent="396" vertex="1">
                    <mxGeometry y="68" width="240" height="42" as="geometry"/>
                </mxCell>
                <mxCell id="400" value="+ void mostrar();&#10;+ void display();&#10;+ bool estransitable();&#10;+ bool agregar(Material *material);&#10;+ void demoler();" style="text;strokeColor=none;fillColor=none;align=left;verticalAlign=top;spacingLeft=4;spacingRight=4;overflow=hidden;rotatable=0;points=[[0,0.5],[1,0.5]];portConstraint=eastwest;fontColor=#0D0D0D;labelBorderColor=none;labelBackgroundColor=none;fontStyle=2" parent="396" vertex="1">
                    <mxGeometry y="110" width="240" height="122" as="geometry"/>
                </mxCell>
                <mxCell id="468" style="edgeStyle=none;jumpStyle=arc;jumpSize=16;html=1;fontSize=21;fontColor=#FFFFFF;endArrow=block;endFill=0;endSize=16;strokeColor=#000000;strokeWidth=3;" parent="1" source="401" edge="1">
                    <mxGeometry relative="1" as="geometry">
                        <mxPoint x="-409" y="-80" as="targetPoint"/>
                        <Array as="points">
                            <mxPoint x="-500"/>
                            <mxPoint x="-409"/>
                        </Array>
                    </mxGeometry>
                </mxCell>
                <mxCell id="401" value="Muelle" style="swimlane;fontStyle=1;align=center;verticalAlign=top;childLayout=stackLayout;horizontal=1;startSize=26;horizontalStack=0;resizeParent=1;resizeParentMax=0;resizeLast=0;collapsible=1;marginBottom=0;fontColor=#ffffff;labelBorderColor=none;labelBackgroundColor=none;swimlaneFillColor=#E8E8E8;strokeColor=#6F0000;fillColor=#a20025;" parent="1" vertex="1">
                    <mxGeometry x="-620" y="90" width="240" height="232" as="geometry"/>
                </mxCell>
                <mxCell id="402" value="+ Material *material;" style="text;fillColor=none;align=left;verticalAlign=top;spacingLeft=4;spacingRight=4;overflow=hidden;rotatable=0;points=[[0,0.5],[1,0.5]];portConstraint=eastwest;fontColor=#0D0D0D;labelBorderColor=none;labelBackgroundColor=none;strokeColor=#000000;" parent="401" vertex="1">
                    <mxGeometry y="26" width="240" height="34" as="geometry"/>
                </mxCell>
                <mxCell id="403" value="" style="line;strokeWidth=1;fillColor=none;align=left;verticalAlign=middle;spacingTop=-1;spacingLeft=3;spacingRight=3;rotatable=0;labelPosition=right;points=[];portConstraint=eastwest;" parent="401" vertex="1">
                    <mxGeometry y="60" width="240" height="8" as="geometry"/>
                </mxCell>
                <mxCell id="404" value="+ CasilleroTransitable();&#10;+ ~CasilleroTransitable();" style="text;strokeColor=none;fillColor=none;align=left;verticalAlign=top;spacingLeft=4;spacingRight=4;overflow=hidden;rotatable=0;points=[[0,0.5],[1,0.5]];portConstraint=eastwest;fontColor=#0D0D0D;labelBorderColor=none;labelBackgroundColor=none;" parent="401" vertex="1">
                    <mxGeometry y="68" width="240" height="42" as="geometry"/>
                </mxCell>
                <mxCell id="405" value="+ void mostrar();&#10;+ void display();&#10;+ bool estransitable();&#10;+ bool agregar(Material *material);&#10;+ void demoler();" style="text;strokeColor=none;fillColor=none;align=left;verticalAlign=top;spacingLeft=4;spacingRight=4;overflow=hidden;rotatable=0;points=[[0,0.5],[1,0.5]];portConstraint=eastwest;fontColor=#0D0D0D;labelBorderColor=none;labelBackgroundColor=none;fontStyle=2" parent="401" vertex="1">
                    <mxGeometry y="110" width="240" height="122" as="geometry"/>
                </mxCell>
                <mxCell id="469" style="edgeStyle=none;jumpStyle=arc;jumpSize=16;html=1;entryX=0.701;entryY=1;entryDx=0;entryDy=0;entryPerimeter=0;fontSize=21;fontColor=#FFFFFF;endArrow=block;endFill=0;endSize=16;strokeColor=#000000;strokeWidth=3;" parent="1" source="406" target="189" edge="1">
                    <mxGeometry relative="1" as="geometry">
                        <Array as="points">
                            <mxPoint x="-200"/>
                            <mxPoint x="-310"/>
                        </Array>
                    </mxGeometry>
                </mxCell>
                <mxCell id="406" value="Camino" style="swimlane;fontStyle=1;align=center;verticalAlign=top;childLayout=stackLayout;horizontal=1;startSize=26;horizontalStack=0;resizeParent=1;resizeParentMax=0;resizeLast=0;collapsible=1;marginBottom=0;fontColor=#ffffff;labelBorderColor=none;labelBackgroundColor=none;swimlaneFillColor=#E8E8E8;strokeColor=#6F0000;fillColor=#a20025;" parent="1" vertex="1">
                    <mxGeometry x="-310" y="94" width="240" height="232" as="geometry"/>
                </mxCell>
                <mxCell id="407" value="+ Material *material;" style="text;fillColor=none;align=left;verticalAlign=top;spacingLeft=4;spacingRight=4;overflow=hidden;rotatable=0;points=[[0,0.5],[1,0.5]];portConstraint=eastwest;fontColor=#0D0D0D;labelBorderColor=none;labelBackgroundColor=none;strokeColor=#000000;" parent="406" vertex="1">
                    <mxGeometry y="26" width="240" height="34" as="geometry"/>
                </mxCell>
                <mxCell id="408" value="" style="line;strokeWidth=1;fillColor=none;align=left;verticalAlign=middle;spacingTop=-1;spacingLeft=3;spacingRight=3;rotatable=0;labelPosition=right;points=[];portConstraint=eastwest;" parent="406" vertex="1">
                    <mxGeometry y="60" width="240" height="8" as="geometry"/>
                </mxCell>
                <mxCell id="409" value="+ CasilleroTransitable();&#10;+ ~CasilleroTransitable();" style="text;strokeColor=none;fillColor=none;align=left;verticalAlign=top;spacingLeft=4;spacingRight=4;overflow=hidden;rotatable=0;points=[[0,0.5],[1,0.5]];portConstraint=eastwest;fontColor=#0D0D0D;labelBorderColor=none;labelBackgroundColor=none;" parent="406" vertex="1">
                    <mxGeometry y="68" width="240" height="42" as="geometry"/>
                </mxCell>
                <mxCell id="410" value="+ void mostrar();&#10;+ void display();&#10;+ bool estransitable();&#10;+ bool agregar(Material *material);&#10;+ void demoler();" style="text;strokeColor=none;fillColor=none;align=left;verticalAlign=top;spacingLeft=4;spacingRight=4;overflow=hidden;rotatable=0;points=[[0,0.5],[1,0.5]];portConstraint=eastwest;fontColor=#0D0D0D;labelBorderColor=none;labelBackgroundColor=none;fontStyle=2" parent="406" vertex="1">
                    <mxGeometry y="110" width="240" height="122" as="geometry"/>
                </mxCell>
                <mxCell id="412" value="ABB(Template)" style="swimlane;fontStyle=1;align=center;verticalAlign=top;childLayout=stackLayout;horizontal=1;startSize=26;horizontalStack=0;resizeParent=1;resizeParentMax=0;resizeLast=0;collapsible=1;marginBottom=0;fontColor=#ffffff;labelBorderColor=none;labelBackgroundColor=none;swimlaneFillColor=#E8E8E8;strokeColor=#314354;fillColor=#647687;" parent="1" vertex="1">
                    <mxGeometry x="2680" y="-295" width="420" height="460" as="geometry"/>
                </mxCell>
                <mxCell id="413" value="- ABBNodo&lt;T, C&gt; *raiz;" style="text;fillColor=none;align=left;verticalAlign=top;spacingLeft=4;spacingRight=4;overflow=hidden;rotatable=0;points=[[0,0.5],[1,0.5]];portConstraint=eastwest;fontColor=#0D0D0D;labelBorderColor=none;labelBackgroundColor=none;strokeColor=#000000;" parent="412" vertex="1">
                    <mxGeometry y="26" width="420" height="34" as="geometry"/>
                </mxCell>
                <mxCell id="414" value="" style="line;strokeWidth=1;fillColor=none;align=left;verticalAlign=middle;spacingTop=-1;spacingLeft=3;spacingRight=3;rotatable=0;labelPosition=right;points=[];portConstraint=eastwest;" parent="412" vertex="1">
                    <mxGeometry y="60" width="420" height="8" as="geometry"/>
                </mxCell>
                <mxCell id="415" value="- ABBNodo&lt;T, C&gt; *insertar(ABBNodo&lt;T, C&gt; *nodo, T *dato, C clave);&#10;- ABBNodo&lt;T, C&gt; *buscar(ABBNodo&lt;T, C&gt; *nodo, C clave);&#10;- ABBNodo&lt;T, C&gt; *buscar_const(ABBNodo&lt;T, C&gt; *nodo, C clave) const;&#10;- C buscar_minimo(ABBNodo&lt;T, C&gt; *nodo);&#10;- C buscar_maximo(ABBNodo&lt;T, C&gt; *nodo);&#10;- C sucesor(ABBNodo&lt;T, C&gt; *nodo);&#10;- C predecesor(ABBNodo&lt;T, C&gt; *nodo);&#10;- ABBNodo&lt;T, C&gt; *remover(ABBNodo&lt;T, C&gt; *nodo, C clave);&#10;- void remover_todo(ABBNodo&lt;T, C&gt; *nodo);&#10;- void imprimir_en_orden(ABBNodo&lt;T, C&gt; *node);&#10;&#10;+ ABB();&#10;+ void insertar(T *dato, C clave);&#10;+ bool buscar(C clave);&#10;+ ABBNodo&lt;T, C&gt; *consultar(C clave);&#10;+ ABBNodo&lt;T, C&gt; *consultar_const(C clave) const;&#10;+ C buscar_minimo();&#10;+ C buscar_maximo();&#10;+ C sucesor(C clave);&#10;+ C predecesor(C clave);&#10;+ void remover(C clave);&#10;+ ABBNodo&lt;T, C&gt; *obtener_raiz();&#10;+ bool vacio();&#10;+ void remover_todo();&#10;+ ~ABB&lt;T, C&gt;();&#10;+ void imprimir_en_orden();&#10;" style="text;strokeColor=none;fillColor=none;align=left;verticalAlign=top;spacingLeft=4;spacingRight=4;overflow=hidden;rotatable=0;points=[[0,0.5],[1,0.5]];portConstraint=eastwest;fontColor=#0D0D0D;labelBorderColor=none;labelBackgroundColor=none;" parent="412" vertex="1">
                    <mxGeometry y="68" width="420" height="392" as="geometry"/>
                </mxCell>
                <mxCell id="416" value="ABBNodo" style="swimlane;fontStyle=1;align=center;verticalAlign=top;childLayout=stackLayout;horizontal=1;startSize=26;horizontalStack=0;resizeParent=1;resizeParentMax=0;resizeLast=0;collapsible=1;marginBottom=0;fontColor=#ffffff;labelBorderColor=none;labelBackgroundColor=none;swimlaneFillColor=#E8E8E8;strokeColor=#314354;fillColor=#647687;" parent="1" vertex="1">
                    <mxGeometry x="3210" y="50" width="450" height="400" as="geometry"/>
                </mxCell>
                <mxCell id="417" value="- T* dato;&#10;- C clave;&#10;- ABBNodo&lt;T,C&gt;* izquierda; &#10;- ABBNodo&lt;T,C&gt;* derecha;&#10;- ABBNodo&lt;T,C&gt;* padre;" style="text;fillColor=none;align=left;verticalAlign=top;spacingLeft=4;spacingRight=4;overflow=hidden;rotatable=0;points=[[0,0.5],[1,0.5]];portConstraint=eastwest;fontColor=#0D0D0D;labelBorderColor=none;labelBackgroundColor=none;strokeColor=#000000;" parent="416" vertex="1">
                    <mxGeometry y="26" width="450" height="94" as="geometry"/>
                </mxCell>
                <mxCell id="418" value="" style="line;strokeWidth=1;fillColor=none;align=left;verticalAlign=middle;spacingTop=-1;spacingLeft=3;spacingRight=3;rotatable=0;labelPosition=right;points=[];portConstraint=eastwest;" parent="416" vertex="1">
                    <mxGeometry y="120" width="450" height="8" as="geometry"/>
                </mxCell>
                <mxCell id="419" value="+ ABBNodo(T* dato, C clave);&#10;+ ~ABBNodo();&#10;+ T* obtener_dato();&#10;+ T* obtener_dato_const() const;&#10;+ C obtener_clave();&#10;+ void colocar_dato(T* dato);&#10;+ void colocar_clave(C clave);&#10;+ void colocar_derecha(ABBNodo&lt;T,C&gt;* derecha, ABBNodo&lt;T,C&gt;* padre);&#10;+ void colocar_izquierda(ABBNodo&lt;T,C&gt;* izquierda, ABBNodo&lt;T,C&gt;* padre);&#10;+ void colocar_derecha(ABBNodo&lt;T,C&gt;* derecha);&#10;+ void colocar_izquierda(ABBNodo&lt;T,C&gt;* izquierda);&#10;+ void colocar_padre(ABBNodo&lt;T,C&gt;* padre);&#10;+ ABBNodo&lt;T,C&gt;* obtener_derecha();&#10;+ ABBNodo&lt;T,C&gt;* obtener_izquierda();&#10;+ ABBNodo&lt;T,C&gt;* obtener_padre();&#10;+ bool es_hoja();&#10;+ bool tiene_solo_hijo_derecho();&#10;+ bool tiene_solo_hijo_izquierdo();" style="text;strokeColor=none;fillColor=none;align=left;verticalAlign=top;spacingLeft=4;spacingRight=4;overflow=hidden;rotatable=0;points=[[0,0.5],[1,0.5]];portConstraint=eastwest;fontColor=#0D0D0D;labelBorderColor=none;labelBackgroundColor=none;" parent="416" vertex="1">
                    <mxGeometry y="128" width="450" height="272" as="geometry"/>
                </mxCell>
                <mxCell id="470" style="edgeStyle=none;jumpStyle=arc;jumpSize=16;html=1;entryX=0.568;entryY=1;entryDx=0;entryDy=0;entryPerimeter=0;fontSize=21;fontColor=#FFFFFF;endArrow=block;endFill=0;endSize=16;strokeColor=#000000;strokeWidth=3;" parent="1" source="421" target="188" edge="1">
                    <mxGeometry relative="1" as="geometry"/>
                </mxCell>
                <mxCell id="421" value="Lago" style="swimlane;fontStyle=1;align=center;verticalAlign=top;childLayout=stackLayout;horizontal=1;startSize=26;horizontalStack=0;resizeParent=1;resizeParentMax=0;resizeLast=0;collapsible=1;marginBottom=0;fontColor=#ffffff;labelBorderColor=none;labelBackgroundColor=none;swimlaneFillColor=#E8E8E8;strokeColor=#6F0000;fillColor=#a20025;" parent="1" vertex="1">
                    <mxGeometry x="60" y="70" width="240" height="232" as="geometry"/>
                </mxCell>
                <mxCell id="422" value="+ Material *material;" style="text;fillColor=none;align=left;verticalAlign=top;spacingLeft=4;spacingRight=4;overflow=hidden;rotatable=0;points=[[0,0.5],[1,0.5]];portConstraint=eastwest;fontColor=#0D0D0D;labelBorderColor=none;labelBackgroundColor=none;strokeColor=#000000;" parent="421" vertex="1">
                    <mxGeometry y="26" width="240" height="34" as="geometry"/>
                </mxCell>
                <mxCell id="423" value="" style="line;strokeWidth=1;fillColor=none;align=left;verticalAlign=middle;spacingTop=-1;spacingLeft=3;spacingRight=3;rotatable=0;labelPosition=right;points=[];portConstraint=eastwest;" parent="421" vertex="1">
                    <mxGeometry y="60" width="240" height="8" as="geometry"/>
                </mxCell>
                <mxCell id="424" value="+ CasilleroTransitable();&#10;+ ~CasilleroTransitable();" style="text;strokeColor=none;fillColor=none;align=left;verticalAlign=top;spacingLeft=4;spacingRight=4;overflow=hidden;rotatable=0;points=[[0,0.5],[1,0.5]];portConstraint=eastwest;fontColor=#0D0D0D;labelBorderColor=none;labelBackgroundColor=none;" parent="421" vertex="1">
                    <mxGeometry y="68" width="240" height="42" as="geometry"/>
                </mxCell>
                <mxCell id="425" value="+ void mostrar();&#10;+ void display();&#10;+ bool estransitable();&#10;+ bool agregar(Material *material);&#10;+ void demoler();" style="text;strokeColor=none;fillColor=none;align=left;verticalAlign=top;spacingLeft=4;spacingRight=4;overflow=hidden;rotatable=0;points=[[0,0.5],[1,0.5]];portConstraint=eastwest;fontColor=#0D0D0D;labelBorderColor=none;labelBackgroundColor=none;fontStyle=2" parent="421" vertex="1">
                    <mxGeometry y="110" width="240" height="122" as="geometry"/>
                </mxCell>
                <mxCell id="461" style="edgeStyle=none;jumpStyle=arc;jumpSize=16;html=1;fontSize=21;fontColor=#FFFFFF;endArrow=block;endFill=0;endSize=16;strokeColor=#000000;strokeWidth=3;entryX=0.901;entryY=1.032;entryDx=0;entryDy=0;entryPerimeter=0;" parent="1" source="426" target="27" edge="1">
                    <mxGeometry relative="1" as="geometry">
                        <Array as="points">
                            <mxPoint x="3530" y="800"/>
                            <mxPoint x="2756" y="800"/>
                        </Array>
                    </mxGeometry>
                </mxCell>
                <mxCell id="426" value="MinaOro" style="swimlane;fontStyle=1;align=center;verticalAlign=top;childLayout=stackLayout;horizontal=1;startSize=26;horizontalStack=0;resizeParent=1;resizeParentMax=0;resizeLast=0;collapsible=1;marginBottom=0;fontColor=#ffffff;labelBorderColor=none;labelBackgroundColor=none;swimlaneFillColor=#E8E8E8;strokeColor=#2D7600;fillColor=#60a917;" parent="1" vertex="1">
                    <mxGeometry x="3380" y="1080" width="290" height="150" as="geometry"/>
                </mxCell>
                <mxCell id="427" value="" style="text;fillColor=none;align=left;verticalAlign=top;spacingLeft=4;spacingRight=4;overflow=hidden;rotatable=0;points=[[0,0.5],[1,0.5]];portConstraint=eastwest;fontColor=#0D0D0D;labelBorderColor=none;labelBackgroundColor=none;strokeColor=#000000;" parent="426" vertex="1">
                    <mxGeometry y="26" width="290" height="44" as="geometry"/>
                </mxCell>
                <mxCell id="428" value="" style="line;strokeWidth=1;fillColor=none;align=left;verticalAlign=middle;spacingTop=-1;spacingLeft=3;spacingRight=3;rotatable=0;labelPosition=right;points=[];portConstraint=eastwest;" parent="426" vertex="1">
                    <mxGeometry y="70" width="290" height="8" as="geometry"/>
                </mxCell>
                <mxCell id="429" value="+ Yacimiento(int s, int w, int m, int p);&#10;+ Yacimiento(Edificio *edificio);&#10;+ ~Yacimiento();" style="text;strokeColor=none;fillColor=none;align=left;verticalAlign=top;spacingLeft=4;spacingRight=4;overflow=hidden;rotatable=0;points=[[0,0.5],[1,0.5]];portConstraint=eastwest;fontColor=#0D0D0D;labelBorderColor=none;labelBackgroundColor=none;" parent="426" vertex="1">
                    <mxGeometry y="78" width="290" height="72" as="geometry"/>
                </mxCell>
                <mxCell id="471" style="edgeStyle=none;jumpStyle=arc;jumpSize=16;html=1;entryX=0.556;entryY=1;entryDx=0;entryDy=0;entryPerimeter=0;fontSize=21;fontColor=#FFFFFF;endArrow=block;endFill=0;endSize=16;strokeColor=#000000;strokeWidth=3;" parent="1" source="430" target="187" edge="1">
                    <mxGeometry relative="1" as="geometry"/>
                </mxCell>
                <mxCell id="430" value="Terreno" style="swimlane;fontStyle=1;align=center;verticalAlign=top;childLayout=stackLayout;horizontal=1;startSize=26;horizontalStack=0;resizeParent=1;resizeParentMax=0;resizeLast=0;collapsible=1;marginBottom=0;fontColor=#ffffff;labelBorderColor=none;labelBackgroundColor=none;swimlaneFillColor=#E8E8E8;strokeColor=#6F0000;fillColor=#a20025;" parent="1" vertex="1">
                    <mxGeometry x="850" y="50" width="240" height="232" as="geometry"/>
                </mxCell>
                <mxCell id="431" value="+ Material *material;" style="text;fillColor=none;align=left;verticalAlign=top;spacingLeft=4;spacingRight=4;overflow=hidden;rotatable=0;points=[[0,0.5],[1,0.5]];portConstraint=eastwest;fontColor=#0D0D0D;labelBorderColor=none;labelBackgroundColor=none;strokeColor=#000000;" parent="430" vertex="1">
                    <mxGeometry y="26" width="240" height="34" as="geometry"/>
                </mxCell>
                <mxCell id="432" value="" style="line;strokeWidth=1;fillColor=none;align=left;verticalAlign=middle;spacingTop=-1;spacingLeft=3;spacingRight=3;rotatable=0;labelPosition=right;points=[];portConstraint=eastwest;" parent="430" vertex="1">
                    <mxGeometry y="60" width="240" height="8" as="geometry"/>
                </mxCell>
                <mxCell id="433" value="+ CasilleroTransitable();&#10;+ ~CasilleroTransitable();" style="text;strokeColor=none;fillColor=none;align=left;verticalAlign=top;spacingLeft=4;spacingRight=4;overflow=hidden;rotatable=0;points=[[0,0.5],[1,0.5]];portConstraint=eastwest;fontColor=#0D0D0D;labelBorderColor=none;labelBackgroundColor=none;" parent="430" vertex="1">
                    <mxGeometry y="68" width="240" height="42" as="geometry"/>
                </mxCell>
                <mxCell id="434" value="+ void mostrar();&#10;+ void display();&#10;+ bool estransitable();&#10;+ bool agregar(Material *material);&#10;+ void demoler();" style="text;strokeColor=none;fillColor=none;align=left;verticalAlign=top;spacingLeft=4;spacingRight=4;overflow=hidden;rotatable=0;points=[[0,0.5],[1,0.5]];portConstraint=eastwest;fontColor=#0D0D0D;labelBorderColor=none;labelBackgroundColor=none;fontStyle=2" parent="430" vertex="1">
                    <mxGeometry y="110" width="240" height="122" as="geometry"/>
                </mxCell>
                <mxCell id="435" value="Menu" style="swimlane;fontStyle=1;align=center;verticalAlign=top;childLayout=stackLayout;horizontal=1;startSize=40;horizontalStack=0;resizeParent=1;resizeParentMax=0;resizeLast=0;collapsible=1;marginBottom=0;fontColor=#ffffff;labelBorderColor=none;labelBackgroundColor=none;swimlaneFillColor=#E8E8E8;strokeColor=#3700CC;fillColor=#FF5EFF;fontSize=21;" parent="1" vertex="1">
                    <mxGeometry x="-1495" y="-2760" width="490" height="300" as="geometry"/>
                </mxCell>
                <mxCell id="436" value="" style="text;fillColor=none;align=left;verticalAlign=top;spacingLeft=4;spacingRight=4;overflow=hidden;rotatable=0;points=[[0,0.5],[1,0.5]];portConstraint=eastwest;fontColor=#0D0D0D;labelBorderColor=none;labelBackgroundColor=none;strokeColor=#000000;" parent="435" vertex="1">
                    <mxGeometry y="40" width="490" height="24" as="geometry"/>
                </mxCell>
                <mxCell id="437" value="" style="line;strokeWidth=1;fillColor=none;align=left;verticalAlign=middle;spacingTop=-1;spacingLeft=3;spacingRight=3;rotatable=0;labelPosition=right;points=[];portConstraint=eastwest;" parent="435" vertex="1">
                    <mxGeometry y="64" width="490" height="8" as="geometry"/>
                </mxCell>
                <mxCell id="438" value="+ Jugada *inicial();&#10;+ Jugada *menu_juego(int id_jugador_actual);&#10;+ void partida_nueva_mostrar();&#10;+ void mostrar_menu_juego(int id_jugador);&#10;+ void despedir()&#10;+ int obtener_opcion_usuario();&#10;+ bool es_opcion_valida(int elegida, const int opcion_minima, const int opcion_maxima);&#10;+ void validar_opcion_juego(int &amp;opcion_elegida, int id_jugador_actual);&#10;+ void validar_opcion_partida_nueva(int &amp;opcion_elegida4);&#10;+ Jugada *procesar_opcion_juego(int opcion_elegida); &#10;+ Jugada *procesar_opcion_partida_nueva(int opcion_elegida);&#10;+ void limpiar_pantalla();&#10;+ void volver();" style="text;strokeColor=none;fillColor=none;align=left;verticalAlign=top;spacingLeft=4;spacingRight=4;overflow=hidden;rotatable=0;points=[[0,0.5],[1,0.5]];portConstraint=eastwest;fontColor=#0D0D0D;labelBorderColor=none;labelBackgroundColor=none;" parent="435" vertex="1">
                    <mxGeometry y="72" width="490" height="228" as="geometry"/>
                </mxCell>
                <mxCell id="444" style="edgeStyle=none;html=1;entryX=0.5;entryY=0;entryDx=0;entryDy=0;fontSize=21;fontColor=#FFFFFF;strokeColor=#000000;strokeWidth=3;" parent="1" source="305" target="238" edge="1">
                    <mxGeometry relative="1" as="geometry">
                        <Array as="points">
                            <mxPoint x="-680" y="-2855"/>
                        </Array>
                    </mxGeometry>
                </mxCell>
                <mxCell id="445" style="edgeStyle=none;html=1;entryX=0.5;entryY=0;entryDx=0;entryDy=0;fontSize=21;fontColor=#FFFFFF;strokeColor=#000000;strokeWidth=3;exitX=-0.001;exitY=0.018;exitDx=0;exitDy=0;exitPerimeter=0;" parent="1" source="307" target="294" edge="1">
                    <mxGeometry relative="1" as="geometry">
                        <Array as="points">
                            <mxPoint x="150" y="-2720"/>
                        </Array>
                    </mxGeometry>
                </mxCell>
                <mxCell id="446" style="edgeStyle=none;html=1;entryX=0.5;entryY=0;entryDx=0;entryDy=0;fontSize=21;fontColor=#FFFFFF;strokeColor=#000000;strokeWidth=3;exitX=-0.001;exitY=0.236;exitDx=0;exitDy=0;exitPerimeter=0;" parent="1" source="305" target="435" edge="1">
                    <mxGeometry relative="1" as="geometry">
                        <Array as="points">
                            <mxPoint x="-1250" y="-2920"/>
                        </Array>
                    </mxGeometry>
                </mxCell>
                <mxCell id="448" style="edgeStyle=none;html=1;entryX=0.5;entryY=0;entryDx=0;entryDy=0;fontSize=21;fontColor=#FFFFFF;strokeColor=#000000;strokeWidth=3;exitX=-0.001;exitY=0.62;exitDx=0;exitDy=0;exitPerimeter=0;" parent="1" source="305" target="234" edge="1">
                    <mxGeometry relative="1" as="geometry">
                        <Array as="points">
                            <mxPoint x="-360" y="-2830"/>
                            <mxPoint x="-370" y="-1510"/>
                            <mxPoint x="-1250" y="-1510"/>
                        </Array>
                    </mxGeometry>
                </mxCell>
                <mxCell id="449" style="edgeStyle=none;html=1;entryX=0.5;entryY=0;entryDx=0;entryDy=0;fontSize=21;fontColor=#FFFFFF;strokeColor=#000000;strokeWidth=3;exitX=0;exitY=0.861;exitDx=0;exitDy=0;exitPerimeter=0;" parent="1" source="305" target="125" edge="1">
                    <mxGeometry relative="1" as="geometry">
                        <Array as="points">
                            <mxPoint x="-240" y="-2770"/>
                            <mxPoint x="-240" y="-1440"/>
                            <mxPoint x="-820" y="-1440"/>
                        </Array>
                    </mxGeometry>
                </mxCell>
                <mxCell id="451" style="edgeStyle=none;html=1;entryX=0.5;entryY=0;entryDx=0;entryDy=0;fontSize=21;fontColor=#FFFFFF;strokeColor=#000000;strokeWidth=3;" parent="1" source="297" target="2" edge="1">
                    <mxGeometry relative="1" as="geometry"/>
                </mxCell>
                <mxCell id="452" style="edgeStyle=none;html=1;entryX=0.5;entryY=0;entryDx=0;entryDy=0;fontSize=21;fontColor=#FFFFFF;strokeColor=#000000;strokeWidth=3;" parent="1" source="299" target="242" edge="1">
                    <mxGeometry relative="1" as="geometry">
                        <Array as="points">
                            <mxPoint x="3110" y="-2413"/>
                        </Array>
                    </mxGeometry>
                </mxCell>
                <mxCell id="453" style="edgeStyle=none;html=1;entryX=0.5;entryY=0;entryDx=0;entryDy=0;fontSize=21;fontColor=#FFFFFF;strokeColor=#000000;strokeWidth=3;jumpStyle=arc;jumpSize=16;" parent="1" source="299" target="137" edge="1">
                    <mxGeometry relative="1" as="geometry">
                        <Array as="points">
                            <mxPoint x="840" y="-2410"/>
                            <mxPoint x="840" y="-1020"/>
                            <mxPoint x="-880" y="-1020"/>
                        </Array>
                    </mxGeometry>
                </mxCell>
                <mxCell id="505" style="edgeStyle=none;jumpStyle=arc;jumpSize=16;html=1;fontSize=21;fontColor=#FFFFFF;endArrow=block;endFill=1;endSize=16;strokeColor=#000000;strokeWidth=3;" parent="1" source="11" edge="1">
                    <mxGeometry relative="1" as="geometry">
                        <mxPoint x="2540" y="380" as="targetPoint"/>
                        <Array as="points">
                            <mxPoint x="1780" y="-267"/>
                            <mxPoint x="1780" y="200"/>
                            <mxPoint x="2535" y="200"/>
                        </Array>
                    </mxGeometry>
                </mxCell>
                <mxCell id="506" style="edgeStyle=none;jumpStyle=arc;jumpSize=16;html=1;entryX=0.5;entryY=0;entryDx=0;entryDy=0;fontSize=21;fontColor=#FFFFFF;endArrow=block;endFill=1;endSize=16;strokeColor=#000000;strokeWidth=3;" parent="1" source="413" target="416" edge="1">
                    <mxGeometry relative="1" as="geometry">
                        <Array as="points">
                            <mxPoint x="3430" y="-252"/>
                        </Array>
                    </mxGeometry>
                </mxCell>
                <mxCell id="508" style="edgeStyle=none;jumpStyle=arc;jumpSize=16;html=1;entryX=0.5;entryY=0;entryDx=0;entryDy=0;fontSize=21;fontColor=#FFFFFF;endArrow=block;endFill=1;endSize=16;strokeColor=#000000;strokeWidth=3;" parent="1" source="138" target="71" edge="1">
                    <mxGeometry relative="1" as="geometry">
                        <Array as="points">
                            <mxPoint x="-1290" y="-657"/>
                            <mxPoint x="-1540" y="-657"/>
                        </Array>
                    </mxGeometry>
                </mxCell>
                <mxCell id="509" style="edgeStyle=none;jumpStyle=arc;jumpSize=16;html=1;entryX=0.5;entryY=0;entryDx=0;entryDy=0;fontSize=21;fontColor=#FFFFFF;endArrow=block;endFill=1;endSize=16;strokeColor=#000000;strokeWidth=3;" parent="1" source="72" target="172" edge="1">
                    <mxGeometry relative="1" as="geometry">
                        <Array as="points">
                            <mxPoint x="-1975" y="-360"/>
                        </Array>
                    </mxGeometry>
                </mxCell>
                <mxCell id="510" style="edgeStyle=none;jumpStyle=arc;jumpSize=16;html=1;entryX=0;entryY=0.5;entryDx=0;entryDy=0;fontSize=21;fontColor=#FFFFFF;endArrow=block;endFill=1;endSize=16;strokeColor=#000000;strokeWidth=3;" parent="1" source="130" target="413" edge="1">
                    <mxGeometry relative="1" as="geometry">
                        <Array as="points">
                            <mxPoint x="2370" y="-602"/>
                            <mxPoint x="2370" y="-250"/>
                        </Array>
                    </mxGeometry>
                </mxCell>
                <mxCell id="511" style="edgeStyle=none;jumpStyle=arc;jumpSize=16;html=1;entryX=0.5;entryY=0;entryDx=0;entryDy=0;fontSize=21;fontColor=#FFFFFF;endArrow=block;endFill=1;endSize=16;strokeColor=#000000;strokeWidth=3;" parent="1" source="138" target="22" edge="1">
                    <mxGeometry relative="1" as="geometry">
                        <Array as="points">
                            <mxPoint x="-1310" y="-657"/>
                        </Array>
                    </mxGeometry>
                </mxCell>
                <mxCell id="512" style="edgeStyle=none;jumpStyle=arc;jumpSize=16;html=1;fontSize=21;fontColor=#FFFFFF;endArrow=block;endFill=1;endSize=16;strokeColor=#000000;strokeWidth=3;" parent="1" source="130" edge="1">
                    <mxGeometry relative="1" as="geometry">
                        <mxPoint x="2540" y="380" as="targetPoint"/>
                        <Array as="points">
                            <mxPoint x="2370" y="-602"/>
                            <mxPoint x="2370" y="-250"/>
                            <mxPoint x="2530" y="-250"/>
                        </Array>
                    </mxGeometry>
                </mxCell>
                <mxCell id="518" value="+ void jugar(Constructor &amp;amp;, Mapa &amp;amp;, int &amp;amp;, Jugador *, int &amp;amp;) &#10;+&amp;nbsp; ~Jugada();" style="text;strokeColor=none;fillColor=none;align=left;verticalAlign=top;spacingLeft=4;spacingRight=4;overflow=hidden;rotatable=0;points=[[0,0.5],[1,0.5]];portConstraint=eastwest;fontColor=#0D0D0D;labelBorderColor=none;labelBackgroundColor=none;whiteSpace=wrap;fontStyle=3" parent="1" vertex="1">
                    <mxGeometry x="-2290" y="-2030" width="700" height="140" as="geometry"/>
                </mxCell>
                <mxCell id="520" value="Grafo" style="swimlane;fontStyle=1;align=center;verticalAlign=top;childLayout=stackLayout;horizontal=1;startSize=26;horizontalStack=0;resizeParent=1;resizeParentMax=0;resizeLast=0;collapsible=1;marginBottom=0;fontColor=#ffffff;labelBorderColor=none;labelBackgroundColor=none;swimlaneFillColor=#E8E8E8;strokeColor=#314354;fillColor=#647687;" vertex="1" parent="1">
                    <mxGeometry x="-3320" y="-60" width="460" height="310" as="geometry"/>
                </mxCell>
                <mxCell id="521" value="- int **matrizDeAdyacencia;&#10;- Lista&lt;Coordenada&gt; vertices;&#10;- Dijkstra dijkstra;" style="text;fillColor=none;align=left;verticalAlign=top;spacingLeft=4;spacingRight=4;overflow=hidden;rotatable=0;points=[[0,0.5],[1,0.5]];portConstraint=eastwest;fontColor=#0D0D0D;labelBorderColor=none;labelBackgroundColor=none;strokeColor=#000000;" vertex="1" parent="520">
                    <mxGeometry y="26" width="460" height="54" as="geometry"/>
                </mxCell>
                <mxCell id="522" value="" style="line;strokeWidth=1;fillColor=none;align=left;verticalAlign=middle;spacingTop=-1;spacingLeft=3;spacingRight=3;rotatable=0;labelPosition=right;points=[];portConstraint=eastwest;" vertex="1" parent="520">
                    <mxGeometry y="80" width="460" height="8" as="geometry"/>
                </mxCell>
                <mxCell id="523" value="- void caminoMinimo(int origen, int destino, int &amp; energia, Lista&lt;Coordenada&gt; &amp; lista);&#10;- void agrandarMatrizDeAdyacencia();&#10;- void copiarMatrizAdyacente(int **nuevaAdyacente);&#10;- void inicializarNuevoVertice(int **nuevaAdyacente);&#10;- void liberarMatrizAdyacencia();&#10;&#10;+ Grafo();&#10;+ void agregarVertice(Coordenada nuevoVertice);&#10;+ void caminoMinimo(Coordenada origen, Coordenada destino, int &amp; energia, Lista&lt;Coordenada&gt; &amp; lista);&#10;+ void agregarCamino(Coordenada origen, Coordenada destino, int &amp; peso);&#10;+ ~Grafo();" style="text;strokeColor=none;fillColor=none;align=left;verticalAlign=top;spacingLeft=4;spacingRight=4;overflow=hidden;rotatable=0;points=[[0,0.5],[1,0.5]];portConstraint=eastwest;fontColor=#0D0D0D;labelBorderColor=none;labelBackgroundColor=none;whiteSpace=wrap;" vertex="1" parent="520">
                    <mxGeometry y="88" width="460" height="222" as="geometry"/>
                </mxCell>
                <mxCell id="524" value="Dijkstra" style="swimlane;fontStyle=1;align=center;verticalAlign=top;childLayout=stackLayout;horizontal=1;startSize=26;horizontalStack=0;resizeParent=1;resizeParentMax=0;resizeLast=0;collapsible=1;marginBottom=0;fontColor=#ffffff;labelBorderColor=none;labelBackgroundColor=none;swimlaneFillColor=#E8E8E8;strokeColor=#314354;fillColor=#647687;" vertex="1" parent="1">
                    <mxGeometry x="-3900" y="75" width="350" height="380" as="geometry"/>
                </mxCell>
                <mxCell id="525" value="- bool *verticesVisitados;&#10;- int *distancia;&#10;- int *recorrido;&#10;- int **matrizAdyacencia;&#10;- Lista&lt;Coordenada&gt; vertices;&#10;- int cantidadVertices;" style="text;fillColor=none;align=left;verticalAlign=top;spacingLeft=4;spacingRight=4;overflow=hidden;rotatable=0;points=[[0,0.5],[1,0.5]];portConstraint=eastwest;fontColor=#0D0D0D;labelBorderColor=none;labelBackgroundColor=none;strokeColor=#000000;" vertex="1" parent="524">
                    <mxGeometry y="26" width="350" height="104" as="geometry"/>
                </mxCell>
                <mxCell id="526" value="" style="line;strokeWidth=1;fillColor=none;align=left;verticalAlign=middle;spacingTop=-1;spacingLeft=3;spacingRight=3;rotatable=0;labelPosition=right;points=[];portConstraint=eastwest;" vertex="1" parent="524">
                    <mxGeometry y="130" width="350" height="8" as="geometry"/>
                </mxCell>
                <mxCell id="527" value="- void inicializarVisitados(int origen);&#10;- void inicializarDistancia(const int *distanciaOrigen);&#10;- void inicializarRecorrido(int origen);&#10;- int verticeMinimaDistancia();&#10;- void actualizarDistancia(int vertice);&#10;- void mostrarRecorrido(int origen, int destino, int &amp; energia,-&#10;Lista&lt;Coordenada&gt; &amp; lista);&#10;&#10;+ Dijkstra(){};&#10;+ void construir(Lista&lt;Coordenada&gt; &amp; vertices, int &#10;**matrizAdyacencia);&#10;+ void caminoMinimo(int origen, int destino, int &amp; energia, &#10;Lista&lt;Coordenada&gt; &amp; lista);&#10;+ ~Dijkstra();" style="text;strokeColor=none;fillColor=none;align=left;verticalAlign=top;spacingLeft=4;spacingRight=4;overflow=hidden;rotatable=0;points=[[0,0.5],[1,0.5]];portConstraint=eastwest;fontColor=#0D0D0D;labelBorderColor=none;labelBackgroundColor=none;whiteSpace=wrap;" vertex="1" parent="524">
                    <mxGeometry y="138" width="350" height="242" as="geometry"/>
                </mxCell>
                <mxCell id="529" style="edgeStyle=none;jumpStyle=arc;jumpSize=16;html=1;entryX=0.5;entryY=0;entryDx=0;entryDy=0;fontSize=21;fontColor=#FFFFFF;endArrow=block;endFill=1;endSize=16;strokeColor=#000000;strokeWidth=3;" edge="1" parent="1" target="524">
                    <mxGeometry relative="1" as="geometry">
                        <Array as="points">
                            <mxPoint x="-3725" y="-10"/>
                        </Array>
                        <mxPoint x="-3320" y="-10" as="sourcePoint"/>
                        <mxPoint x="-2075" y="-80" as="targetPoint"/>
                    </mxGeometry>
                </mxCell>
            </root>
        </mxGraphModel>
    </diagram>
</mxfile>